<?xml version="1.0" encoding="UTF-8"?>
<svg id="Laag_1" xmlns="http://www.w3.org/2000/svg" version="1.1" viewBox="0 0 187.25 164.7">
  <!-- Generator: Adobe Illustrator 29.8.3, SVG Export Plug-In . SVG Version: 2.1.1 Build 3)  -->
  <defs>
    <style>
      .st0 {
        fill: #155dfb;
      }

      .st1 {
        fill: #fff;
      }

      .st2 {
        fill: #ffb628;
      }
    </style>
  </defs>
  <path class="st2" d="M24.38,93.87c0-25.66,20.8-46.45,46.45-46.45,11.38,0,21.8,4.1,29.88,10.89l16.52-17.94c-12.43-10.79-28.64-17.33-46.39-17.33C31.71,23.04,0,54.75,0,93.87c0,14.18,4.18,27.37,11.35,38.44l17.22-19.15c-2.69-5.88-4.2-12.41-4.2-19.29,0,0,.01,0,.01,0Z"/>
  <path class="st1" d="M54.02,137.17c5.22,2.03,10.88,3.15,16.82,3.15,21.09,0,38.88-14.05,44.55-33.3h-34.54l-26.83,30.15h0Z"/>
  <path class="st0" d="M129.04,12.83l15.02,14.71-19.39,20.32-16.96,17.77-15.91,16.67h-21.28l-36.25,40.2-16.48,18.28c12.98,14.66,31.93,23.92,53.05,23.92,39.12,0,70.83-31.71,70.83-70.83,0-4.05-.36-8.02-1.01-11.88h-14.43l11.33-11.92,24.97-26.26,14.71,14.08L187.25,0l-58.21,12.83h0ZM70.83,140.33c-5.93,0-11.6-1.12-16.82-3.15l26.83-30.15h34.54c-5.67,19.25-23.47,33.3-44.55,33.3Z"/>
</svg>