<?xml version="1.0" encoding="UTF-8"?>
<svg id="Laag_1" xmlns="http://www.w3.org/2000/svg" version="1.1" viewBox="0 0 95.02 95.02">
  <!-- Generator: Adobe Illustrator 29.8.3, SVG Export Plug-In . SVG Version: 2.1.1 Build 3)  -->
  <defs>
    <style>
      .st0 {
        fill: none;
      }

      .st1 {
        fill: #2e60f1;
      }
    </style>
  </defs>
  <rect class="st0" width="95.02" height="95.02" rx="11.04" ry="11.04"/>
  <g>
    <path class="st1" d="M28.04,49.91c0-9.67,7.84-17.51,17.51-17.51,4.29,0,8.22,1.55,11.26,4.1l6.23-6.76c-4.68-4.07-10.79-6.53-17.48-6.53-14.75,0-26.7,11.95-26.7,26.7,0,5.34,1.58,10.32,4.28,14.49l6.49-7.22c-1.01-2.22-1.58-4.68-1.58-7.27,0,0,0,0,0,0Z"/>
    <path class="st1" d="M67.35,30.01l-13.89,15.54h-8.02l-13.66,15.15-6.21,6.89c4.89,5.53,12.03,9.02,19.99,9.02,14.74,0,26.7-11.95,26.7-26.7,0-1.53-.14-3.02-.38-4.48h-5.44l7.88-9.29,4.95,4.88,3.36-20.49-20.27,4.43,5.01,5.05ZM45.55,67.42c-2.23,0-4.37-.42-6.34-1.19l10.11-11.36h13.02c-2.14,7.26-8.85,12.55-16.79,12.55Z"/>
  </g>
</svg>