<?xml version="1.0" encoding="UTF-8"?>
<svg id="Laag_1" xmlns="http://www.w3.org/2000/svg" version="1.1" viewBox="0 0 718.17 168.88">
  <!-- Generator: Adobe Illustrator 29.8.3, SVG Export Plug-In . SVG Version: 2.1.1 Build 3)  -->
  <defs>
    <style>
      .st0 {
        fill: #fa9400;
      }

      .st1 {
        fill: #ffb300;
      }

      .st2 {
        fill: #fff;
      }
    </style>
  </defs>
  <circle class="st0" cx="84.08" cy="84.08" r="84.08"/>
  <circle class="st1" cx="84.08" cy="84.08" r="75.53"/>
  <path class="st2" d="M106.89,66.37c-.69-2.38-1.65-4.49-2.88-6.33-1.24-1.84-2.74-3.4-4.51-4.69-1.78-1.29-3.79-2.28-6.05-2.95-2.26-.69-4.76-1.03-7.5-1.03-5.11,0-9.6,1.28-13.45,3.81s-6.86,6.23-9.01,11.06c-2.15,4.84-3.23,10.74-3.23,17.7s1.06,12.89,3.18,17.78c2.11,4.89,5.11,8.6,8.99,11.16,3.88,2.55,8.45,3.84,13.73,3.84,4.79,0,8.88-.85,12.28-2.56,3.4-1.71,6-4.13,7.81-7.25,1.81-3.13,2.71-6.83,2.71-11.09l4.3.64h-25.78v-15.91h41.85v12.6c0,8.79-1.85,16.34-5.56,22.64-3.71,6.3-8.83,11.15-15.34,14.55-6.51,3.4-13.96,5.1-22.36,5.1-9.38,0-17.61-2.08-24.71-6.23-7.1-4.15-12.63-10.06-16.58-17.73-3.95-7.66-5.94-16.78-5.94-27.33,0-8.1,1.18-15.34,3.54-21.7,2.36-6.36,5.68-11.76,9.94-16.19,4.26-4.43,9.23-7.8,14.89-10.11,5.66-2.31,11.8-3.46,18.41-3.46,5.66,0,10.94.83,15.83,2.46,4.89,1.65,9.23,3.96,13.01,6.96,3.79,3,6.89,6.55,9.3,10.68,2.41,4.11,3.95,8.65,4.64,13.6h-21.49v-.04h-.01Z"/>
  <g>
    <path class="st2" d="M249.95,59.12c-.46-1.69-1.13-3.19-2.01-4.49s-1.97-2.41-3.26-3.32-2.77-1.61-4.43-2.08c-1.67-.47-3.49-.71-5.48-.71-4,0-7.46.97-10.38,2.9-2.92,1.93-5.16,4.75-6.75,8.44-1.59,3.69-2.38,8.17-2.38,13.44s.77,9.81,2.3,13.54,3.75,6.58,6.65,8.54c2.9,1.96,6.42,2.94,10.56,2.94,3.65,0,6.75-.6,9.29-1.79,2.54-1.2,4.47-2.89,5.78-5.1,1.32-2.2,1.97-4.79,1.97-7.78l3.71.44h-20.07v-14.55h35.58v10.92c0,7.39-1.57,13.71-4.69,18.98-3.13,5.27-7.43,9.31-12.89,12.13-5.47,2.82-11.75,4.23-18.84,4.23-7.87,0-14.79-1.71-20.75-5.12-5.96-3.41-10.61-8.28-13.94-14.61s-5-13.84-5-22.54c0-6.77,1.01-12.78,3.02-18.03,2.01-5.25,4.83-9.7,8.44-13.36,3.61-3.65,7.8-6.42,12.57-8.3,4.77-1.88,9.91-2.82,15.41-2.82,4.78,0,9.23.69,13.36,2.06,4.12,1.37,7.78,3.3,10.96,5.8s5.77,5.47,7.76,8.91c1.99,3.44,3.22,7.21,3.71,11.32h-20.19Z"/>
    <path class="st2" d="M309.45,115.85c-6.47,0-12.05-1.28-16.74-3.85-4.69-2.56-8.29-6.23-10.8-11-2.51-4.77-3.77-10.44-3.77-17.02s1.26-11.99,3.79-16.78c2.52-4.79,6.08-8.53,10.68-11.2,4.59-2.67,10.01-4.01,16.24-4.01,4.41,0,8.43.69,12.09,2.05,3.65,1.37,6.81,3.4,9.47,6.08,2.66,2.69,4.73,6,6.21,9.93,1.48,3.94,2.22,8.44,2.22,13.52v4.92h-53.79v-11.44h35.46c-.03-2.09-.52-3.96-1.49-5.6-.97-1.64-2.29-2.92-3.97-3.85s-3.61-1.39-5.78-1.39-4.18.49-5.92,1.47c-1.75.98-3.13,2.31-4.15,3.99s-1.56,3.58-1.61,5.7v11.65c0,2.53.5,4.73,1.49,6.63s2.4,3.37,4.23,4.41c1.83,1.05,4,1.57,6.53,1.57,1.75,0,3.33-.24,4.75-.72s2.65-1.2,3.67-2.14c1.02-.94,1.79-2.1,2.3-3.46l18.09.52c-.75,4.06-2.4,7.58-4.94,10.58-2.54,3-5.86,5.32-9.97,6.97s-8.86,2.48-14.26,2.48Z"/>
    <path class="st2" d="M366.37,32.16v82.52h-19.7V32.16h19.7Z"/>
    <path class="st2" d="M399.19,115.57c-4.57,0-8.72-1.18-12.45-3.55-3.73-2.36-6.72-5.91-8.95-10.64-2.23-4.73-3.34-10.6-3.34-17.61s1.15-13.27,3.46-17.97c2.31-4.7,5.34-8.18,9.09-10.44,3.75-2.26,7.78-3.38,12.11-3.38,3.25,0,6.03.56,8.34,1.67,2.31,1.12,4.22,2.55,5.72,4.29s2.65,3.56,3.42,5.44h.4v-31.23h19.7v82.52h-19.5v-10.03h-.6c-.83,1.91-2.01,3.69-3.54,5.36-1.53,1.67-3.45,3.01-5.74,4.03s-5,1.53-8.12,1.53ZM406.04,100.21c2.39,0,4.43-.68,6.12-2.03s3-3.27,3.91-5.74c.91-2.47,1.37-5.37,1.37-8.7s-.45-6.3-1.35-8.74c-.9-2.44-2.2-4.32-3.91-5.64s-3.75-1.97-6.14-1.97-4.51.67-6.21,2.01c-1.69,1.34-2.98,3.24-3.85,5.68-.87,2.44-1.31,5.33-1.31,8.66s.44,6.23,1.33,8.7c.89,2.47,2.17,4.39,3.85,5.74,1.68,1.36,3.74,2.03,6.18,2.03Z"/>
    <path class="st2" d="M477.43,114.68h-30.5V32.16h30.46c8.41,0,15.65,1.65,21.74,4.94,6.08,3.29,10.78,8.02,14.08,14.18,3.3,6.17,4.96,13.53,4.96,22.1s-1.65,15.98-4.94,22.16c-3.29,6.18-7.99,10.91-14.08,14.2-6.1,3.29-13.34,4.94-21.72,4.94ZM466.87,97.68h9.79c4.62,0,8.54-.79,11.75-2.36,3.21-1.57,5.64-4.14,7.29-7.7,1.65-3.56,2.48-8.31,2.48-14.24s-.83-10.67-2.5-14.2c-1.67-3.53-4.12-6.08-7.35-7.66-3.24-1.57-7.22-2.36-11.95-2.36h-9.51v48.51Z"/>
    <path class="st2" d="M544.95,115.73c-3.95,0-7.45-.67-10.5-2-3.05-1.33-5.45-3.34-7.21-6.04-1.76-2.7-2.64-6.09-2.64-10.17,0-3.44.6-6.34,1.81-8.7,1.21-2.36,2.87-4.29,5-5.76,2.12-1.48,4.57-2.6,7.33-3.36s5.72-1.28,8.87-1.55c3.52-.32,6.35-.66,8.5-1.03,2.15-.36,3.71-.89,4.69-1.57.98-.68,1.47-1.66,1.47-2.92v-.2c0-2.07-.71-3.67-2.14-4.79-1.42-1.13-3.34-1.69-5.76-1.69-2.61,0-4.7.56-6.29,1.69-1.59,1.13-2.59,2.69-3.02,4.67l-18.17-.65c.54-3.76,1.93-7.12,4.17-10.09,2.24-2.97,5.33-5.31,9.27-7.01,3.93-1.71,8.67-2.56,14.2-2.56,3.95,0,7.59.46,10.92,1.39s6.23,2.27,8.7,4.03c2.47,1.76,4.38,3.92,5.74,6.47,1.36,2.55,2.04,5.47,2.04,8.74v42.07h-18.54v-8.62h-.48c-1.1,2.1-2.51,3.87-4.21,5.32-1.71,1.45-3.71,2.54-6,3.26-2.3.72-4.88,1.09-7.76,1.09ZM551.03,102.83c2.12,0,4.04-.43,5.74-1.29,1.71-.86,3.07-2.05,4.09-3.57,1.02-1.52,1.53-3.28,1.53-5.3v-5.88c-.56.3-1.24.56-2.03.81-.79.24-1.66.47-2.6.68-.94.22-1.91.4-2.9.56-.99.16-1.95.31-2.86.44-1.85.3-3.43.75-4.73,1.37-1.3.62-2.3,1.42-2.98,2.4-.69.98-1.03,2.14-1.03,3.49,0,2.04.73,3.6,2.2,4.67s3.32,1.61,5.58,1.61Z"/>
    <path class="st2" d="M645.71,71.69l-18.09.48c-.19-1.29-.7-2.44-1.53-3.45-.83-1.01-1.91-1.8-3.24-2.38-1.33-.58-2.87-.87-4.61-.87-2.28,0-4.22.46-5.82,1.37-1.6.91-2.38,2.15-2.36,3.71-.03,1.21.46,2.26,1.47,3.14,1.01.89,2.81,1.6,5.42,2.14l11.93,2.26c6.18,1.18,10.78,3.14,13.8,5.88,3.02,2.74,4.55,6.37,4.57,10.88-.03,4.24-1.28,7.94-3.77,11.08-2.48,3.14-5.88,5.58-10.17,7.31s-9.21,2.6-14.75,2.6c-8.84,0-15.8-1.82-20.89-5.46-5.09-3.64-8-8.52-8.72-14.65l19.46-.48c.43,2.26,1.54,3.98,3.34,5.16s4.1,1.77,6.89,1.77c2.52,0,4.58-.47,6.17-1.41s2.39-2.19,2.42-3.75c-.03-1.4-.65-2.52-1.85-3.37-1.21-.85-3.1-1.51-5.68-1.99l-10.8-2.05c-6.21-1.13-10.83-3.22-13.86-6.27-3.04-3.05-4.54-6.94-4.51-11.67-.03-4.14,1.07-7.68,3.3-10.62s5.4-5.19,9.51-6.75c4.11-1.56,8.96-2.34,14.55-2.34,8.38,0,14.99,1.75,19.82,5.26,4.84,3.5,7.51,8.32,8.02,14.45Z"/>
    <path class="st2" d="M674.34,79.38v35.3h-19.7V32.16h19.06v31.99h.68c1.4-3.81,3.69-6.8,6.87-8.95,3.18-2.15,7.08-3.22,11.71-3.22,4.35,0,8.14.96,11.36,2.88,3.22,1.92,5.73,4.63,7.51,8.12,1.79,3.49,2.67,7.58,2.64,12.25v39.45h-19.7v-35.58c.03-3.44-.83-6.12-2.58-8.06-1.75-1.93-4.21-2.9-7.37-2.9-2.07,0-3.89.45-5.46,1.35-1.57.9-2.79,2.18-3.67,3.85-.87,1.67-1.32,3.68-1.35,6.04Z"/>
  </g>
  <g>
    <path class="st2" d="M207.98,138.09h2.88v16.97c0,1.52-.28,2.8-.83,3.86s-1.34,1.86-2.35,2.41c-1.01.55-2.21.82-3.58.82-1.3,0-2.45-.24-3.47-.71s-1.81-1.15-2.39-2.03c-.58-.88-.87-1.93-.87-3.14h2.83c0,.67.17,1.26.5,1.76.34.5.8.89,1.38,1.17.59.28,1.26.42,2.01.42.83,0,1.53-.17,2.11-.52.58-.35,1.02-.86,1.33-1.54.3-.68.46-1.5.46-2.49v-16.97Z"/>
    <path class="st2" d="M223.47,162.2c-1.61,0-3.02-.38-4.23-1.15-1.21-.77-2.15-1.84-2.83-3.21-.68-1.38-1.01-2.98-1.01-4.82s.34-3.47,1.01-4.86c.68-1.38,1.62-2.46,2.83-3.22,1.21-.76,2.62-1.15,4.23-1.15s3.02.38,4.23,1.15c1.21.77,2.15,1.84,2.83,3.22.68,1.38,1.01,3,1.01,4.86s-.34,3.45-1.01,4.82c-.68,1.38-1.62,2.45-2.83,3.21-1.21.76-2.62,1.15-4.23,1.15ZM223.47,159.75c1.22,0,2.23-.31,3.01-.94s1.37-1.45,1.75-2.47c.38-1.02.57-2.12.57-3.32s-.19-2.3-.57-3.33c-.38-1.03-.96-1.86-1.75-2.49s-1.79-.95-3.01-.95-2.23.32-3.01.95c-.79.63-1.37,1.46-1.75,2.49-.38,1.03-.57,2.14-.57,3.33s.19,2.3.57,3.32c.38,1.02.96,1.84,1.75,2.47.79.63,1.79.94,3.01.94Z"/>
    <path class="st2" d="M246.93,154.55v-10.53h2.74v17.81h-2.74v-3.01h-.19c-.42.9-1.07,1.67-1.95,2.3-.88.63-1.99.94-3.34.94-1.11,0-2.1-.25-2.97-.74-.87-.49-1.55-1.23-2.04-2.23-.49-.99-.74-2.25-.74-3.76v-11.32h2.74v11.13c0,1.3.37,2.33,1.1,3.11.73.77,1.66,1.16,2.8,1.16.68,0,1.37-.17,2.08-.52s1.3-.88,1.79-1.6c.48-.72.72-1.63.72-2.75Z"/>
    <path class="st2" d="M258.71,161.83l-5.43-17.81h2.88l3.85,13.64h.19l3.8-13.64h2.92l3.76,13.59h.19l3.85-13.59h2.88l-5.43,17.81h-2.69l-3.9-13.68h-.28l-3.9,13.68h-2.69Z"/>
    <path class="st2" d="M304.95,144.02l-6.59,17.81h-2.78l-6.58-17.81h2.97l4.92,14.19h.19l4.92-14.19h2.97Z"/>
    <path class="st2" d="M315.39,162.2c-1.72,0-3.19-.38-4.44-1.14-1.24-.76-2.2-1.83-2.86-3.2-.67-1.37-1-2.97-1-4.79s.33-3.43,1-4.83c.67-1.39,1.6-2.48,2.81-3.27,1.2-.78,2.61-1.18,4.21-1.18.93,0,1.84.15,2.75.46.91.31,1.73.81,2.47,1.5.74.69,1.33,1.61,1.77,2.74.44,1.14.66,2.54.66,4.2v1.16h-13.73v-2.37h10.95c0-1-.2-1.9-.6-2.69-.4-.79-.96-1.41-1.69-1.87s-1.59-.68-2.58-.68c-1.09,0-2.03.27-2.82.81-.79.54-1.4,1.24-1.83,2.09-.43.86-.64,1.78-.64,2.76v1.58c0,1.34.23,2.48.7,3.41s1.12,1.64,1.95,2.12c.83.48,1.81.72,2.91.72.72,0,1.37-.1,1.95-.31.58-.2,1.09-.51,1.51-.93.43-.41.75-.93.99-1.55l2.64.74c-.28.9-.75,1.68-1.4,2.36-.66.68-1.47,1.2-2.43,1.58-.97.38-2.05.56-3.26.56Z"/>
    <path class="st2" d="M326.93,161.83v-17.81h2.64v2.69h.19c.33-.88.91-1.6,1.76-2.14s1.81-.82,2.88-.82c.2,0,.45,0,.75.01.3,0,.53.02.68.04v2.78c-.09-.02-.3-.06-.63-.11-.33-.05-.67-.08-1.04-.08-.87,0-1.64.18-2.31.54-.68.36-1.21.85-1.6,1.48-.39.63-.59,1.35-.59,2.15v11.27h-2.74Z"/>
    <path class="st2" d="M339.09,161.83v-17.81h2.64v2.78h.23c.37-.95.97-1.69,1.8-2.22.83-.53,1.82-.79,2.98-.79s2.15.26,2.94.79c.79.53,1.4,1.27,1.84,2.22h.19c.46-.92,1.14-1.65,2.05-2.2.91-.54,2-.82,3.28-.82,1.59,0,2.9.5,3.91,1.49,1.01.99,1.52,2.54,1.52,4.63v11.92h-2.74v-11.92c0-1.31-.36-2.25-1.08-2.82s-1.57-.85-2.54-.85c-1.25,0-2.22.38-2.91,1.13-.69.75-1.03,1.71-1.03,2.86v11.59h-2.78v-12.2c0-1.01-.33-1.83-.99-2.45s-1.5-.93-2.54-.93c-.71,0-1.37.19-1.99.57s-1.11.9-1.48,1.57c-.38.67-.56,1.44-.56,2.31v11.13h-2.74Z"/>
    <path class="st2" d="M374.7,162.2c-1.61,0-3.02-.38-4.23-1.15-1.21-.77-2.15-1.84-2.83-3.21-.68-1.38-1.01-2.98-1.01-4.82s.34-3.47,1.01-4.86c.68-1.38,1.62-2.46,2.83-3.22,1.21-.76,2.62-1.15,4.23-1.15s3.02.38,4.23,1.15c1.21.77,2.15,1.84,2.83,3.22.68,1.38,1.01,3,1.01,4.86s-.34,3.45-1.01,4.82c-.68,1.38-1.62,2.45-2.83,3.21-1.21.76-2.62,1.15-4.23,1.15ZM374.7,159.75c1.22,0,2.23-.31,3.01-.94s1.37-1.45,1.75-2.47c.38-1.02.57-2.12.57-3.32s-.19-2.3-.57-3.33c-.38-1.03-.96-1.86-1.75-2.49s-1.79-.95-3.01-.95-2.23.32-3.01.95c-.79.63-1.37,1.46-1.75,2.49-.38,1.03-.57,2.14-.57,3.33s.19,2.3.57,3.32c.38,1.02.96,1.84,1.75,2.47.79.63,1.79.94,3.01.94Z"/>
    <path class="st2" d="M394.14,168.88c-1.32,0-2.46-.17-3.41-.5s-1.74-.78-2.37-1.32-1.13-1.13-1.5-1.75l2.18-1.53c.25.32.56.7.94,1.12.38.42.9.79,1.56,1.1.66.31,1.53.47,2.6.47,1.44,0,2.62-.35,3.56-1.04.93-.7,1.4-1.79,1.4-3.27v-3.62h-.23c-.2.33-.49.72-.85,1.2s-.89.9-1.58,1.26c-.68.37-1.61.55-2.76.55-1.44,0-2.73-.34-3.87-1.02-1.14-.68-2.04-1.67-2.7-2.97s-.99-2.88-.99-4.73.32-3.42.96-4.77,1.53-2.41,2.68-3.15c1.14-.75,2.47-1.12,3.96-1.12,1.16,0,2.08.19,2.77.57.68.38,1.21.82,1.58,1.3.37.48.65.88.85,1.19h.28v-2.83h2.64v18.32c0,1.53-.35,2.78-1.04,3.74-.69.96-1.62,1.67-2.78,2.12s-2.46.68-3.88.68ZM394.04,159.1c1.1,0,2.02-.25,2.78-.75.76-.5,1.33-1.22,1.73-2.17.39-.94.59-2.07.59-3.39s-.19-2.42-.58-3.4c-.39-.98-.96-1.75-1.72-2.31-.76-.56-1.69-.83-2.81-.83s-2.12.29-2.89.88c-.77.59-1.34,1.38-1.73,2.37-.38.99-.57,2.09-.57,3.29s.19,2.33.58,3.28c.39.95.97,1.69,1.74,2.23s1.73.81,2.87.81Z"/>
    <path class="st2" d="M414.31,162.2c-1.72,0-3.19-.38-4.44-1.14-1.24-.76-2.2-1.83-2.86-3.2-.67-1.37-1-2.97-1-4.79s.33-3.43,1-4.83c.67-1.39,1.6-2.48,2.81-3.27,1.2-.78,2.61-1.18,4.21-1.18.93,0,1.84.15,2.75.46.91.31,1.73.81,2.47,1.5.74.69,1.33,1.61,1.77,2.74.44,1.14.66,2.54.66,4.2v1.16h-13.73v-2.37h10.95c0-1-.2-1.9-.6-2.69-.4-.79-.96-1.41-1.69-1.87s-1.59-.68-2.58-.68c-1.09,0-2.03.27-2.82.81-.79.54-1.4,1.24-1.83,2.09-.43.86-.64,1.78-.64,2.76v1.58c0,1.34.23,2.48.7,3.41s1.12,1.64,1.95,2.12c.83.48,1.81.72,2.91.72.72,0,1.37-.1,1.95-.31.58-.2,1.09-.51,1.51-.93.43-.41.75-.93.99-1.55l2.64.74c-.28.9-.75,1.68-1.4,2.36-.66.68-1.47,1.2-2.43,1.58-.97.38-2.05.56-3.26.56Z"/>
    <path class="st2" d="M428.59,151.12v10.71h-2.74v-17.81h2.64v2.78h.23c.42-.9,1.05-1.63,1.9-2.19s1.95-.83,3.29-.83c1.21,0,2.26.25,3.17.74s1.61,1.23,2.11,2.23c.5.99.75,2.25.75,3.76v11.32h-2.74v-11.13c0-1.4-.36-2.49-1.09-3.28-.73-.78-1.72-1.18-2.99-1.18-.87,0-1.65.19-2.34.57-.68.38-1.22.93-1.62,1.66s-.59,1.61-.59,2.64Z"/>
    <path class="st2" d="M446.96,162.02c-.57,0-1.06-.21-1.47-.61s-.61-.9-.61-1.47.2-1.06.61-1.47.9-.61,1.47-.61,1.06.21,1.47.61.62.9.62,1.47c0,.38-.09.73-.28,1.04-.19.32-.44.57-.75.76-.31.19-.66.28-1.05.28Z"/>
    <path class="st2" d="M477.71,144.02l-6.59,17.81h-2.78l-6.58-17.81h2.97l4.92,14.19h.19l4.92-14.19h2.97Z"/>
    <path class="st2" d="M487.91,162.2c-1.61,0-3.02-.38-4.23-1.15-1.21-.77-2.15-1.84-2.83-3.21-.68-1.38-1.01-2.98-1.01-4.82s.34-3.47,1.01-4.86c.68-1.38,1.62-2.46,2.83-3.22,1.21-.76,2.62-1.15,4.23-1.15s3.02.38,4.23,1.15c1.21.77,2.15,1.84,2.83,3.22.68,1.38,1.01,3,1.01,4.86s-.34,3.45-1.01,4.82c-.68,1.38-1.62,2.45-2.83,3.21-1.21.76-2.62,1.15-4.23,1.15ZM487.91,159.75c1.22,0,2.23-.31,3.01-.94s1.37-1.45,1.75-2.47c.38-1.02.57-2.12.57-3.32s-.19-2.3-.57-3.33c-.38-1.03-.96-1.86-1.75-2.49s-1.79-.95-3.01-.95-2.23.32-3.01.95c-.79.63-1.37,1.46-1.75,2.49-.38,1.03-.57,2.14-.57,3.33s.19,2.3.57,3.32c.38,1.02.96,1.84,1.75,2.47.79.63,1.79.94,3.01.94Z"/>
    <path class="st2" d="M502.89,138.09v23.75h-2.74v-23.75h2.74Z"/>
    <path class="st2" d="M510.63,138.09v23.75h-2.74v-23.75h2.74Z"/>
    <path class="st2" d="M523.11,162.2c-1.72,0-3.19-.38-4.44-1.14-1.24-.76-2.2-1.83-2.86-3.2-.67-1.37-1-2.97-1-4.79s.33-3.43,1-4.83c.67-1.39,1.6-2.48,2.81-3.27,1.2-.78,2.61-1.18,4.21-1.18.93,0,1.84.15,2.75.46.91.31,1.73.81,2.47,1.5.74.69,1.33,1.61,1.77,2.74.44,1.14.66,2.54.66,4.2v1.16h-13.73v-2.37h10.95c0-1-.2-1.9-.6-2.69-.4-.79-.96-1.41-1.69-1.87s-1.59-.68-2.58-.68c-1.09,0-2.03.27-2.82.81-.79.54-1.4,1.24-1.83,2.09-.43.86-.64,1.78-.64,2.76v1.58c0,1.34.23,2.48.7,3.41s1.12,1.64,1.95,2.12c.83.48,1.81.72,2.91.72.72,0,1.37-.1,1.95-.31.58-.2,1.09-.51,1.51-.93.43-.41.75-.93.99-1.55l2.64.74c-.28.9-.75,1.68-1.4,2.36-.66.68-1.47,1.2-2.43,1.58-.97.38-2.05.56-3.26.56Z"/>
    <path class="st2" d="M541.38,162.2c-1.48,0-2.79-.38-3.93-1.13-1.14-.75-2.03-1.82-2.67-3.2-.64-1.38-.96-3.01-.96-4.9s.32-3.49.96-4.87,1.53-2.44,2.68-3.19c1.14-.75,2.47-1.12,3.96-1.12,1.16,0,2.08.19,2.75.57.68.38,1.19.82,1.55,1.3.36.48.64.88.84,1.19h.23v-8.76h2.74v23.75h-2.64v-2.74h-.32c-.2.32-.49.73-.86,1.22-.37.49-.9.93-1.59,1.31-.69.38-1.6.57-2.75.57ZM541.75,159.75c1.1,0,2.02-.29,2.78-.86.76-.58,1.33-1.38,1.73-2.4s.59-2.21.59-3.55-.19-2.5-.58-3.5-.96-1.78-1.72-2.34c-.76-.56-1.69-.84-2.81-.84s-2.12.3-2.89.89c-.77.59-1.34,1.39-1.73,2.4-.38,1.01-.57,2.14-.57,3.39s.19,2.42.58,3.45.97,1.85,1.74,2.46,1.73.91,2.87.91Z"/>
    <path class="st2" d="M556.32,141.06c-.53,0-.99-.18-1.37-.54-.38-.36-.57-.8-.57-1.31s.19-.95.57-1.31c.38-.36.84-.54,1.37-.54s.99.18,1.37.54.57.8.57,1.31-.19.95-.57,1.31-.84.54-1.37.54ZM554.93,161.83v-17.81h2.74v17.81h-2.74Z"/>
    <path class="st2" d="M569.86,168.88c-1.32,0-2.46-.17-3.41-.5s-1.74-.78-2.37-1.32-1.13-1.13-1.5-1.75l2.18-1.53c.25.32.56.7.94,1.12.38.42.9.79,1.56,1.1.66.31,1.53.47,2.6.47,1.44,0,2.62-.35,3.56-1.04.93-.7,1.4-1.79,1.4-3.27v-3.62h-.23c-.2.33-.49.72-.85,1.2s-.89.9-1.58,1.26c-.68.37-1.61.55-2.76.55-1.44,0-2.73-.34-3.87-1.02-1.14-.68-2.04-1.67-2.7-2.97s-.99-2.88-.99-4.73.32-3.42.96-4.77,1.53-2.41,2.68-3.15c1.14-.75,2.47-1.12,3.96-1.12,1.16,0,2.08.19,2.77.57.68.38,1.21.82,1.58,1.3.37.48.65.88.85,1.19h.28v-2.83h2.64v18.32c0,1.53-.35,2.78-1.04,3.74-.69.96-1.62,1.67-2.78,2.12s-2.46.68-3.88.68ZM569.77,159.1c1.1,0,2.02-.25,2.78-.75.76-.5,1.33-1.22,1.73-2.17.39-.94.59-2.07.59-3.39s-.19-2.42-.58-3.4c-.39-.98-.96-1.75-1.72-2.31-.76-.56-1.69-.83-2.81-.83s-2.12.29-2.89.88c-.77.59-1.34,1.38-1.73,2.37-.38.99-.57,2.09-.57,3.29s.19,2.33.58,3.28c.39.95.97,1.69,1.74,2.23s1.73.81,2.87.81Z"/>
    <path class="st2" d="M593.14,141.06c-.53,0-.99-.18-1.37-.54-.38-.36-.57-.8-.57-1.31s.19-.95.57-1.31c.38-.36.84-.54,1.37-.54s.99.18,1.37.54.57.8.57,1.31-.19.95-.57,1.31-.84.54-1.37.54ZM591.75,161.83v-17.81h2.74v17.81h-2.74Z"/>
    <path class="st2" d="M602.23,151.12v10.71h-2.74v-17.81h2.64v2.78h.23c.42-.9,1.05-1.63,1.9-2.19s1.95-.83,3.29-.83c1.21,0,2.26.25,3.17.74s1.61,1.23,2.11,2.23c.5.99.75,2.25.75,3.76v11.32h-2.74v-11.13c0-1.4-.36-2.49-1.09-3.28-.73-.78-1.72-1.18-2.99-1.18-.87,0-1.65.19-2.34.57-.68.38-1.22.93-1.62,1.66s-.59,1.61-.59,2.64Z"/>
    <path class="st2" d="M628.16,161.83v-23.75h2.74v8.76h.23c.2-.31.48-.71.84-1.19.36-.48.88-.92,1.55-1.3.68-.38,1.59-.57,2.75-.57,1.5,0,2.82.38,3.97,1.12,1.14.75,2.04,1.81,2.68,3.19s.96,3,.96,4.87-.32,3.52-.96,4.9c-.64,1.38-1.53,2.45-2.67,3.2-1.14.75-2.45,1.13-3.93,1.13-1.14,0-2.06-.19-2.75-.57-.69-.38-1.22-.82-1.59-1.31-.37-.49-.66-.9-.86-1.22h-.33v2.74h-2.64ZM630.85,152.93c0,1.34.2,2.53.59,3.55.39,1.02.97,1.82,1.73,2.4.76.58,1.69.86,2.78.86s2.1-.3,2.87-.91c.77-.61,1.35-1.43,1.74-2.46.39-1.03.59-2.18.59-3.45s-.19-2.38-.57-3.39-.96-1.81-1.73-2.4c-.77-.59-1.73-.89-2.89-.89s-2.05.28-2.81.84c-.76.56-1.33,1.34-1.72,2.34-.39,1-.58,2.17-.58,3.5Z"/>
    <path class="st2" d="M655.52,162.2c-1.72,0-3.19-.38-4.44-1.14-1.24-.76-2.2-1.83-2.86-3.2-.67-1.37-1-2.97-1-4.79s.33-3.43,1-4.83c.67-1.39,1.6-2.48,2.81-3.27,1.2-.78,2.61-1.18,4.21-1.18.93,0,1.84.15,2.75.46.91.31,1.73.81,2.47,1.5.74.69,1.33,1.61,1.77,2.74.44,1.14.66,2.54.66,4.2v1.16h-13.73v-2.37h10.95c0-1-.2-1.9-.6-2.69-.4-.79-.96-1.41-1.69-1.87s-1.59-.68-2.58-.68c-1.09,0-2.03.27-2.82.81-.79.54-1.4,1.24-1.83,2.09-.43.86-.64,1.78-.64,2.76v1.58c0,1.34.23,2.48.7,3.41s1.12,1.64,1.95,2.12c.83.48,1.81.72,2.91.72.72,0,1.37-.1,1.95-.31.58-.2,1.09-.51,1.51-.93.43-.41.75-.93.99-1.55l2.64.74c-.28.9-.75,1.68-1.4,2.36-.66.68-1.47,1.2-2.43,1.58-.97.38-2.05.56-3.26.56Z"/>
    <path class="st2" d="M674.53,162.2c-1.72,0-3.19-.38-4.44-1.14-1.24-.76-2.2-1.83-2.86-3.2-.67-1.37-1-2.97-1-4.79s.33-3.43,1-4.83c.67-1.39,1.6-2.48,2.81-3.27,1.2-.78,2.61-1.18,4.21-1.18.93,0,1.84.15,2.75.46.91.31,1.73.81,2.47,1.5.74.69,1.33,1.61,1.77,2.74.44,1.14.66,2.54.66,4.2v1.16h-13.73v-2.37h10.95c0-1-.2-1.9-.6-2.69-.4-.79-.96-1.41-1.69-1.87s-1.59-.68-2.58-.68c-1.09,0-2.03.27-2.82.81-.79.54-1.4,1.24-1.83,2.09-.43.86-.64,1.78-.64,2.76v1.58c0,1.34.23,2.48.7,3.41s1.12,1.64,1.95,2.12c.83.48,1.81.72,2.91.72.72,0,1.37-.1,1.95-.31.58-.2,1.09-.51,1.51-.93.43-.41.75-.93.99-1.55l2.64.74c-.28.9-.75,1.68-1.4,2.36-.66.68-1.47,1.2-2.43,1.58-.97.38-2.05.56-3.26.56Z"/>
    <path class="st2" d="M688.82,138.09v23.75h-2.74v-23.75h2.74Z"/>
    <path class="st2" d="M700.55,162.2c-1.48,0-2.79-.38-3.93-1.13-1.14-.75-2.03-1.82-2.67-3.2-.64-1.38-.96-3.01-.96-4.9s.32-3.49.96-4.87,1.53-2.44,2.68-3.19c1.14-.75,2.47-1.12,3.96-1.12,1.16,0,2.08.19,2.75.57.68.38,1.19.82,1.55,1.3.36.48.64.88.84,1.19h.23v-8.76h2.74v23.75h-2.64v-2.74h-.32c-.2.32-.49.73-.86,1.22-.37.49-.9.93-1.59,1.31-.69.38-1.6.57-2.75.57ZM700.92,159.75c1.1,0,2.02-.29,2.78-.86.76-.58,1.33-1.38,1.73-2.4s.59-2.21.59-3.55-.19-2.5-.58-3.5-.96-1.78-1.72-2.34c-.76-.56-1.69-.84-2.81-.84s-2.12.3-2.89.89c-.77.59-1.34,1.39-1.73,2.4-.38,1.01-.57,2.14-.57,3.39s.19,2.42.58,3.45.97,1.85,1.74,2.46,1.73.91,2.87.91Z"/>
    <path class="st2" d="M716.09,162.02c-.57,0-1.06-.21-1.47-.61s-.61-.9-.61-1.47.2-1.06.61-1.47.9-.61,1.47-.61,1.06.21,1.47.61.62.9.62,1.47c0,.38-.09.73-.28,1.04-.19.32-.44.57-.75.76-.31.19-.66.28-1.05.28Z"/>
  </g>
</svg>