<?xml version="1.0" encoding="UTF-8"?>
<svg id="Laag_1" xmlns="http://www.w3.org/2000/svg" version="1.1" viewBox="0 0 121.29 121.29">
  <!-- Generator: Adobe Illustrator 29.8.3, SVG Export Plug-In . SVG Version: 2.1.1 Build 3)  -->
  <defs>
    <style>
      .st0 {
        fill: #fa9400;
      }

      .st1 {
        fill: #ffb300;
      }

      .st2 {
        fill: #fff;
      }
    </style>
  </defs>
  <circle class="st0" cx="60.65" cy="60.65" r="60.65"/>
  <circle class="st1" cx="60.65" cy="60.65" r="54.48"/>
  <path class="st2" d="M77.1,47.88c-.5-1.71-1.19-3.24-2.07-4.56-.89-1.33-1.97-2.45-3.25-3.38s-2.73-1.64-4.36-2.13c-1.63-.5-3.44-.74-5.41-.74-3.69,0-6.92.92-9.7,2.75s-4.95,4.49-6.5,7.98c-1.55,3.49-2.33,7.74-2.33,12.77s.77,9.3,2.29,12.82c1.52,3.53,3.69,6.2,6.48,8.05,2.8,1.84,6.09,2.77,9.9,2.77,3.45,0,6.4-.61,8.85-1.85,2.45-1.24,4.33-2.98,5.64-5.23s1.96-4.92,1.96-8l3.1.46h-18.59v-11.48h30.19v9.09c0,6.34-1.33,11.78-4.01,16.33-2.68,4.54-6.37,8.04-11.06,10.49-4.7,2.45-10.07,3.68-16.13,3.68-6.76,0-12.7-1.5-17.82-4.49-5.12-2.99-9.11-7.26-11.96-12.78-2.85-5.53-4.28-12.1-4.28-19.71,0-5.84.85-11.06,2.55-15.65s4.09-8.48,7.17-11.68c3.07-3.19,6.65-5.63,10.74-7.29,4.08-1.67,8.51-2.5,13.28-2.5,4.08,0,7.89.6,11.41,1.78,3.53,1.19,6.65,2.86,9.39,5.02,2.73,2.16,4.97,4.72,6.71,7.7,1.74,2.97,2.85,6.24,3.34,9.81h-15.5v-.03h0Z"/>
</svg>