<svg width="100" height="100" viewBox="0 0 100 100" fill="none" xmlns="http://www.w3.org/2000/svg">
  <circle cx="50" cy="50" r="46" fill="#059669" />
  <path d="M64 54H52V57H62C61.2 64.2 56.4 68.6 50.8 68.6C42.8 68.6 36.4 62.2 36.4 54.2C36.4 46.2 42.8 39.8 50.8 39.8C56.4 39.8 61.2 43 63.6 47.8L70 44.6C66.8 38.2 59.6 33.4 50.8 33.4C39.6 33.4 30 43 30 54.2C30 65.4 39.6 75 50.8 75C58.8 75 66 70.2 70 63.8C70.8 62.2 71.6 60.6 71.6 59V51H64V54Z" fill="white" />
  <circle cx="71.6" cy="39.8" r="8" fill="#F59E0B" stroke="white" stroke-width="2" />
</svg>
