<?xml version="1.0" encoding="UTF-8"?>
<svg id="Laag_1" xmlns="http://www.w3.org/2000/svg" version="1.1" viewBox="0 0 93.12 130.01">
  <!-- Generator: Adobe Illustrator 29.8.3, SVG Export Plug-In . SVG Version: 2.1.1 Build 3)  -->
  <defs>
    <style>
      .st0 {
        fill: #ffb727;
      }

      .st1 {
        fill: #e4ebfc;
      }

      .st2 {
        fill: #fdd355;
      }

      .st3 {
        fill: #fff;
      }

      .st4 {
        fill: #011c40;
      }

      .st5, .st6, .st7, .st8, .st9 {
        fill: none;
      }

      .st5, .st6, .st7, .st9 {
        stroke: #011c40;
      }

      .st5, .st6, .st8, .st9 {
        stroke-linecap: round;
        stroke-linejoin: round;
      }

      .st6, .st7 {
        stroke-width: 2px;
      }

      .st7 {
        stroke-miterlimit: 10;
      }

      .st8 {
        stroke: #ffb727;
        stroke-width: 1.25px;
      }

      .st9 {
        stroke-width: .75px;
      }

      .st10 {
        fill: #216dfc;
      }

      .st11 {
        fill: #fdfdfd;
      }
    </style>
  </defs>
  <line class="st8" x1="42.71" y1="1.06" x2="46.6" y2="5.16"/>
  <line class="st8" x1="37.17" y1="8.6" x2="41.93" y2="11.54"/>
  <line class="st8" x1="33.69" y1="18.74" x2="39.31" y2="18.67"/>
  <line class="st8" x1="37.28" y1="29.97" x2="42.04" y2="26.87"/>
  <line class="st8" x1="42.98" y1="37.55" x2="46.89" y2="33.31"/>
  <line class="st8" x1="86.69" y1="18.4" x2="92.5" y2="18.57"/>
  <line class="st8" x1="83.78" y1="11.17" x2="88.91" y2="7.98"/>
  <line class="st8" x1="79.34" y1="4.9" x2="83.21" y2=".62"/>
  <line class="st8" x1="83.78" y1="26.72" x2="88.85" y2="29.8"/>
  <line class="st8" x1="79.11" y1="32.99" x2="83.21" y2="37.21"/>
  <g>
    <circle class="st2" cx="63.24" cy="18.93" r="17.4"/>
    <circle class="st0" cx="63.24" cy="18.93" r="14.93"/>
    <path class="st11" d="M67.29,22.75l1.23,1.26c-.4.64-2.14,2.52-5.42,2.52s-5.69-1.89-6.48-5.22h-2.4l.34-1.44h1.87c-.02-.29-.05-.59-.05-.9,0-.34.02-.67.05-.98h-2.2l.34-1.44h2.09c.81-3.26,3.3-5.13,6.48-5.13s4.99,2,5.39,2.63l-1.23,1.26c-.78-1.08-2.2-2.09-4.11-2.09-1.76,0-3.62.98-4.36,3.32h6.19l-.34,1.44h-6.16c-.02.31-.05.65-.05.98,0,.31.02.61.05.9h5.83l-.34,1.44h-5.22c.75,2.4,2.63,3.41,4.38,3.41,1.93,0,3.35-.9,4.13-1.98v.02Z"/>
  </g>
  <ellipse class="st1" cx="41.22" cy="127.26" rx="36.88" ry="2.75"/>
  <ellipse class="st10" cx="37.52" cy="54.35" rx="17.61" ry="17.92"/>
  <circle class="st4" cx="4.75" cy="38.37" r="4.75"/>
  <circle class="st4" cx="65.71" cy="37.66" r="4.75"/>
  <path class="st7" d="M5.44,40.34s11.9,27.16,25.34,47.9"/>
  <line class="st7" x1="65.13" y1="38.82" x2="49.31" y2="84.76"/>
  <polyline class="st6" points="33.45 99.7 29.05 124.37 21.52 126.34"/>
  <polyline class="st6" points="50.24 97.73 51.75 124.37 59.39 126.57"/>
  <path class="st10" d="M24.07,103.87l33.59-3.71-.58-10.89s-1.27-16.1-18.18-15.4c0,0-14.94.58-15.52,18.07l.69,11.93Z"/>
  <ellipse class="st4" cx="32.34" cy="53.3" rx="1.76" ry="3.07" transform="translate(-2.68 1.72) rotate(-2.92)"/>
  <path class="st5" d="M32.44,45.17s-3.83-.66-4.75,3.32"/>
  <path class="st5" d="M48.03,51.76s-3.37-3.48-5.73,1.07"/>
  <path class="st9" d="M47.01,49.1s-2.86-.82-4.04,2.61"/>
  <path class="st4" d="M29.88,59.38s10.94.66,17.79-3.37c0,0,.97-.61.97.31,0,0,.46,9.61-6.85,11.96,0,0-5.52,2.2-10.38-4.4,0,0-1.38-1.74-1.94-3.48,0,0-.26-1.07.41-1.02Z"/>
  <path class="st3" d="M35.71,66.48s3.42-3.89,8.74-1.02c0,0-3.17,4.19-8.74,1.02Z"/>
  <path class="st3" d="M46.6,57.49s-5.16,3.17-15.18,2.81c0,0,.97,1.94,3.22,2.1,0,0,4.91.15,8.74-1.23,0,0,2.35-.51,2.91-2.2,0,0,.56-1.69.31-1.48Z"/>
</svg>