<svg width="400" height="120" viewBox="0 0 400 120" fill="none" xmlns="http://www.w3.org/2000/svg">
  <defs>
    <linearGradient id="logoGradientSmall" x1="0%" y1="0%" x2="100%" y2="100%">
      <stop offset="0%" stop-color="#059669" />
      <stop offset="100%" stop-color="#0d9488" />
    </linearGradient>
  </defs>

  <!-- Token Icon -->
  <circle cx="50" cy="60" r="40" fill="#059669" />
  <path d="M62 65H52V68H60C59.33 74.67 55.33 78.67 50.67 78.67C44 78.67 38.67 73.33 38.67 66.67C38.67 60 44 54.67 50.67 54.67C55.33 54.67 59.33 57.33 61.33 61.33L66.67 58.67C64 53.33 58 49.33 50.67 49.33C41.33 49.33 33.33 57.33 33.33 66.67C33.33 76 41.33 84 50.67 84C57.33 84 63.33 80 66.67 74.67C67.33 73.33 68 72 68 70.67V64H62V65Z" fill="white" />
  <circle cx="68" cy="48" r="6" fill="#F59E0B" />

  <!-- GeldDash Text -->
  <text x="105" y="80" font-family="Inter, system-ui, sans-serif" font-weight="900" font-size="56" fill="white" letter-spacing="-2">Geld</text>
  <text x="235" y="80" font-family="Inter, system-ui, sans-serif" font-weight="900" font-size="56" fill="#F59E0B" letter-spacing="-2">Dash</text>
</svg>
