<?xml version="1.0" encoding="UTF-8"?>
<svg id="Laag_1" xmlns="http://www.w3.org/2000/svg" version="1.1" viewBox="0 0 1242 2688">
  <!-- Generator: Adobe Illustrator 29.8.3, SVG Export Plug-In . SVG Version: 2.1.1 Build 3)  -->
  <defs>
    <style>
      .st0, .st1 {
        stroke-linecap: round;
        stroke-linejoin: round;
      }

      .st0, .st1, .st2 {
        fill: none;
        stroke: #011c40;
      }

      .st0, .st2 {
        stroke-width: 8.82px;
      }

      .st1 {
        stroke-width: 6.61px;
      }

      .st3 {
        fill: #ffb727;
      }

      .st4 {
        fill: #e4ebfc;
      }

      .st5 {
        fill: #fdd355;
      }

      .st6 {
        fill: #f17213;
      }

      .st7 {
        fill: #fff;
      }

      .st8 {
        fill: #011c40;
      }

      .st2 {
        stroke-miterlimit: 10;
      }

      .st9 {
        fill: #216dfc;
      }

      .st10 {
        fill: #fdfdfd;
      }
    </style>
  </defs>
  <rect class="st9" x="-2.7" y="1500" width="1245.32" height="1184.37"/>
  <g>
    <circle class="st5" cx="222.57" cy="1699.37" r="29.5"/>
    <circle class="st3" cx="222.57" cy="1699.37" r="25.31"/>
    <path class="st10" d="M229.44,1705.85l2.08,2.14c-.68,1.08-3.63,4.28-9.19,4.28s-9.65-3.21-10.99-8.85h-4.07l.57-2.44h3.17c-.03-.49-.09-1-.09-1.52,0-.57.03-1.13.09-1.66h-3.73l.57-2.44h3.54c1.37-5.53,5.59-8.7,10.99-8.7s8.46,3.39,9.14,4.46l-2.08,2.14c-1.32-1.83-3.73-3.54-6.97-3.54-2.98,0-6.13,1.66-7.4,5.63h10.5l-.57,2.44h-10.44c-.03.53-.09,1.1-.09,1.66,0,.53.03,1.04.09,1.52h9.88l-.57,2.44h-8.85c1.27,4.07,4.46,5.78,7.43,5.78,3.27,0,5.68-1.52,7-3.36v.03h-.02v-.02Z"/>
  </g>
  <g>
    <circle class="st5" cx="222.57" cy="1800.61" r="29.5"/>
    <circle class="st3" cx="222.57" cy="1800.61" r="25.31"/>
    <path class="st10" d="M229.44,1807.09l2.08,2.14c-.68,1.08-3.63,4.28-9.19,4.28s-9.65-3.21-10.99-8.85h-4.07l.57-2.44h3.17c-.03-.49-.09-1-.09-1.52,0-.57.03-1.13.09-1.66h-3.73l.57-2.44h3.54c1.37-5.53,5.59-8.7,10.99-8.7s8.46,3.39,9.14,4.46l-2.08,2.14c-1.32-1.83-3.73-3.54-6.97-3.54-2.98,0-6.13,1.66-7.4,5.63h10.5l-.57,2.44h-10.44c-.03.53-.09,1.1-.09,1.66,0,.53.03,1.04.09,1.52h9.88l-.57,2.44h-8.85c1.27,4.07,4.46,5.78,7.43,5.78,3.27,0,5.68-1.52,7-3.36v.03h-.02v-.02Z"/>
  </g>
  <g>
    <circle class="st5" cx="222.57" cy="1901.87" r="29.5"/>
    <circle class="st3" cx="222.57" cy="1901.87" r="25.31"/>
    <path class="st10" d="M229.44,1908.34l2.08,2.14c-.68,1.09-3.63,4.28-9.19,4.28s-9.65-3.21-10.99-8.85h-4.07l.57-2.44h3.17c-.03-.49-.09-1-.09-1.52,0-.57.03-1.13.09-1.66h-3.73l.57-2.44h3.54c1.37-5.53,5.59-8.7,10.99-8.7s8.46,3.39,9.14,4.46l-2.08,2.14c-1.32-1.83-3.73-3.54-6.97-3.54-2.98,0-6.13,1.66-7.4,5.63h10.5l-.57,2.44h-10.44c-.03.53-.09,1.1-.09,1.66,0,.53.03,1.04.09,1.52h9.88l-.57,2.44h-8.85c1.27,4.07,4.46,5.78,7.43,5.78,3.27,0,5.68-1.52,7-3.36v.03h-.02v-.02Z"/>
  </g>
  <g>
    <circle class="st5" cx="222.57" cy="2003.11" r="29.5"/>
    <circle class="st3" cx="222.57" cy="2003.11" r="25.31"/>
    <path class="st10" d="M229.44,2009.59l2.08,2.14c-.68,1.09-3.63,4.28-9.19,4.28s-9.65-3.21-10.99-8.85h-4.07l.57-2.44h3.17c-.03-.49-.09-1-.09-1.52,0-.57.03-1.13.09-1.66h-3.73l.57-2.44h3.54c1.37-5.53,5.59-8.7,10.99-8.7s8.46,3.39,9.14,4.46l-2.08,2.14c-1.32-1.83-3.73-3.54-6.97-3.54-2.98,0-6.13,1.66-7.4,5.63h10.5l-.57,2.44h-10.44c-.03.53-.09,1.1-.09,1.66,0,.53.03,1.04.09,1.52h9.88l-.57,2.44h-8.85c1.27,4.07,4.46,5.78,7.43,5.78,3.27,0,5.68-1.52,7-3.36v.03h-.02v-.02Z"/>
  </g>
  <g>
    <circle class="st5" cx="222.57" cy="2104.36" r="29.5"/>
    <circle class="st3" cx="222.57" cy="2104.36" r="25.31"/>
    <path class="st10" d="M229.44,2110.84l2.08,2.14c-.68,1.09-3.63,4.28-9.19,4.28s-9.65-3.21-10.99-8.85h-4.07l.57-2.44h3.17c-.03-.49-.09-1-.09-1.52,0-.57.03-1.13.09-1.66h-3.73l.57-2.44h3.54c1.37-5.53,5.59-8.7,10.99-8.7s8.46,3.39,9.14,4.46l-2.08,2.14c-1.32-1.83-3.73-3.54-6.97-3.54-2.98,0-6.13,1.66-7.4,5.63h10.5l-.57,2.44h-10.44c-.03.53-.09,1.1-.09,1.66,0,.53.03,1.04.09,1.52h9.88l-.57,2.44h-8.85c1.27,4.07,4.46,5.78,7.43,5.78,3.27,0,5.68-1.52,7-3.36v.03h-.02v-.02Z"/>
  </g>
  <g>
    <circle class="st5" cx="222.57" cy="2205.61" r="29.5"/>
    <circle class="st3" cx="222.57" cy="2205.61" r="25.31"/>
    <path class="st10" d="M229.44,2212.08l2.08,2.14c-.68,1.09-3.63,4.28-9.19,4.28s-9.65-3.21-10.99-8.85h-4.07l.57-2.44h3.17c-.03-.49-.09-1-.09-1.52,0-.57.03-1.13.09-1.66h-3.73l.57-2.44h3.54c1.37-5.53,5.59-8.7,10.99-8.7s8.46,3.39,9.14,4.46l-2.08,2.14c-1.32-1.83-3.73-3.54-6.97-3.54-2.98,0-6.13,1.66-7.4,5.63h10.5l-.57,2.44h-10.44c-.03.53-.09,1.1-.09,1.66,0,.53.03,1.04.09,1.52h9.88l-.57,2.44h-8.85c1.27,4.07,4.46,5.78,7.43,5.78,3.27,0,5.68-1.52,7-3.36v.03h-.02v-.02Z"/>
  </g>
  <g>
    <path class="st9" d="M395.99,1154.04c-.64-2.21-1.53-4.17-2.68-5.88-1.15-1.71-2.55-3.17-4.21-4.36-1.65-1.19-3.53-2.11-5.63-2.75-2.11-.64-4.43-.95-6.98-.95-4.76,0-8.93,1.18-12.52,3.54s-6.38,5.8-8.39,10.29-3,9.99-3,16.47.98,12,2.96,16.54c1.97,4.54,4.76,8.01,8.36,10.39,3.6,2.38,7.87,3.57,12.77,3.57,4.46,0,8.26-.8,11.43-2.39s5.59-3.84,7.27-6.75,2.52-6.34,2.52-10.32l3.99.59h-23.99v-14.82h38.94v11.73c0,8.18-1.72,15.2-5.18,21.06s-8.21,10.38-14.27,13.55c-6.06,3.17-13,4.75-20.81,4.75-8.72,0-16.39-1.94-22.99-5.8-6.6-3.86-11.74-9.36-15.43-16.49-3.68-7.13-5.52-15.61-5.52-25.42,0-7.55,1.1-14.28,3.29-20.2,2.19-5.92,5.27-10.95,9.25-15.07s8.59-7.26,13.86-9.41c5.27-2.15,10.98-3.22,17.13-3.22,5.27,0,10.18.76,14.72,2.29s8.58,3.69,12.11,6.48c3.53,2.79,6.41,6.09,8.65,9.92,2.24,3.83,3.68,8.05,4.31,12.66h-19.99,0Z"/>
    <path class="st9" d="M458.58,1218.38c-7.18,0-13.35-1.46-18.52-4.39-5.17-2.93-9.14-7.08-11.93-12.45-2.79-5.38-4.18-11.74-4.18-19.11s1.4-13.48,4.18-18.91c2.79-5.42,6.72-9.65,11.79-12.68s11.03-4.54,17.88-4.54c4.6,0,8.9.73,12.88,2.2,3.98,1.47,7.47,3.68,10.46,6.61,2.98,2.94,5.31,6.62,6.98,11.06,1.66,4.44,2.5,9.63,2.5,15.57v5.31h-58.94v-12h40.71c0-2.79-.61-5.26-1.82-7.4-1.21-2.15-2.89-3.84-5.02-5.06s-4.61-1.84-7.43-1.84-5.54.67-7.79,2.02c-2.25,1.35-4.02,3.15-5.29,5.41s-1.93,4.77-1.95,7.52v11.41c0,3.46.64,6.44,1.94,8.95,1.29,2.51,3.11,4.46,5.48,5.81s5.17,2.04,8.4,2.04c2.15,0,4.12-.3,5.91-.91s3.32-1.51,4.59-2.72,2.24-2.7,2.91-4.46l17.91,1.18c-.91,4.3-2.76,8.05-5.56,11.24-2.8,3.2-6.41,5.68-10.81,7.45s-9.49,2.66-15.25,2.66v.02Z"/>
    <path class="st9" d="M518.13,1123.96v93.06h-19.36v-93.06h19.36Z"/>
    <path class="st9" d="M554.82,1218.16c-5.3,0-10.1-1.37-14.38-4.11s-7.68-6.79-10.18-12.13-3.75-11.91-3.75-19.7,1.29-14.65,3.86-19.97c2.57-5.31,6.01-9.3,10.29-11.95,4.28-2.65,8.99-3.98,14.11-3.98,3.91,0,7.17.66,9.79,1.97,2.62,1.32,4.74,2.96,6.36,4.91,1.62,1.95,2.86,3.87,3.71,5.75h.59v-34.99h19.31v93.06h-19.09v-11.18h-.82c-.91,1.94-2.19,3.85-3.84,5.75-1.65,1.9-3.78,3.46-6.41,4.71-2.62,1.24-5.81,1.86-9.57,1.86h0ZM560.95,1202.75c3.12,0,5.77-.86,7.93-2.57,2.17-1.71,3.83-4.11,5-7.2,1.16-3.09,1.75-6.71,1.75-10.86s-.58-7.76-1.72-10.81c-1.15-3.06-2.82-5.42-5-7.08s-4.83-2.5-7.95-2.5-5.86.87-8.04,2.59-3.83,4.12-4.95,7.18c-1.12,3.06-1.69,6.6-1.69,10.64s.57,7.64,1.7,10.74c1.14,3.11,2.79,5.53,4.95,7.27,2.17,1.74,4.84,2.61,8.02,2.61h0Z"/>
    <path class="st9" d="M639.27,1217.02h-32.99v-93.06h33.26c9.36,0,17.42,1.86,24.17,5.56,6.76,3.71,11.96,9.04,15.61,15.97,3.65,6.94,5.48,15.24,5.48,24.91s-1.83,18.02-5.48,24.99-8.88,12.31-15.68,16.04c-6.8,3.73-14.93,5.59-24.38,5.59h0ZM625.95,1200.17h12.5c5.81,0,10.71-1.04,14.7-3.11,3.99-2.08,6.98-5.3,9-9.68,2.01-4.38,3.02-10.03,3.02-16.97s-1.01-12.5-3.02-16.86-5.01-7.58-8.97-9.64c-3.97-2.06-8.86-3.09-14.68-3.09h-12.54v59.35h0Z"/>
    <path class="st9" d="M714.4,1218.34c-4.46,0-8.42-.78-11.91-2.34s-6.23-3.88-8.25-6.95c-2.01-3.07-3.02-6.91-3.02-11.52,0-3.88.71-7.13,2.14-9.77s3.36-4.75,5.82-6.36c2.45-1.61,5.25-2.82,8.39-3.64s6.43-1.4,9.89-1.72c4.06-.42,7.33-.83,9.82-1.2s4.28-.94,5.41-1.7c1.12-.76,1.68-1.88,1.68-3.36v-.27c0-2.88-.91-5.1-2.7-6.68-1.8-1.58-4.35-2.36-7.65-2.36-3.48,0-6.26.76-8.32,2.29-2.06,1.53-3.43,3.45-4.09,5.75l-17.91-1.45c.91-4.24,2.7-7.91,5.36-11.02,2.67-3.11,6.11-5.5,10.34-7.18,4.23-1.69,9.13-2.52,14.7-2.52,3.88,0,7.6.45,11.16,1.37s6.73,2.32,9.5,4.23,4.96,4.35,6.57,7.34c1.61,2.99,2.41,6.55,2.41,10.71v47.07h-18.36v-9.68h-.55c-1.12,2.18-2.62,4.1-4.5,5.75-1.88,1.65-4.14,2.94-6.77,3.86-2.64.92-5.68,1.39-9.14,1.39v-.03ZM719.95,1204.98c2.85,0,5.36-.57,7.55-1.7,2.18-1.14,3.89-2.68,5.13-4.61s1.86-4.14,1.86-6.59v-7.4c-.61.39-1.43.75-2.47,1.07-1.05.32-2.22.61-3.52.87s-2.61.48-3.91.68-2.48.37-3.54.52c-2.27.34-4.26.87-5.95,1.59s-3.01,1.7-3.96,2.93c-.94,1.22-1.41,2.75-1.41,4.56,0,2.64.96,4.64,2.89,6.02s4.37,2.07,7.34,2.07v-.02Z"/>
    <path class="st9" d="M822.34,1167.13l-17.72,1.09c-.3-1.51-.95-2.89-1.95-4.11-1-1.22-2.31-2.21-3.93-2.96-1.62-.74-3.55-1.12-5.79-1.12-3,0-5.53.63-7.59,1.89-2.06,1.26-3.09,2.93-3.09,5.02,0,1.67.66,3.07,2,4.23,1.33,1.15,3.62,2.08,6.86,2.77l12.63,2.54c6.79,1.4,11.84,3.64,15.18,6.73s5,7.15,5,12.18c0,4.57-1.34,8.59-4.02,12.04-2.68,3.46-6.34,6.14-10.99,8.07-4.65,1.92-10,2.89-16.07,2.89-9.24,0-16.6-1.93-22.06-5.8-5.47-3.86-8.67-9.13-9.61-15.79l19.04-1c.58,2.82,1.97,4.96,4.18,6.43,2.21,1.47,5.04,2.21,8.5,2.21s6.13-.66,8.2-1.97c2.08-1.32,3.13-3.02,3.16-5.11-.03-1.76-.77-3.21-2.22-4.34s-3.7-2.01-6.73-2.61l-12.09-2.41c-6.82-1.37-11.88-3.73-15.2-7.08-3.32-3.36-4.98-7.65-4.98-12.86,0-4.49,1.22-8.35,3.66-11.59,2.43-3.24,5.88-5.74,10.32-7.5,4.44-1.76,9.64-2.64,15.61-2.64,8.82,0,15.76,1.86,20.83,5.59,5.07,3.73,8.04,8.8,8.88,15.22h0Z"/>
    <path class="st9" d="M851.04,1176.67v40.36h-19.36v-93.06h18.81v35.58h.82c1.58-4.12,4.12-7.35,7.63-9.7s7.92-3.52,13.23-3.52c4.85,0,9.08,1.05,12.7,3.16,3.62,2.11,6.44,5.12,8.45,9.04,2.01,3.92,3,8.61,2.97,14.07v44.44h-19.36v-40.99c.03-4.3-1.05-7.65-3.25-10.04-2.2-2.4-5.27-3.59-9.2-3.59-2.64,0-4.96.56-6.98,1.69s-3.59,2.75-4.73,4.88-1.72,4.71-1.75,7.7v-.02Z"/>
  </g>
  <g>
    <path class="st6" d="M219.77,324.03v-43.44h9.18v17.92h18.64v-17.92h9.16v43.44h-9.16v-17.95h-18.64v17.95h-9.18,0Z"/>
    <path class="st6" d="M305.45,302.31c0,4.74-.9,8.77-2.68,12.09-1.79,3.33-4.22,5.86-7.29,7.61-3.08,1.75-6.53,2.62-10.36,2.62s-7.33-.88-10.4-2.63-5.49-4.29-7.28-7.62-2.67-7.34-2.67-12.07.89-8.77,2.67-12.09,4.21-5.86,7.28-7.6,6.53-2.62,10.4-2.62,7.28.87,10.36,2.62c3.08,1.74,5.51,4.28,7.29,7.6,1.79,3.33,2.68,7.35,2.68,12.09h0ZM296.14,302.31c0-3.07-.46-5.66-1.37-7.77-.91-2.11-2.2-3.7-3.85-4.8s-3.59-1.63-5.81-1.63-4.16.55-5.81,1.63-2.94,2.69-3.85,4.8-1.37,4.7-1.37,7.77.46,5.66,1.37,7.77c.91,2.11,2.2,3.71,3.85,4.8s3.59,1.63,5.81,1.63,4.16-.55,5.81-1.63,2.94-2.69,3.85-4.8,1.37-4.7,1.37-7.77Z"/>
    <path class="st6" d="M313.43,324.03v-43.44h29.27v7.58h-20.09v10.35h18.58v7.58h-18.58v10.37h20.17v7.58h-29.36,0Z"/>
    <path class="st6" d="M380.48,280.58h10.18l-14.98,43.44h-11.84l-14.99-43.44h10.21l10.5,33.01"/>
    <path class="st6" d="M397.07,324.03v-43.44h29.27v7.58h-20.09v10.35h18.58v7.58h-18.58v10.37h20.17v7.58h-29.36,0Z"/>
    <path class="st6" d="M434.86,324.03v-43.44h29.27v7.58h-20.09v10.35h18.58v7.58h-18.58v10.37h20.17v7.58h-29.36,0Z"/>
    <path class="st6" d="M472.64,324.03v-43.44h9.18v35.87h18.63v7.58h-27.81Z"/>
    <path class="st6" d="M522.77,324.03v-43.44h17.39c3.19,0,5.86.47,8,1.42,2.13.95,3.74,2.26,4.81,3.93s1.61,3.6,1.61,5.78c0,1.69-.34,3.19-1.02,4.46-.68,1.28-1.61,2.32-2.79,3.14s-2.53,1.39-4.04,1.73v.42c1.65.07,3.2.54,4.65,1.4,1.45.86,2.63,2.07,3.53,3.62s1.36,3.39,1.36,5.53c0,2.31-.57,4.36-1.71,6.16-1.14,1.8-2.82,3.23-5.04,4.27-2.22,1.05-4.95,1.57-8.21,1.57h-18.56ZM531.96,298.76h6.81c1.26,0,2.38-.22,3.36-.66.98-.45,1.76-1.08,2.33-1.9s.86-1.8.86-2.95c0-1.57-.56-2.84-1.67-3.8s-2.68-1.44-4.72-1.44h-6.98v10.75ZM531.96,316.52h7.48c2.56,0,4.42-.49,5.6-1.48,1.17-.98,1.76-2.3,1.76-3.93,0-1.2-.29-2.27-.87-3.18-.58-.92-1.4-1.64-2.47-2.17s-2.34-.79-3.81-.79h-7.7v11.54h0Z"/>
    <path class="st6" d="M563.45,324.03v-43.44h29.27v7.58h-20.09v10.35h18.58v7.58h-18.58v10.37h20.17v7.58h-29.36,0Z"/>
    <path class="st6" d="M637.56,280.58v43.44h-7.93l-18.9-27.34h-.32v27.34h-9.18v-43.44h8.06l18.75,27.32h.38v-27.32h9.14Z"/>
    <path class="st6" d="M678.77,280.58h9.08v30.29c0,2.8-.62,5.24-1.88,7.29-1.25,2.07-2.99,3.66-5.21,4.77s-4.8,1.68-7.74,1.68c-2.61,0-4.99-.46-7.12-1.39-2.13-.93-3.82-2.34-5.06-4.24s-1.86-4.3-1.84-7.18h9.14c.02,1.14.27,2.12.71,2.94s1.06,1.44,1.84,1.87c.79.43,1.72.65,2.79.65,1.13,0,2.09-.24,2.87-.73.79-.49,1.39-1.2,1.79-2.15s.61-2.12.61-3.5v-30.29h0Z"/>
    <path class="st6" d="M696.61,324.03v-43.44h29.27v7.58h-20.09v10.35h18.58v7.58h-18.58v10.37h20.17v7.58h-29.36,0Z"/>
    <path class="st6" d="M759.21,324.03l-12.43-43.44h10.03l7.19,30.18h.36l7.93-30.18h8.59l7.92,30.24h.38l7.19-30.24h10.03l-12.43,43.44h-8.95l-8.27-28.4h-.34l-8.25,28.4h-8.95Z"/>
    <path class="st6" d="M815.58,324.03h-9.84l14.99-43.44h11.83l14.98,43.44h-9.84l-10.88-33.51h-.34l-10.9,33.51h0ZM814.96,306.95h23.25v7.17h-23.25v-7.17Z"/>
    <path class="st6" d="M861.44,324.03h-9.84l14.99-43.44h11.83l14.98,43.44h-9.84l-10.88-33.51h-.34l-10.9,33.51h0ZM860.83,306.95h23.25v7.17h-23.25v-7.17Z"/>
    <path class="st6" d="M899.83,324.03v-43.44h17.14c3.28,0,6.08.58,8.41,1.75,2.32,1.17,4.1,2.81,5.33,4.95,1.22,2.13,1.83,4.63,1.83,7.5s-.62,5.36-1.87,7.43-3.05,3.66-5.4,4.76-5.2,1.65-8.54,1.65h-11.47v-7.38h9.99c1.75,0,3.21-.24,4.37-.72s2.02-1.2,2.6-2.17.86-2.16.86-3.58-.29-2.66-.86-3.65c-.57-.99-1.44-1.74-2.61-2.26-1.17-.51-2.63-.77-4.4-.77h-6.19v35.93h-9.2ZM923.28,304.26l10.79,19.77h-10.14l-10.56-19.77h9.91,0Z"/>
    <path class="st6" d="M955.61,324.03h-15.4v-43.44h15.52c4.37,0,8.13.86,11.28,2.6,3.15,1.73,5.58,4.21,7.28,7.46,1.7,3.24,2.56,7.11,2.56,11.62s-.85,8.41-2.56,11.67c-1.7,3.25-4.14,5.75-7.32,7.48-3.18,1.74-6.97,2.61-11.38,2.61h0ZM949.4,316.15h5.83c2.71,0,5-.48,6.86-1.45s3.26-2.47,4.2-4.52c.94-2.04,1.41-4.69,1.41-7.92s-.47-5.83-1.41-7.87c-.94-2.04-2.34-3.53-4.19-4.5s-4.13-1.44-6.85-1.44h-5.86v27.7h0Z"/>
    <path class="st6" d="M992.45,311v-.72c.02-2.47.24-4.45.67-5.92s1.06-2.66,1.9-3.56c.83-.9,1.83-1.73,3.01-2.46.88-.56,1.66-1.15,2.36-1.76s1.24-1.29,1.65-2.02.61-1.58.61-2.49c0-.98-.23-1.83-.7-2.56-.46-.74-1.1-1.3-1.88-1.69-.79-.4-1.65-.6-2.6-.6s-1.79.2-2.61.61c-.82.41-1.49,1-2.02,1.78s-.8,1.76-.85,2.92h-8.65c.07-2.83.75-5.17,2.03-7.01,1.29-1.84,2.99-3.23,5.11-4.14s4.46-1.37,7.02-1.37c2.81,0,5.3.46,7.47,1.39,2.17.93,3.86,2.27,5.09,4.02s1.84,3.87,1.84,6.34c0,1.65-.27,3.12-.81,4.4-.55,1.28-1.3,2.41-2.28,3.39s-2.13,1.87-3.46,2.66c-1.12.66-2.03,1.36-2.75,2.07-.71.72-1.24,1.56-1.59,2.51s-.52,2.12-.54,3.5v.72h-8.05ZM996.64,324.58c-1.42,0-2.62-.5-3.62-1.49s-1.49-2.2-1.48-3.59c-.02-1.39.48-2.57,1.48-3.56,1-.99,2.2-1.49,3.62-1.49s2.52.5,3.54,1.49c1.02.99,1.53,2.17,1.55,3.56-.02.93-.26,1.78-.73,2.56-.47.77-1.1,1.39-1.86,1.84s-1.6.69-2.51.69Z"/>
  </g>
  <g>
    <path class="st8" d="M281.96,1275.19h4.7v22.13c0,2.01-.39,3.71-1.18,5.13s-1.9,2.5-3.32,3.25c-1.42.75-3.09,1.12-5,1.12-1.76,0-3.33-.32-4.73-.96s-2.5-1.57-3.31-2.79-1.21-2.72-1.21-4.47h4.68c0,.87.2,1.61.6,2.24.4.63.95,1.12,1.66,1.47.7.35,1.51.52,2.43.52,1,0,1.84-.21,2.54-.63s1.23-1.05,1.59-1.86.55-1.83.55-3.02v-22.13h0Z"/>
    <path class="st8" d="M303.01,1306.87c-2.19,0-4.11-.5-5.74-1.51-1.64-1.01-2.9-2.41-3.81-4.22-.91-1.81-1.36-3.92-1.36-6.34s.45-4.55,1.36-6.37c.91-1.82,2.18-3.23,3.81-4.24,1.64-1.01,3.55-1.51,5.74-1.51s4.11.5,5.74,1.51c1.64,1.01,2.9,2.42,3.81,4.24.91,1.82,1.36,3.94,1.36,6.37s-.45,4.53-1.36,6.34c-.91,1.81-2.18,3.21-3.81,4.22-1.64,1.01-3.55,1.51-5.74,1.51ZM303.02,1303.04c1.42,0,2.6-.37,3.53-1.13.94-.75,1.63-1.76,2.08-3s.68-2.63.68-4.13-.23-2.86-.68-4.12-1.15-2.26-2.08-3.03-2.11-1.14-3.53-1.14-2.62.38-3.56,1.14c-.94.76-1.64,1.77-2.09,3.03-.45,1.26-.68,2.63-.68,4.12s.23,2.88.68,4.13c.45,1.25,1.15,2.25,2.09,3,.94.75,2.12,1.13,3.56,1.13Z"/>
    <path class="st8" d="M333.82,1296.68v-13.7h4.57v23.41h-4.48v-4.06h-.24c-.54,1.25-1.4,2.29-2.58,3.11-1.19.83-2.65,1.24-4.41,1.24-1.51,0-2.83-.34-3.99-1s-2.06-1.65-2.72-2.97-.98-2.93-.98-4.86v-14.89h4.56v14.34c0,1.59.44,2.86,1.33,3.81s2.03,1.42,3.44,1.42c.85,0,1.7-.21,2.55-.64.85-.43,1.55-1.07,2.11-1.94s.84-1.96.83-3.29h0Z"/>
    <path class="st8" d="M349.58,1306.4l-6.89-23.41h4.71l4.59,17.19h.23l4.6-17.19h4.71l4.57,17.11h.23l4.56-17.11h4.71l-6.87,23.41h-4.65l-4.75-16.9h-.35l-4.75,16.9h-4.64Z"/>
    <path class="st8" d="M411.29,1282.99l-8.49,23.41h-4.88l-8.5-23.41h4.89l5.93,18.02h.24l5.91-18.02h4.89Z"/>
    <path class="st8" d="M424.85,1306.87c-2.31,0-4.29-.49-5.95-1.48s-2.94-2.39-3.84-4.19-1.35-3.92-1.35-6.34.45-4.51,1.35-6.34,2.16-3.25,3.78-4.28c1.62-1.03,3.52-1.54,5.69-1.54,1.32,0,2.6.22,3.84.66,1.24.44,2.35,1.12,3.34,2.06.98.94,1.76,2.15,2.33,3.64.57,1.49.85,3.29.85,5.42v1.62h-18.61v-3.42h14.14c0-1.2-.24-2.26-.73-3.19s-1.17-1.66-2.05-2.2-1.9-.81-3.09-.81c-1.28,0-2.4.31-3.35.94-.95.62-1.69,1.44-2.19,2.43-.51,1-.77,2.08-.77,3.25v2.67c0,1.56.27,2.89.83,3.99s1.33,1.94,2.33,2.5c1,.58,2.16.86,3.49.86.87,0,1.65-.12,2.36-.37s1.33-.62,1.84-1.12.91-1.12,1.19-1.84l4.31.78c-.34,1.27-.96,2.38-1.85,3.33-.89.95-2.01,1.69-3.34,2.21-1.33.52-2.86.79-4.56.79h.03Z"/>
    <path class="st8" d="M439.96,1306.4v-23.41h4.4v3.72h.24c.43-1.26,1.18-2.25,2.26-2.98s2.31-1.09,3.68-1.09c.28,0,.62,0,1.01.03s.7.05.92.08v4.36c-.18-.05-.51-.11-.98-.17s-.94-.1-1.4-.1c-1.08,0-2.04.23-2.87.68s-1.5,1.08-1.99,1.87-.73,1.7-.73,2.72v14.29h-4.56,0Z"/>
    <path class="st8" d="M456.46,1306.4v-23.41h4.38v3.81h.29c.48-1.29,1.29-2.3,2.4-3.03s2.43-1.09,3.98-1.09,2.88.37,3.94,1.1c1.06.73,1.85,1.74,2.36,3.02h.24c.56-1.25,1.45-2.25,2.67-3s2.67-1.12,4.36-1.12c2.12,0,3.85.66,5.2,2,1.35,1.33,2.02,3.34,2.02,6.02v15.7h-4.56v-15.27c0-1.58-.43-2.73-1.3-3.44-.87-.71-1.9-1.07-3.09-1.07-1.48,0-2.64.45-3.46,1.37s-1.23,2.08-1.23,3.5v14.92h-4.54v-15.56c0-1.27-.4-2.29-1.19-3.07s-1.83-1.15-3.09-1.15c-.87,0-1.66.23-2.39.68s-1.31,1.08-1.76,1.88-.66,1.73-.66,2.79v14.43h-4.58Z"/>
    <path class="st8" d="M504.23,1306.87c-2.19,0-4.11-.5-5.74-1.51-1.64-1.01-2.9-2.41-3.81-4.22-.91-1.81-1.36-3.92-1.36-6.34s.45-4.55,1.36-6.37c.91-1.82,2.18-3.23,3.81-4.24,1.64-1.01,3.55-1.51,5.74-1.51s4.11.5,5.74,1.51c1.64,1.01,2.9,2.42,3.81,4.24.91,1.82,1.36,3.94,1.36,6.37s-.45,4.53-1.36,6.34c-.91,1.81-2.18,3.21-3.81,4.22-1.64,1.01-3.55,1.51-5.74,1.51ZM504.25,1303.04c1.42,0,2.6-.37,3.53-1.13.94-.75,1.63-1.76,2.08-3,.45-1.25.68-2.63.68-4.13s-.23-2.86-.68-4.12-1.15-2.26-2.08-3.03-2.11-1.14-3.53-1.14-2.62.38-3.56,1.14c-.94.76-1.64,1.77-2.09,3.03s-.68,2.63-.68,4.12.23,2.88.68,4.13c.45,1.25,1.15,2.25,2.09,3,.94.75,2.12,1.13,3.56,1.13Z"/>
    <path class="st8" d="M530.03,1315.66c-1.86,0-3.46-.24-4.79-.73-1.33-.48-2.43-1.13-3.27-1.94-.84-.8-1.47-1.69-1.89-2.64l3.92-1.62c.27.44.64.92,1.11,1.43.46.5,1.09.93,1.89,1.29.8.36,1.83.53,3.09.53,1.72,0,3.15-.42,4.28-1.26s1.69-2.17,1.69-4v-4.6h-.29c-.27.5-.67,1.05-1.18,1.66-.51.61-1.22,1.14-2.11,1.58-.9.44-2.06.67-3.49.67-1.85,0-3.51-.44-4.99-1.3s-2.65-2.15-3.5-3.85c-.86-1.7-1.29-3.8-1.29-6.29s.42-4.62,1.27-6.4c.85-1.78,2.01-3.14,3.5-4.09,1.48-.95,3.17-1.43,5.04-1.43,1.45,0,2.63.24,3.52.73.9.48,1.59,1.05,2.1,1.69.51.64.89,1.2,1.16,1.69h.34v-3.79h4.46v23.92c0,2.01-.47,3.66-1.4,4.95-.94,1.29-2.2,2.25-3.78,2.86-1.59.62-3.38.93-5.37.93h0ZM529.98,1302.26c1.31,0,2.42-.3,3.33-.92.91-.62,1.6-1.5,2.08-2.65s.71-2.54.71-4.15-.23-2.97-.7-4.16c-.47-1.2-1.15-2.14-2.06-2.81-.91-.68-2.02-1.01-3.36-1.01s-2.51.35-3.43,1.06-1.6,1.66-2.07,2.87c-.46,1.21-.69,2.56-.69,4.06s.23,2.88.7,4.04c.47,1.15,1.16,2.06,2.08,2.72.92.65,2.05.98,3.41.98v-.02Z"/>
    <path class="st8" d="M556.79,1306.87c-2.31,0-4.29-.49-5.95-1.48s-2.94-2.39-3.84-4.19-1.35-3.92-1.35-6.34.45-4.51,1.35-6.34,2.16-3.25,3.78-4.28c1.62-1.03,3.52-1.54,5.69-1.54,1.32,0,2.6.22,3.84.66,1.24.44,2.35,1.12,3.34,2.06.98.94,1.76,2.15,2.33,3.64s.85,3.29.85,5.42v1.62h-18.61v-3.42h14.14c0-1.2-.24-2.26-.73-3.19s-1.17-1.66-2.05-2.2-1.9-.81-3.09-.81c-1.28,0-2.4.31-3.35.94-.95.62-1.69,1.44-2.19,2.43-.51,1-.77,2.08-.77,3.25v2.67c0,1.56.27,2.89.83,3.99s1.33,1.94,2.33,2.5c1,.58,2.16.86,3.49.86.87,0,1.65-.12,2.36-.37.71-.25,1.33-.62,1.84-1.12s.91-1.12,1.19-1.84l4.31.78c-.34,1.27-.96,2.38-1.85,3.33s-2.01,1.69-3.34,2.21c-1.33.52-2.86.79-4.56.79h.03Z"/>
    <path class="st8" d="M576.46,1292.49v13.9h-4.56v-23.41h4.38v3.81h.29c.54-1.24,1.38-2.23,2.54-2.99,1.15-.75,2.61-1.13,4.37-1.13,1.59,0,2.99.34,4.19,1s2.13,1.65,2.79,2.97c.66,1.31.99,2.93.99,4.86v14.89h-4.56v-14.34c0-1.69-.44-3.03-1.33-3.99s-2.1-1.44-3.64-1.44c-1.05,0-2,.23-2.81.69-.82.46-1.47,1.12-1.94,2.01s-.71,1.94-.71,3.18v.02Z"/>
    <path class="st8" d="M603.47,1302.13l-.23,1.66c-.16,1.22-.41,2.49-.77,3.82-.36,1.33-.73,2.56-1.12,3.7s-.69,2.04-.94,2.72h-3.23c.13-.63.31-1.48.55-2.55s.46-2.27.69-3.59.39-2.67.5-4.04l.16-1.71h4.39Z"/>
    <path class="st8" d="M640.79,1282.99l-8.49,23.41h-4.88l-8.5-23.41h4.89l5.93,18.02h.24l5.91-18.02h4.89Z"/>
    <path class="st8" d="M654.11,1306.87c-2.19,0-4.11-.5-5.74-1.51s-2.9-2.41-3.81-4.22-1.36-3.92-1.36-6.34.45-4.55,1.36-6.37,2.18-3.23,3.81-4.24,3.55-1.51,5.74-1.51,4.11.5,5.74,1.51,2.9,2.42,3.81,4.24,1.36,3.94,1.36,6.37-.45,4.53-1.36,6.34-2.18,3.21-3.81,4.22-3.55,1.51-5.74,1.51ZM654.12,1303.04c1.42,0,2.6-.37,3.53-1.13s1.63-1.76,2.08-3,.68-2.63.68-4.13-.23-2.86-.68-4.12-1.15-2.26-2.08-3.03-2.11-1.14-3.53-1.14-2.62.38-3.56,1.14-1.64,1.77-2.09,3.03-.68,2.63-.68,4.12.23,2.88.68,4.13,1.15,2.25,2.09,3,2.12,1.13,3.56,1.13Z"/>
    <path class="st8" d="M674.65,1275.19v31.21h-4.56v-31.21h4.56Z"/>
    <path class="st8" d="M685.33,1275.19v31.21h-4.56v-31.21h4.56Z"/>
    <path class="st8" d="M701.55,1306.87c-2.31,0-4.29-.49-5.95-1.48s-2.94-2.39-3.84-4.19-1.35-3.92-1.35-6.34.45-4.51,1.35-6.34,2.16-3.25,3.78-4.28,3.52-1.54,5.69-1.54c1.32,0,2.6.22,3.84.66s2.35,1.12,3.34,2.06,1.76,2.15,2.33,3.64.85,3.29.85,5.42v1.62h-18.61v-3.42h14.14c0-1.2-.24-2.26-.73-3.19s-1.17-1.66-2.05-2.2-1.9-.81-3.09-.81c-1.28,0-2.4.31-3.35.94s-1.69,1.44-2.19,2.43-.77,2.08-.77,3.25v2.67c0,1.56.27,2.89.83,3.99s1.33,1.94,2.33,2.5,2.16.86,3.49.86c.87,0,1.65-.12,2.36-.37s1.33-.62,1.84-1.12.91-1.12,1.19-1.84l4.31.78c-.34,1.27-.96,2.38-1.85,3.33s-2.01,1.69-3.34,2.21-2.86.79-4.56.79h.03Z"/>
    <path class="st8" d="M725.43,1306.85c-1.89,0-3.57-.48-5.05-1.46s-2.64-2.36-3.47-4.16-1.26-3.97-1.26-6.5.42-4.7,1.27-6.49,2.01-3.18,3.5-4.13,3.17-1.44,5.04-1.44c1.45,0,2.62.24,3.51.73s1.58,1.05,2.08,1.69.87,1.2,1.15,1.69h.27v-11.59h4.56v31.21h-4.45v-3.64h-.38c-.27.5-.67,1.07-1.18,1.71s-1.22,1.2-2.11,1.68-2.05.72-3.47.72h0ZM726.44,1302.97c1.31,0,2.42-.35,3.33-1.05s1.6-1.66,2.08-2.9.71-2.68.71-4.33-.23-3.05-.7-4.27-1.15-2.17-2.06-2.85-2.02-1.02-3.36-1.02-2.51.36-3.43,1.07-1.6,1.69-2.07,2.91-.69,2.61-.69,4.16.23,2.97.7,4.22,1.16,2.24,2.08,2.97,2.05,1.09,3.41,1.09h0Z"/>
    <path class="st8" d="M745.82,1279.38c-.8,0-1.47-.27-2.04-.8s-.84-1.17-.84-1.91.28-1.4.84-1.93,1.24-.8,2.04-.8,1.47.27,2.04.8.84,1.17.84,1.91-.28,1.4-.84,1.93-1.24.8-2.04.8ZM743.52,1306.4v-23.41h4.56v23.41h-4.56Z"/>
    <path class="st8" d="M764.01,1315.66c-1.86,0-3.46-.24-4.79-.73s-2.43-1.13-3.27-1.94-1.47-1.69-1.89-2.64l3.92-1.62c.27.44.64.92,1.11,1.43s1.09.93,1.89,1.29,1.83.53,3.09.53c1.72,0,3.15-.42,4.28-1.26s1.69-2.17,1.69-4v-4.6h-.29c-.27.5-.67,1.05-1.18,1.66s-1.22,1.14-2.11,1.58-2.06.67-3.49.67c-1.85,0-3.51-.44-4.99-1.3s-2.65-2.15-3.5-3.85-1.29-3.8-1.29-6.29.42-4.62,1.27-6.4,2.01-3.14,3.5-4.09,3.17-1.43,5.04-1.43c1.45,0,2.63.24,3.52.73s1.59,1.05,2.1,1.69.89,1.2,1.16,1.69h.34v-3.79h4.46v23.92c0,2.01-.47,3.66-1.4,4.95s-2.2,2.25-3.78,2.86-3.38.93-5.37.93h0ZM763.97,1302.26c1.31,0,2.42-.3,3.33-.92s1.6-1.5,2.08-2.65.71-2.54.71-4.15-.23-2.97-.7-4.16-1.15-2.14-2.06-2.81-2.02-1.01-3.36-1.01-2.51.35-3.43,1.06-1.6,1.66-2.07,2.87-.69,2.56-.69,4.06.23,2.88.7,4.04,1.16,2.06,2.08,2.72,2.05.98,3.41.98v-.02Z"/>
    <path class="st8" d="M794.36,1279.38c-.8,0-1.47-.27-2.04-.8s-.84-1.17-.84-1.91.28-1.4.84-1.93,1.24-.8,2.04-.8,1.47.27,2.04.8.84,1.17.84,1.91-.28,1.4-.84,1.93-1.24.8-2.04.8ZM792.06,1306.4v-23.41h4.56v23.41h-4.56Z"/>
    <path class="st8" d="M807.3,1292.49v13.9h-4.56v-23.41h4.38v3.81h.29c.54-1.24,1.38-2.23,2.54-2.99s2.61-1.13,4.37-1.13c1.59,0,2.99.34,4.19,1s2.13,1.65,2.79,2.97.99,2.93.99,4.86v14.89h-4.56v-14.34c0-1.69-.44-3.03-1.33-3.99s-2.1-1.44-3.64-1.44c-1.05,0-2,.23-2.81.69s-1.47,1.12-1.94,2.01-.71,1.94-.71,3.18v.02Z"/>
    <path class="st8" d="M840.11,1306.4v-31.21h4.56v11.59h.27c.27-.48.65-1.05,1.14-1.69s1.19-1.2,2.08-1.69,2.05-.73,3.5-.73c1.89,0,3.57.48,5.06,1.44s2.65,2.33,3.5,4.13,1.27,3.96,1.27,6.49-.42,4.7-1.26,6.5-2.01,3.19-3.47,4.16-3.15,1.46-5.04,1.46c-1.42,0-2.58-.24-3.48-.72s-1.6-1.04-2.11-1.68-.9-1.21-1.17-1.71h-.38v3.64h-4.45,0ZM844.57,1294.69c0,1.65.24,3.09.72,4.33s1.17,2.21,2.08,2.9,2.01,1.05,3.32,1.05,2.5-.37,3.42-1.09,1.61-1.72,2.08-2.97.71-2.66.71-4.22-.23-2.93-.69-4.16-1.15-2.2-2.08-2.91-2.07-1.07-3.43-1.07-2.43.34-3.35,1.02-1.6,1.63-2.07,2.85-.7,2.65-.7,4.27h0Z"/>
    <path class="st8" d="M876.69,1306.87c-2.31,0-4.29-.49-5.95-1.48s-2.94-2.39-3.84-4.19-1.35-3.92-1.35-6.34.45-4.51,1.35-6.34,2.16-3.25,3.78-4.28,3.52-1.54,5.69-1.54c1.32,0,2.6.22,3.84.66s2.35,1.12,3.34,2.06,1.76,2.15,2.33,3.64.85,3.29.85,5.42v1.62h-18.61v-3.42h14.14c0-1.2-.24-2.26-.73-3.19s-1.17-1.66-2.05-2.2-1.9-.81-3.09-.81c-1.28,0-2.4.31-3.35.94s-1.69,1.44-2.19,2.43-.77,2.08-.77,3.25v2.67c0,1.56.27,2.89.83,3.99s1.33,1.94,2.33,2.5,2.16.86,3.49.86c.87,0,1.65-.12,2.36-.37s1.33-.62,1.84-1.12.91-1.12,1.19-1.84l4.31.78c-.34,1.27-.96,2.38-1.85,3.33s-2.01,1.69-3.34,2.21-2.86.79-4.56.79h.03Z"/>
    <path class="st8" d="M901.89,1306.87c-2.31,0-4.29-.49-5.95-1.48s-2.94-2.39-3.84-4.19-1.35-3.92-1.35-6.34.45-4.51,1.35-6.34,2.16-3.25,3.78-4.28,3.52-1.54,5.69-1.54c1.32,0,2.6.22,3.84.66s2.35,1.12,3.34,2.06,1.76,2.15,2.33,3.64.85,3.29.85,5.42v1.62h-18.61v-3.42h14.14c0-1.2-.24-2.26-.73-3.19s-1.17-1.66-2.05-2.2-1.9-.81-3.09-.81c-1.28,0-2.4.31-3.35.94s-1.69,1.44-2.19,2.43-.77,2.08-.77,3.25v2.67c0,1.56.27,2.89.83,3.99s1.33,1.94,2.33,2.5,2.16.86,3.49.86c.87,0,1.65-.12,2.36-.37s1.33-.62,1.84-1.12.91-1.12,1.19-1.84l4.31.78c-.34,1.27-.96,2.38-1.85,3.33s-2.01,1.69-3.34,2.21-2.86.79-4.56.79h.03Z"/>
    <path class="st8" d="M921.57,1275.19v31.21h-4.56v-31.21h4.56Z"/>
    <path class="st8" d="M936.45,1306.85c-1.89,0-3.57-.48-5.05-1.46s-2.64-2.36-3.47-4.16-1.26-3.97-1.26-6.5.42-4.7,1.27-6.49,2.01-3.18,3.5-4.13,3.17-1.44,5.04-1.44c1.45,0,2.62.24,3.51.73s1.58,1.05,2.08,1.69.87,1.2,1.15,1.69h.27v-11.59h4.56v31.21h-4.45v-3.64h-.38c-.27.5-.67,1.07-1.18,1.71s-1.22,1.2-2.11,1.68-2.05.72-3.47.72h0ZM937.46,1302.97c1.31,0,2.42-.35,3.33-1.05s1.6-1.66,2.08-2.9.71-2.68.71-4.33-.23-3.05-.7-4.27-1.15-2.17-2.06-2.85-2.02-1.02-3.36-1.02-2.51.36-3.43,1.07-1.6,1.69-2.07,2.91-.69,2.61-.69,4.16.23,2.97.7,4.22,1.16,2.24,2.08,2.97,2.05,1.09,3.41,1.09h0Z"/>
    <path class="st8" d="M957.54,1306.69c-.83,0-1.55-.3-2.15-.89s-.9-1.31-.9-2.15.3-1.54.9-2.14,1.32-.89,2.15-.89,1.55.3,2.15.89.9,1.31.9,2.14c0,.56-.14,1.07-.42,1.53s-.65.83-1.11,1.11-.97.41-1.52.41h0Z"/>
    <path class="st8" d="M360.52,1345.41c0,3.33-.61,6.2-1.83,8.59s-2.89,4.23-5.01,5.52-4.53,1.93-7.22,1.93-5.11-.64-7.23-1.93-3.78-3.13-5.01-5.52-1.83-5.26-1.83-8.58.61-6.2,1.83-8.59c1.22-2.4,2.89-4.23,5.01-5.52s4.53-1.93,7.23-1.93,5.1.64,7.22,1.93,3.78,3.12,5.01,5.52,1.83,5.26,1.83,8.59ZM355.86,1345.41c0-2.54-.41-4.68-1.23-6.42-.82-1.74-1.94-3.07-3.36-3.96s-3.02-1.35-4.81-1.35-3.4.45-4.81,1.35c-1.41.9-2.53,2.22-3.35,3.96-.82,1.74-1.23,3.89-1.23,6.42s.41,4.68,1.23,6.42c.82,1.74,1.94,3.07,3.35,3.96,1.41.9,3.02,1.35,4.81,1.35s3.39-.45,4.81-1.35,2.54-2.22,3.36-3.96c.82-1.74,1.23-3.89,1.23-6.42Z"/>
    <path class="st8" d="M370.56,1347.11v13.9h-4.56v-23.41h4.38v3.81h.29c.54-1.24,1.38-2.23,2.54-2.99,1.15-.75,2.61-1.13,4.37-1.13,1.59,0,2.99.34,4.19,1s2.13,1.65,2.79,2.97c.66,1.31.99,2.93.99,4.86v14.89h-4.56v-14.34c0-1.69-.44-3.03-1.33-3.99s-2.1-1.44-3.64-1.44c-1.05,0-2,.23-2.81.69-.82.46-1.47,1.12-1.94,2.01s-.71,1.94-.71,3.18v.02Z"/>
    <path class="st8" d="M402.56,1337.61v3.66h-12.79v-3.66h12.79ZM393.21,1332h4.56v22.14c0,.88.13,1.54.4,1.99.27.44.61.74,1.03.9.42.16.88.23,1.38.23.37,0,.69-.02.96-.08s.48-.09.64-.12l.82,3.76c-.27.1-.64.2-1.13.31s-1.1.16-1.83.17c-1.2.02-2.32-.2-3.36-.64s-1.87-1.14-2.51-2.08-.96-2.11-.96-3.52v-23.09.02Z"/>
    <path class="st8" d="M416.12,1361.47c-1.89,0-3.57-.48-5.05-1.46s-2.64-2.36-3.47-4.16-1.26-3.97-1.26-6.5.42-4.7,1.27-6.49c.85-1.79,2.01-3.18,3.5-4.13,1.48-.95,3.17-1.44,5.04-1.44,1.45,0,2.62.24,3.51.73s1.58,1.05,2.08,1.69c.49.64.87,1.2,1.15,1.69h.27v-11.59h4.56v31.21h-4.45v-3.64h-.38c-.27.5-.67,1.07-1.18,1.71-.51.64-1.22,1.2-2.11,1.68s-2.05.72-3.47.72h0ZM417.12,1357.58c1.31,0,2.42-.35,3.33-1.05.91-.69,1.6-1.66,2.08-2.9s.71-2.68.71-4.33-.23-3.05-.7-4.27c-.47-1.22-1.15-2.17-2.06-2.85s-2.02-1.02-3.36-1.02-2.51.36-3.43,1.07-1.6,1.69-2.07,2.91c-.46,1.23-.69,2.61-.69,4.16s.23,2.97.7,4.22,1.16,2.24,2.08,2.97c.92.73,2.05,1.09,3.41,1.09h0Z"/>
    <path class="st8" d="M444.29,1361.49c-2.31,0-4.29-.49-5.95-1.48s-2.94-2.39-3.84-4.19-1.35-3.92-1.35-6.34.45-4.51,1.35-6.34,2.16-3.25,3.78-4.28c1.62-1.03,3.52-1.54,5.69-1.54,1.32,0,2.6.22,3.84.66,1.24.44,2.35,1.12,3.34,2.06.98.94,1.76,2.15,2.33,3.64.57,1.49.85,3.29.85,5.42v1.62h-18.61v-3.42h14.14c0-1.2-.24-2.26-.73-3.19s-1.17-1.66-2.05-2.2-1.9-.81-3.09-.81c-1.28,0-2.4.31-3.35.94-.95.62-1.69,1.44-2.19,2.43-.51,1-.77,2.08-.77,3.25v2.67c0,1.56.27,2.89.83,3.99s1.33,1.94,2.33,2.5c1,.58,2.16.86,3.49.86.87,0,1.65-.12,2.36-.37s1.33-.62,1.84-1.12.91-1.12,1.19-1.84l4.31.78c-.34,1.27-.96,2.38-1.85,3.33-.89.95-2.01,1.69-3.34,2.21-1.33.52-2.86.79-4.56.79h.03Z"/>
    <path class="st8" d="M459.41,1361.02v-31.21h4.56v31.21h-4.56ZM463.6,1353.07l-.03-5.56h.8l9.32-9.91h5.45l-10.64,11.27h-.72l-4.19,4.19h0ZM474.19,1361.02l-8.38-11.13,3.14-3.18,10.84,14.31h-5.59Z"/>
    <path class="st8" d="M499.22,1347.11v13.9h-4.56v-31.21h4.49v11.61h.29c.55-1.26,1.39-2.26,2.51-3s2.6-1.12,4.42-1.12c1.61,0,3.01.33,4.21.99s2.14,1.65,2.8,2.95,1,2.93,1,4.88v14.89h-4.56v-14.34c0-1.72-.44-3.05-1.33-4s-2.11-1.43-3.69-1.43c-1.08,0-2.04.23-2.89.69-.85.46-1.51,1.12-2,2.01s-.73,1.94-.73,3.18l.02.02Z"/>
    <path class="st8" d="M530.57,1361.49c-2.31,0-4.29-.49-5.95-1.48s-2.94-2.39-3.84-4.19-1.35-3.92-1.35-6.34.45-4.51,1.35-6.34,2.16-3.25,3.78-4.28c1.62-1.03,3.52-1.54,5.69-1.54,1.32,0,2.6.22,3.84.66,1.24.44,2.35,1.12,3.34,2.06.98.94,1.76,2.15,2.33,3.64s.85,3.29.85,5.42v1.62h-18.61v-3.42h14.14c0-1.2-.24-2.26-.73-3.19s-1.17-1.66-2.05-2.2-1.9-.81-3.09-.81c-1.28,0-2.4.31-3.35.94-.95.62-1.69,1.44-2.19,2.43-.51,1-.77,2.08-.77,3.25v2.67c0,1.56.27,2.89.83,3.99s1.33,1.94,2.33,2.5c1,.58,2.16.86,3.49.86.87,0,1.65-.12,2.36-.37s1.33-.62,1.84-1.12c.51-.5.91-1.12,1.19-1.84l4.31.78c-.34,1.27-.96,2.38-1.85,3.33s-2.01,1.69-3.34,2.21c-1.33.52-2.86.79-4.56.79h.03Z"/>
    <path class="st8" d="M556.62,1337.61v3.66h-12.79v-3.66h12.79ZM547.26,1332h4.56v22.14c0,.88.13,1.54.4,1.99.27.44.61.74,1.03.9.42.16.88.23,1.38.23.37,0,.69-.02.96-.08s.48-.09.64-.12l.82,3.76c-.27.1-.64.2-1.13.31s-1.1.16-1.83.17c-1.2.02-2.32-.2-3.36-.64s-1.87-1.14-2.51-2.08-.96-2.11-.96-3.52v-23.09.02Z"/>
    <path class="st8" d="M594.51,1339.66c-.3-.92-.69-1.76-1.18-2.49s-1.08-1.37-1.76-1.89c-.68-.52-1.46-.92-2.33-1.19s-1.82-.41-2.86-.41c-1.76,0-3.34.45-4.75,1.36s-2.53,2.22-3.35,3.97c-.82,1.74-1.23,3.87-1.23,6.39s.41,4.67,1.23,6.41,1.95,3.07,3.39,3.98,3.07,1.36,4.89,1.36c1.69,0,3.18-.34,4.44-1.04s2.25-1.67,2.94-2.93,1.05-2.75,1.05-4.47l1.22.23h-8.93v-3.89h12.27v3.55c0,2.62-.55,4.89-1.67,6.82s-2.65,3.41-4.6,4.46-4.19,1.57-6.71,1.57c-2.82,0-5.3-.65-7.43-1.95-2.13-1.3-3.78-3.14-4.98-5.54s-1.79-5.24-1.79-8.53c0-2.49.34-4.72,1.04-6.7.69-1.98,1.66-3.67,2.92-5.05,1.26-1.39,2.73-2.45,4.43-3.18s3.57-1.11,5.59-1.11c1.69,0,3.26.25,4.71.75,1.46.5,2.76,1.2,3.9,2.11s2.09,2,2.84,3.25,1.26,2.65,1.52,4.17h-4.83.02Z"/>
    <path class="st8" d="M615.25,1361.49c-2.31,0-4.29-.49-5.95-1.48s-2.94-2.39-3.84-4.19-1.35-3.92-1.35-6.34.45-4.51,1.35-6.34,2.16-3.25,3.78-4.28c1.62-1.03,3.52-1.54,5.69-1.54,1.32,0,2.6.22,3.84.66,1.24.44,2.35,1.12,3.34,2.06.98.94,1.76,2.15,2.33,3.64s.85,3.29.85,5.42v1.62h-18.61v-3.42h14.15c0-1.2-.24-2.26-.73-3.19s-1.17-1.66-2.05-2.2-1.9-.81-3.09-.81c-1.28,0-2.4.31-3.35.94-.95.62-1.69,1.44-2.19,2.43-.51,1-.77,2.08-.77,3.25v2.67c0,1.56.27,2.89.83,3.99s1.33,1.94,2.33,2.5c1,.58,2.16.86,3.49.86.87,0,1.65-.12,2.36-.37.71-.25,1.33-.62,1.84-1.12s.91-1.12,1.19-1.84l4.31.78c-.34,1.27-.96,2.38-1.85,3.33s-2.01,1.69-3.34,2.21-2.86.79-4.56.79h.02Z"/>
    <path class="st8" d="M634.92,1329.81v31.21h-4.56v-31.21h4.56Z"/>
    <path class="st8" d="M649.81,1361.47c-1.89,0-3.57-.48-5.05-1.46s-2.64-2.36-3.47-4.16-1.26-3.97-1.26-6.5.42-4.7,1.27-6.49,2.01-3.18,3.5-4.13,3.17-1.44,5.04-1.44c1.45,0,2.62.24,3.51.73s1.58,1.05,2.08,1.69.87,1.2,1.15,1.69h.27v-11.59h4.56v31.21h-4.45v-3.64h-.38c-.27.5-.67,1.07-1.18,1.71s-1.22,1.2-2.11,1.68-2.05.72-3.47.72h0ZM650.82,1357.58c1.31,0,2.42-.35,3.33-1.05s1.6-1.66,2.08-2.9.71-2.68.71-4.33-.23-3.05-.7-4.27-1.15-2.17-2.06-2.85-2.02-1.02-3.36-1.02-2.51.36-3.43,1.07-1.6,1.69-2.07,2.91-.69,2.61-.69,4.16.23,2.97.7,4.22,1.16,2.24,2.08,2.97,2.05,1.09,3.41,1.09h0Z"/>
    <path class="st8" d="M689.74,1361.02h-10.1v-31.21h10.42c3.06,0,5.69.62,7.88,1.86s3.88,3.03,5.05,5.35,1.76,5.1,1.76,8.34-.59,6.05-1.78,8.38-2.89,4.14-5.13,5.38-4.94,1.88-8.11,1.88h0ZM684.34,1356.9h5.13c2.38,0,4.35-.45,5.93-1.35s2.75-2.21,3.53-3.92,1.17-3.8,1.17-6.27-.39-4.53-1.16-6.23-1.94-3-3.46-3.89-3.44-1.33-5.71-1.33h-5.42v22.98h0Z"/>
    <path class="st8" d="M717.05,1361.53c-1.48,0-2.82-.27-4.03-.83s-2.15-1.36-2.84-2.42-1.05-2.35-1.05-3.89c0-1.32.26-2.41.76-3.26s1.19-1.53,2.06-2.03,1.83-.87,2.89-1.13,2.15-.44,3.26-.58c1.4-.16,2.54-.3,3.42-.41s1.51-.28,1.9-.52.59-.64.59-1.19v-.11c0-1.33-.37-2.36-1.12-3.09s-1.86-1.1-3.33-1.1-2.74.34-3.62,1.01-1.48,1.43-1.82,2.25l-4.28-.98c.51-1.42,1.25-2.57,2.23-3.45s2.11-1.52,3.39-1.92,2.63-.6,4.04-.6c.94,0,1.93.11,2.98.33s2.04.62,2.96,1.19,1.68,1.4,2.26,2.47.88,2.46.88,4.17v15.54h-4.45v-3.2h-.18c-.3.59-.73,1.17-1.33,1.74s-1.35,1.04-2.27,1.42-2.03.56-3.32.56h0ZM718.04,1357.87c1.26,0,2.34-.25,3.24-.75s1.58-1.15,2.06-1.96.71-1.68.71-2.6v-3.02c-.16.16-.48.31-.94.45s-.99.26-1.58.35-1.16.18-1.72.26-1.03.14-1.4.19c-.88.11-1.69.3-2.42.56s-1.3.64-1.74,1.14-.65,1.15-.65,1.96c0,1.13.41,1.98,1.25,2.55s1.9.86,3.18.86h0Z"/>
    <path class="st8" d="M752.21,1343.32l-4.13.73c-.17-.53-.44-1.03-.81-1.51s-.87-.87-1.5-1.17-1.42-.46-2.36-.46c-1.29,0-2.36.29-3.23.86s-1.3,1.31-1.3,2.22c0,.78.29,1.41.87,1.89s1.51.87,2.8,1.17l3.72.85c2.15.5,3.76,1.26,4.81,2.3s1.58,2.38,1.58,4.04c0,1.4-.41,2.65-1.21,3.74s-1.93,1.95-3.37,2.57-3.1.93-4.99.93c-2.62,0-4.76-.56-6.41-1.69s-2.67-2.72-3.05-4.79l4.4-.67c.27,1.15.83,2.01,1.69,2.6s1.97.87,3.34.87c1.49,0,2.68-.31,3.58-.94s1.34-1.39,1.34-2.29c0-.73-.27-1.35-.81-1.84s-1.37-.87-2.49-1.13l-3.96-.87c-2.18-.5-3.8-1.29-4.84-2.38s-1.56-2.47-1.56-4.13c0-1.38.39-2.59,1.15-3.63s1.84-1.85,3.2-2.43,2.92-.87,4.68-.87c2.53,0,4.52.55,5.98,1.64s2.41,2.55,2.88,4.39h0Z"/>
    <path class="st8" d="M762.22,1347.11v13.9h-4.56v-31.21h4.49v11.61h.29c.55-1.26,1.39-2.26,2.51-3s2.6-1.12,4.42-1.12c1.61,0,3.01.33,4.21.99s2.14,1.65,2.8,2.95,1,2.93,1,4.88v14.89h-4.56v-14.34c0-1.72-.44-3.05-1.33-4s-2.11-1.43-3.69-1.43c-1.08,0-2.04.23-2.89.69s-1.51,1.12-2,2.01-.73,1.94-.73,3.18l.02.02Z"/>
    <path class="st8" d="M783.86,1361.02v-31.21h4.56v11.59h.27c.27-.48.65-1.05,1.14-1.69s1.19-1.2,2.08-1.69,2.05-.73,3.5-.73c1.89,0,3.57.48,5.06,1.44s2.65,2.33,3.5,4.13,1.27,3.96,1.27,6.49-.42,4.7-1.26,6.5-2.01,3.19-3.47,4.16-3.15,1.46-5.04,1.46c-1.42,0-2.58-.24-3.48-.72s-1.6-1.04-2.11-1.68-.9-1.21-1.17-1.71h-.38v3.64h-4.45,0ZM788.32,1349.31c0,1.65.24,3.09.72,4.33s1.17,2.21,2.08,2.9,2.01,1.05,3.32,1.05,2.5-.37,3.42-1.09,1.61-1.72,2.08-2.97.71-2.66.71-4.22-.23-2.93-.69-4.16-1.15-2.2-2.08-2.91-2.07-1.07-3.43-1.07-2.43.34-3.35,1.02-1.6,1.63-2.07,2.85-.7,2.65-.7,4.27h0Z"/>
    <path class="st8" d="M820.2,1361.49c-2.19,0-4.11-.5-5.74-1.51s-2.9-2.41-3.81-4.22-1.36-3.92-1.36-6.34.45-4.55,1.36-6.37,2.18-3.23,3.81-4.24,3.55-1.51,5.74-1.51,4.11.5,5.74,1.51,2.9,2.42,3.81,4.24,1.36,3.94,1.36,6.37-.45,4.53-1.36,6.34-2.18,3.21-3.81,4.22-3.55,1.51-5.74,1.51ZM820.22,1357.66c1.42,0,2.6-.37,3.53-1.13s1.63-1.76,2.08-3,.68-2.63.68-4.13-.23-2.86-.68-4.12-1.15-2.26-2.08-3.03-2.11-1.14-3.53-1.14-2.62.38-3.56,1.14-1.64,1.77-2.09,3.03-.68,2.63-.68,4.12.23,2.88.68,4.13,1.15,2.25,2.09,3,2.12,1.13,3.56,1.13Z"/>
    <path class="st8" d="M843,1361.53c-1.48,0-2.82-.27-4.03-.83s-2.15-1.36-2.84-2.42-1.05-2.35-1.05-3.89c0-1.32.26-2.41.76-3.26s1.19-1.53,2.06-2.03,1.83-.87,2.89-1.13,2.15-.44,3.26-.58c1.4-.16,2.54-.3,3.42-.41s1.51-.28,1.9-.52.59-.64.59-1.19v-.11c0-1.33-.37-2.36-1.12-3.09s-1.86-1.1-3.33-1.1-2.74.34-3.62,1.01-1.48,1.43-1.82,2.25l-4.28-.98c.51-1.42,1.25-2.57,2.23-3.45s2.11-1.52,3.39-1.92,2.63-.6,4.04-.6c.94,0,1.93.11,2.98.33s2.04.62,2.96,1.19,1.68,1.4,2.26,2.47.88,2.46.88,4.17v15.54h-4.45v-3.2h-.18c-.3.59-.73,1.17-1.33,1.74s-1.35,1.04-2.27,1.42-2.03.56-3.32.56h0ZM843.99,1357.87c1.26,0,2.34-.25,3.24-.75s1.58-1.15,2.06-1.96.71-1.68.71-2.6v-3.02c-.16.16-.48.31-.94.45s-.99.26-1.58.35-1.16.18-1.72.26-1.03.14-1.4.19c-.88.11-1.69.3-2.42.56s-1.3.64-1.74,1.14-.65,1.15-.65,1.96c0,1.13.41,1.98,1.25,2.55s1.9.86,3.18.86h0Z"/>
    <path class="st8" d="M860.62,1361.02v-23.41h4.4v3.72h.24c.43-1.26,1.18-2.25,2.26-2.98s2.31-1.09,3.68-1.09c.28,0,.62,0,1.01.03s.7.05.92.08v4.36c-.18-.05-.51-.11-.98-.17s-.94-.1-1.4-.1c-1.08,0-2.04.23-2.87.68s-1.5,1.08-1.99,1.87-.73,1.7-.73,2.72v14.29h-4.56,0Z"/>
    <path class="st8" d="M885.02,1361.47c-1.89,0-3.57-.48-5.05-1.46s-2.64-2.36-3.47-4.16-1.26-3.97-1.26-6.5.42-4.7,1.27-6.49,2.01-3.18,3.5-4.13,3.17-1.44,5.04-1.44c1.45,0,2.62.24,3.51.73s1.58,1.05,2.08,1.69.87,1.2,1.15,1.69h.27v-11.59h4.56v31.21h-4.45v-3.64h-.38c-.27.5-.67,1.07-1.18,1.71s-1.22,1.2-2.11,1.68-2.05.72-3.47.72h0ZM886.03,1357.58c1.31,0,2.42-.35,3.33-1.05s1.6-1.66,2.08-2.9.71-2.68.71-4.33-.23-3.05-.7-4.27-1.15-2.17-2.06-2.85-2.02-1.02-3.36-1.02-2.51.36-3.43,1.07-1.6,1.69-2.07,2.91-.69,2.61-.69,4.16.23,2.97.7,4.22,1.16,2.24,2.08,2.97,2.05,1.09,3.41,1.09h0Z"/>
  </g>
  <g>
    <path class="st7" d="M288.99,1719.87v-40.53h6.11v35.26h18.36v5.27h-24.48Z"/>
    <path class="st7" d="M333.06,1720.49c-2.99,0-5.57-.65-7.73-1.93-2.15-1.28-3.82-3.1-4.99-5.44-1.16-2.34-1.76-5.09-1.76-8.24s.58-5.86,1.76-8.23c1.16-2.38,2.8-4.23,4.91-5.56,2.11-1.33,4.57-2,7.39-2,1.72,0,3.37.29,4.99.85s3.06,1.46,4.33,2.67,2.29,2.78,3.02,4.72c.74,1.93,1.11,4.28,1.11,7.04v2.1h-24.16v-4.44h18.36c0-1.56-.32-2.94-.95-4.15-.63-1.2-1.52-2.16-2.66-2.86-1.14-.7-2.47-1.05-4-1.05-1.66,0-3.11.41-4.34,1.22-1.24.81-2.19,1.87-2.85,3.17-.67,1.3-1,2.7-1,4.23v3.46c0,2.03.36,3.76,1.08,5.19.72,1.43,1.72,2.51,3.02,3.25,1.29.74,2.8,1.12,4.53,1.12,1.12,0,2.15-.16,3.06-.49.93-.33,1.72-.81,2.39-1.45.67-.65,1.19-1.44,1.54-2.39l5.6,1.01c-.45,1.65-1.25,3.09-2.4,4.32s-2.6,2.19-4.33,2.87-3.71,1.02-5.93,1.02v-.02Z"/>
    <path class="st7" d="M371.93,1707.27v-17.79h5.94v30.4h-5.82v-5.27h-.32c-.7,1.62-1.82,2.97-3.35,4.04s-3.45,1.61-5.73,1.61c-1.95,0-3.68-.43-5.18-1.29s-2.67-2.15-3.53-3.85-1.28-3.81-1.28-6.31v-19.33h5.92v18.62c0,2.07.57,3.72,1.72,4.95,1.15,1.23,2.64,1.84,4.48,1.84,1.11,0,2.21-.28,3.31-.83,1.1-.55,2.02-1.39,2.75-2.51s1.09-2.54,1.08-4.28h0Z"/>
    <path class="st7" d="M385.81,1719.87v-40.53h5.92v40.53h-5.92ZM391.25,1709.56l-.04-7.22h1.03l12.11-12.86h7.08l-13.81,14.64h-.93l-5.44,5.44h0ZM405,1719.87l-10.88-14.45,4.08-4.13,14.06,18.58h-7.26,0Z"/>
    <path class="st7" d="M428.65,1720.49c-2.99,0-5.57-.65-7.73-1.93-2.15-1.28-3.82-3.1-4.99-5.44-1.16-2.34-1.76-5.09-1.76-8.24s.58-5.86,1.76-8.23c1.16-2.38,2.8-4.23,4.91-5.56,2.11-1.33,4.57-2,7.39-2,1.72,0,3.37.29,4.99.85s3.06,1.46,4.33,2.67,2.29,2.78,3.02,4.72c.74,1.93,1.11,4.28,1.11,7.04v2.1h-24.16v-4.44h18.36c0-1.56-.32-2.94-.95-4.15-.63-1.2-1.52-2.16-2.66-2.86-1.14-.7-2.47-1.05-4-1.05-1.66,0-3.11.41-4.34,1.22-1.24.81-2.19,1.87-2.85,3.17-.67,1.3-1,2.7-1,4.23v3.46c0,2.03.36,3.76,1.08,5.19s1.72,2.51,3.02,3.25c1.29.74,2.8,1.12,4.53,1.12,1.12,0,2.15-.16,3.06-.49.93-.33,1.72-.81,2.39-1.45.67-.65,1.19-1.44,1.54-2.39l5.6,1.01c-.45,1.65-1.25,3.09-2.4,4.32s-2.6,2.19-4.33,2.87-3.71,1.02-5.93,1.02v-.02Z"/>
    <path class="st7" d="M448.27,1719.87v-30.4h5.72v4.83h.32c.55-1.64,1.53-2.93,2.94-3.87,1.4-.94,3-1.41,4.78-1.41.37,0,.81.02,1.32.04.51.02.91.06,1.2.1v5.66c-.24-.06-.66-.14-1.27-.23s-1.21-.13-1.82-.13c-1.4,0-2.64.3-3.73.88-1.08.59-1.95,1.4-2.58,2.43-.63,1.04-.95,2.21-.95,3.53v18.56h-5.92,0Z"/>
    <path class="st7" d="M495.82,1720.47c-2.46,0-4.64-.63-6.56-1.89-1.92-1.26-3.42-3.06-4.52-5.4-1.08-2.35-1.64-5.15-1.64-8.44s.55-6.1,1.65-8.43c1.1-2.34,2.62-4.12,4.54-5.36,1.92-1.24,4.11-1.86,6.55-1.86,1.88,0,3.41.31,4.56.94s2.05,1.36,2.69,2.19,1.14,1.56,1.49,2.19h.36v-15.06h5.92v40.53h-5.78v-4.73h-.49c-.36.65-.87,1.39-1.53,2.22-.66.83-1.58,1.56-2.74,2.18s-2.66.93-4.52.93h0ZM497.13,1715.42c1.7,0,3.14-.45,4.32-1.36s2.07-2.16,2.69-3.77.92-3.49.92-5.62-.3-3.96-.91-5.54-1.5-2.82-2.67-3.7-2.62-1.32-4.36-1.32-3.26.46-4.45,1.39-2.08,2.19-2.68,3.78-.9,3.4-.9,5.4.3,3.86.91,5.48,1.51,2.9,2.7,3.85c1.2.94,2.66,1.41,4.42,1.41h0Z"/>
    <path class="st7" d="M528.16,1720.55c-1.92,0-3.67-.36-5.23-1.08-1.56-.72-2.78-1.76-3.69-3.14-.9-1.37-1.36-3.06-1.36-5.05,0-1.72.33-3.13.99-4.24s1.55-1.99,2.67-2.63,2.38-1.13,3.76-1.47c1.39-.33,2.8-.58,4.24-.75,1.82-.21,3.29-.38,4.44-.53,1.13-.14,1.96-.37,2.47-.69s.77-.83.77-1.54v-.14c0-1.73-.49-3.06-1.45-4.02s-2.41-1.43-4.32-1.43-3.56.44-4.7,1.32-1.93,1.85-2.36,2.92l-5.56-1.27c.66-1.84,1.63-3.34,2.9-4.48,1.28-1.14,2.74-1.97,4.4-2.49s3.41-.78,5.24-.78c1.21,0,2.51.14,3.87.42,1.36.29,2.64.8,3.84,1.56s2.17,1.83,2.94,3.22c.77,1.4,1.15,3.2,1.15,5.41v20.18h-5.78v-4.16h-.24c-.38.77-.96,1.52-1.72,2.26s-1.75,1.36-2.95,1.84c-1.2.49-2.64.73-4.32.73h0ZM529.44,1715.79c1.64,0,3.04-.33,4.2-.97,1.16-.65,2.06-1.49,2.67-2.54.61-1.05.92-2.17.92-3.37v-3.92c-.21.21-.61.41-1.22.58-.6.18-1.28.33-2.05.45s-1.51.24-2.23.34-1.33.18-1.82.25c-1.15.14-2.19.39-3.14.73s-1.69.84-2.26,1.48c-.56.64-.84,1.48-.84,2.54,0,1.46.54,2.57,1.62,3.31,1.08.74,2.46,1.12,4.13,1.12h0Z"/>
    <path class="st7" d="M556.95,1701.83v18.05h-5.92v-30.4h5.68v4.95h.37c.7-1.61,1.8-2.9,3.29-3.88s3.39-1.47,5.67-1.47c2.07,0,3.89.43,5.44,1.29s2.76,2.15,3.62,3.85,1.28,3.81,1.28,6.31v19.33h-5.92v-18.62c0-2.2-.57-3.93-1.72-5.18s-2.72-1.87-4.73-1.87c-1.37,0-2.59.3-3.65.89s-1.9,1.46-2.51,2.6-.92,2.51-.92,4.12v.02Z"/>
    <path class="st7" d="M612.17,1720.49c-2.99,0-5.57-.65-7.73-1.93-2.15-1.28-3.82-3.1-4.99-5.44-1.16-2.34-1.76-5.09-1.76-8.24s.58-5.86,1.76-8.23c1.16-2.38,2.8-4.23,4.91-5.56s4.57-2,7.39-2c1.72,0,3.37.29,4.99.85s3.06,1.46,4.33,2.67,2.29,2.78,3.02,4.72c.74,1.93,1.11,4.28,1.11,7.04v2.1h-24.16v-4.44h18.36c0-1.56-.32-2.94-.95-4.15-.63-1.2-1.52-2.16-2.66-2.86-1.14-.7-2.47-1.05-4-1.05-1.66,0-3.11.41-4.34,1.22-1.24.81-2.19,1.87-2.85,3.17s-1,2.7-1,4.23v3.46c0,2.03.36,3.76,1.08,5.19s1.72,2.51,3.02,3.25c1.29.74,2.8,1.12,4.53,1.12,1.12,0,2.15-.16,3.06-.49.93-.33,1.72-.81,2.39-1.45.67-.65,1.19-1.44,1.54-2.39l5.6,1.01c-.45,1.65-1.25,3.09-2.4,4.32-1.16,1.24-2.6,2.19-4.33,2.87-1.73.68-3.71,1.02-5.93,1.02v-.02Z"/>
    <path class="st7" d="M644.9,1720.49c-2.99,0-5.57-.65-7.73-1.93-2.15-1.28-3.82-3.1-4.99-5.44-1.16-2.34-1.75-5.09-1.75-8.24s.58-5.86,1.75-8.23,2.8-4.23,4.91-5.56,4.57-2,7.39-2c1.72,0,3.37.29,4.99.85s3.06,1.46,4.33,2.67,2.29,2.78,3.02,4.72c.74,1.93,1.11,4.28,1.11,7.04v2.1h-24.16v-4.44h18.36c0-1.56-.32-2.94-.95-4.15-.63-1.2-1.52-2.16-2.66-2.86-1.14-.7-2.47-1.05-4-1.05-1.66,0-3.11.41-4.34,1.22-1.24.81-2.19,1.87-2.85,3.17s-1,2.7-1,4.23v3.46c0,2.03.36,3.76,1.08,5.19s1.72,2.51,3.02,3.25c1.29.74,2.8,1.12,4.53,1.12,1.12,0,2.15-.16,3.06-.49.93-.33,1.72-.81,2.39-1.45.67-.65,1.19-1.44,1.54-2.39l5.6,1.01c-.45,1.65-1.25,3.09-2.4,4.32-1.16,1.24-2.6,2.19-4.33,2.87-1.73.68-3.71,1.02-5.93,1.02v-.02Z"/>
    <path class="st7" d="M670.45,1701.83v18.05h-5.92v-30.4h5.68v4.95h.37c.7-1.61,1.8-2.9,3.29-3.88s3.39-1.47,5.67-1.47c2.07,0,3.89.43,5.44,1.29s2.76,2.15,3.62,3.85c.85,1.7,1.28,3.81,1.28,6.31v19.33h-5.92v-18.62c0-2.2-.57-3.93-1.72-5.18s-2.73-1.87-4.73-1.87c-1.37,0-2.59.3-3.65.89-1.06.59-1.9,1.46-2.51,2.6s-.92,2.51-.92,4.12v.02Z"/>
    <path class="st7" d="M735.35,1696.9l-5.36.95c-.22-.69-.57-1.34-1.06-1.96-.48-.62-1.13-1.12-1.95-1.52s-1.84-.59-3.06-.59c-1.68,0-3.07.37-4.2,1.12-1.12.74-1.68,1.71-1.68,2.88,0,1.01.37,1.83,1.12,2.46s1.96,1.12,3.64,1.52l4.83,1.11c2.8.65,4.88,1.64,6.25,2.99s2.06,3.1,2.06,5.24c0,1.82-.53,3.44-1.57,4.86-1.05,1.42-2.51,2.53-4.37,3.33s-4.03,1.2-6.48,1.2c-3.41,0-6.18-.73-8.33-2.19-2.15-1.46-3.47-3.53-3.96-6.22l5.72-.87c.36,1.49,1.08,2.62,2.19,3.37s2.55,1.14,4.33,1.14c1.94,0,3.49-.41,4.65-1.22s1.74-1.8,1.74-2.98c0-.95-.35-1.75-1.06-2.39s-1.79-1.13-3.23-1.47l-5.15-1.12c-2.84-.65-4.93-1.68-6.29-3.09s-2.03-3.2-2.03-5.36c0-1.8.5-3.37,1.5-4.71s2.39-2.39,4.16-3.16,3.79-1.14,6.07-1.14c3.29,0,5.87.71,7.75,2.13,1.88,1.42,3.14,3.31,3.74,5.69h0Z"/>
    <path class="st7" d="M742.43,1731.27v-41.79h5.78v4.93h.49c.34-.63.84-1.36,1.48-2.19s1.54-1.56,2.69-2.19,2.66-.94,4.56-.94c2.46,0,4.64.62,6.57,1.86s3.44,3.02,4.54,5.36,1.65,5.15,1.65,8.43-.55,6.1-1.64,8.44c-1.09,2.34-2.6,4.14-4.52,5.4-1.91,1.26-4.09,1.89-6.55,1.89-1.85,0-3.35-.31-4.52-.93-1.16-.62-2.08-1.35-2.74-2.18s-1.16-1.57-1.52-2.22h-.36v16.12h-5.92.02ZM748.23,1704.67c0,2.14.31,4.01.93,5.62.62,1.61,1.52,2.86,2.69,3.77,1.17.9,2.61,1.36,4.32,1.36s3.25-.47,4.44-1.41,2.09-2.23,2.7-3.85c.61-1.62.92-3.45.92-5.48s-.3-3.81-.9-5.4-1.5-2.86-2.69-3.78c-1.2-.93-2.68-1.39-4.46-1.39s-3.16.44-4.34,1.32-2.07,2.11-2.68,3.7c-.61,1.58-.91,3.43-.91,5.54h-.02Z"/>
    <path class="st7" d="M776.82,1719.87v-30.4h5.72v4.83h.32c.55-1.64,1.53-2.93,2.94-3.87,1.4-.94,3-1.41,4.78-1.41.37,0,.81.02,1.32.04s.91.06,1.2.1v5.66c-.24-.06-.66-.14-1.27-.23s-1.21-.13-1.82-.13c-1.4,0-2.64.3-3.73.88s-1.95,1.4-2.58,2.43-.95,2.21-.95,3.53v18.56h-5.92Z"/>
    <path class="st7" d="M810.22,1720.49c-2.99,0-5.57-.65-7.73-1.93-2.15-1.28-3.82-3.1-4.99-5.44-1.16-2.34-1.75-5.09-1.75-8.24s.58-5.86,1.75-8.23c1.16-2.38,2.8-4.23,4.91-5.56s4.57-2,7.39-2c1.72,0,3.37.29,4.99.85s3.06,1.46,4.33,2.67,2.29,2.78,3.02,4.72c.74,1.93,1.11,4.28,1.11,7.04v2.1h-24.16v-4.44h18.36c0-1.56-.32-2.94-.95-4.15-.63-1.2-1.52-2.16-2.66-2.86-1.14-.7-2.47-1.05-4-1.05-1.66,0-3.11.41-4.34,1.22-1.24.81-2.19,1.87-2.85,3.17s-1,2.7-1,4.23v3.46c0,2.03.36,3.76,1.08,5.19s1.72,2.51,3.02,3.25c1.29.74,2.8,1.12,4.53,1.12,1.12,0,2.15-.16,3.06-.49.93-.33,1.72-.81,2.39-1.45.67-.65,1.19-1.44,1.54-2.39l5.6,1.01c-.45,1.65-1.25,3.09-2.4,4.32-1.16,1.24-2.6,2.19-4.33,2.87-1.73.68-3.71,1.02-5.93,1.02v-.02Z"/>
    <path class="st7" d="M838.7,1720.55c-1.92,0-3.67-.36-5.23-1.08s-2.78-1.76-3.69-3.14-1.36-3.06-1.36-5.05c0-1.72.33-3.13.99-4.24s1.55-1.99,2.67-2.63,2.38-1.13,3.76-1.47c1.39-.33,2.79-.58,4.24-.75,1.82-.21,3.29-.38,4.44-.53,1.13-.14,1.96-.37,2.47-.69s.77-.83.77-1.54v-.14c0-1.73-.49-3.06-1.45-4.02-.97-.95-2.41-1.43-4.32-1.43s-3.56.44-4.7,1.32-1.93,1.85-2.36,2.92l-5.56-1.27c.66-1.84,1.63-3.34,2.9-4.48,1.28-1.14,2.74-1.97,4.4-2.49s3.41-.78,5.24-.78c1.21,0,2.51.14,3.87.42,1.36.29,2.65.8,3.84,1.56s2.17,1.83,2.94,3.22c.77,1.4,1.15,3.2,1.15,5.41v20.18h-5.78v-4.16h-.24c-.38.77-.96,1.52-1.72,2.26s-1.75,1.36-2.95,1.84c-1.2.49-2.64.73-4.32.73h0ZM839.98,1715.79c1.64,0,3.04-.33,4.2-.97,1.16-.65,2.06-1.49,2.67-2.54s.92-2.17.92-3.37v-3.92c-.21.21-.61.41-1.22.58-.6.18-1.28.33-2.05.45s-1.51.24-2.23.34-1.33.18-1.82.25c-1.15.14-2.19.39-3.14.73s-1.69.84-2.26,1.48c-.56.64-.84,1.48-.84,2.54,0,1.46.54,2.57,1.62,3.31,1.08.74,2.46,1.12,4.13,1.12h0Z"/>
    <path class="st7" d="M872.95,1720.47c-2.46,0-4.64-.63-6.56-1.89-1.92-1.26-3.42-3.06-4.52-5.4-1.08-2.35-1.64-5.15-1.64-8.44s.55-6.1,1.65-8.43,2.62-4.12,4.54-5.36,4.11-1.86,6.55-1.86c1.88,0,3.41.31,4.56.94s2.05,1.36,2.69,2.19,1.14,1.56,1.49,2.19h.36v-15.06h5.92v40.53h-5.78v-4.73h-.49c-.36.65-.87,1.39-1.53,2.22-.67.83-1.58,1.56-2.74,2.18s-2.66.93-4.52.93h0ZM874.26,1715.42c1.7,0,3.14-.45,4.32-1.36s2.07-2.16,2.69-3.77.92-3.49.92-5.62-.3-3.96-.91-5.54-1.5-2.82-2.67-3.7-2.62-1.32-4.36-1.32-3.26.46-4.45,1.39-2.08,2.19-2.68,3.78-.9,3.4-.9,5.4.3,3.86.91,5.48,1.51,2.9,2.7,3.85c1.2.94,2.66,1.41,4.42,1.41h0Z"/>
    <path class="st7" d="M919.21,1696.9l-5.36.95c-.22-.69-.57-1.34-1.06-1.96-.48-.62-1.13-1.12-1.95-1.52s-1.84-.59-3.06-.59c-1.68,0-3.07.37-4.2,1.12-1.12.74-1.68,1.71-1.68,2.88,0,1.01.37,1.83,1.12,2.46s1.96,1.12,3.64,1.52l4.83,1.11c2.8.65,4.88,1.64,6.25,2.99s2.06,3.1,2.06,5.24c0,1.82-.53,3.44-1.57,4.86-1.05,1.42-2.51,2.53-4.37,3.33s-4.03,1.2-6.48,1.2c-3.41,0-6.18-.73-8.33-2.19-2.15-1.46-3.47-3.53-3.96-6.22l5.72-.87c.36,1.49,1.08,2.62,2.19,3.37s2.55,1.14,4.33,1.14c1.94,0,3.49-.41,4.65-1.22s1.74-1.8,1.74-2.98c0-.95-.35-1.75-1.06-2.39s-1.79-1.13-3.23-1.47l-5.15-1.12c-2.84-.65-4.93-1.68-6.29-3.09s-2.03-3.2-2.03-5.36c0-1.8.5-3.37,1.5-4.71s2.39-2.39,4.16-3.16,3.79-1.14,6.07-1.14c3.29,0,5.87.71,7.75,2.13,1.88,1.42,3.14,3.31,3.74,5.69h0Z"/>
    <path class="st7" d="M932.21,1701.83v18.05h-5.92v-40.53h5.84v15.08h.37c.71-1.64,1.8-2.94,3.26-3.9s3.37-1.44,5.74-1.44c2.08,0,3.91.43,5.47,1.28,1.56.86,2.78,2.13,3.64,3.83s1.29,3.81,1.29,6.34v19.33h-5.92v-18.62c0-2.23-.57-3.96-1.72-5.19-1.15-1.24-2.74-1.85-4.79-1.85-1.4,0-2.65.3-3.75.89-1.1.59-1.96,1.46-2.59,2.6s-.94,2.51-.94,4.12h.02Z"/>
    <path class="st7" d="M972.93,1720.49c-2.99,0-5.57-.65-7.73-1.93-2.15-1.28-3.82-3.1-4.99-5.44-1.16-2.34-1.75-5.09-1.75-8.24s.58-5.86,1.75-8.23,2.8-4.23,4.91-5.56,4.57-2,7.39-2c1.72,0,3.37.29,4.99.85s3.06,1.46,4.33,2.67c1.28,1.21,2.29,2.78,3.02,4.72.74,1.93,1.11,4.28,1.11,7.04v2.1h-24.16v-4.44h18.36c0-1.56-.32-2.94-.95-4.15-.63-1.2-1.52-2.16-2.66-2.86-1.14-.7-2.47-1.05-4-1.05-1.66,0-3.11.41-4.34,1.22-1.24.81-2.19,1.87-2.85,3.17s-1,2.7-1,4.23v3.46c0,2.03.36,3.76,1.08,5.19s1.72,2.51,3.02,3.25c1.29.74,2.8,1.12,4.53,1.12,1.12,0,2.15-.16,3.06-.49.93-.33,1.72-.81,2.39-1.45.67-.65,1.19-1.44,1.54-2.39l5.6,1.01c-.45,1.65-1.25,3.09-2.4,4.32-1.16,1.24-2.6,2.19-4.33,2.87-1.73.68-3.71,1.02-5.93,1.02v-.02Z"/>
    <path class="st7" d="M1005.66,1720.49c-2.99,0-5.57-.65-7.73-1.93-2.15-1.28-3.82-3.1-4.99-5.44-1.16-2.34-1.75-5.09-1.75-8.24s.58-5.86,1.75-8.23,2.8-4.23,4.91-5.56,4.57-2,7.39-2c1.72,0,3.37.29,4.99.85s3.06,1.46,4.33,2.67c1.28,1.21,2.29,2.78,3.02,4.72.74,1.93,1.11,4.28,1.11,7.04v2.1h-24.16v-4.44h18.36c0-1.56-.32-2.94-.95-4.15-.63-1.2-1.52-2.16-2.66-2.86-1.14-.7-2.47-1.05-4-1.05-1.66,0-3.11.41-4.34,1.22-1.24.81-2.19,1.87-2.85,3.17s-1,2.7-1,4.23v3.46c0,2.03.36,3.76,1.08,5.19s1.72,2.51,3.02,3.25c1.29.74,2.8,1.12,4.53,1.12,1.12,0,2.15-.16,3.06-.49.93-.33,1.72-.81,2.39-1.45.67-.65,1.19-1.44,1.54-2.39l5.6,1.01c-.45,1.65-1.25,3.09-2.4,4.32-1.16,1.24-2.6,2.19-4.33,2.87-1.73.68-3.71,1.02-5.93,1.02v-.02Z"/>
    <path class="st7" d="M1039.48,1689.48v4.75h-16.6v-4.75h16.6ZM1027.33,1682.2h5.92v28.75c0,1.15.17,2.01.52,2.58.34.57.79.97,1.33,1.16.55.21,1.14.3,1.79.3.48,0,.89-.03,1.24-.1.36-.06.63-.12.83-.16l1.07,4.89c-.34.14-.83.26-1.47.41-.63.14-1.43.22-2.38.23-1.56.02-3.01-.25-4.36-.83s-2.43-1.48-3.26-2.69-1.24-2.74-1.24-4.57v-29.98h0Z"/>
    <path class="st7" d="M288.99,1820.7v-40.53h14.45c3.15,0,5.77.57,7.83,1.72,2.07,1.15,3.62,2.71,4.65,4.7,1.03,1.99,1.54,4.22,1.54,6.7s-.52,4.73-1.56,6.72-2.59,3.56-4.67,4.71-4.68,1.73-7.83,1.73h-9.93v-5.19h9.38c1.99,0,3.61-.34,4.85-1.04,1.24-.69,2.15-1.64,2.73-2.84.58-1.2.87-2.57.87-4.09s-.29-2.89-.87-4.08-1.49-2.11-2.74-2.79c-1.24-.67-2.89-1.01-4.91-1.01h-7.67v35.28h-6.12Z"/>
    <path class="st7" d="M324.13,1820.7v-30.4h5.72v4.83h.32c.55-1.64,1.53-2.93,2.94-3.87,1.4-.94,3-1.41,4.78-1.41.37,0,.81.02,1.32.04.51.02.91.06,1.2.1v5.66c-.24-.06-.66-.14-1.27-.23s-1.21-.13-1.82-.13c-1.4,0-2.64.3-3.73.88-1.08.59-1.95,1.4-2.58,2.43-.63,1.04-.95,2.21-.95,3.53v18.56h-5.92,0Z"/>
    <path class="st7" d="M348.53,1785.62c-1.03,0-1.91-.34-2.64-1.04-.73-.69-1.1-1.52-1.1-2.48s.37-1.81,1.1-2.51,1.61-1.04,2.64-1.04,1.91.34,2.64,1.04c.73.69,1.1,1.52,1.1,2.48s-.37,1.81-1.1,2.51-1.61,1.04-2.64,1.04ZM345.54,1820.7v-30.4h5.92v30.4h-5.92Z"/>
    <path class="st7" d="M385.41,1790.31l-11.03,30.4h-6.33l-11.04-30.4h6.35l7.7,23.39h.32l7.67-23.39h6.36Z"/>
    <path class="st7" d="M398.91,1821.37c-1.92,0-3.67-.36-5.23-1.08-1.56-.72-2.78-1.76-3.69-3.14-.9-1.37-1.36-3.06-1.36-5.05,0-1.72.33-3.13.99-4.24s1.55-1.99,2.67-2.63,2.38-1.13,3.76-1.47c1.39-.33,2.8-.58,4.24-.75,1.82-.21,3.29-.38,4.44-.53,1.13-.14,1.96-.37,2.47-.69s.77-.83.77-1.54v-.14c0-1.73-.49-3.06-1.45-4.02s-2.41-1.43-4.32-1.43-3.56.44-4.7,1.32-1.93,1.85-2.36,2.92l-5.56-1.27c.66-1.84,1.63-3.34,2.9-4.48,1.28-1.14,2.74-1.97,4.4-2.49s3.41-.78,5.24-.78c1.21,0,2.51.14,3.87.42,1.36.29,2.64.8,3.84,1.56s2.17,1.83,2.94,3.22c.77,1.4,1.15,3.2,1.15,5.41v20.18h-5.78v-4.16h-.24c-.38.77-.96,1.52-1.72,2.26s-1.75,1.36-2.95,1.84c-1.2.49-2.64.73-4.32.73h0ZM400.19,1816.63c1.64,0,3.04-.33,4.2-.97,1.16-.65,2.06-1.49,2.67-2.54.61-1.05.92-2.17.92-3.37v-3.92c-.21.21-.61.41-1.22.58-.6.18-1.28.33-2.05.45s-1.51.24-2.23.34-1.33.18-1.82.25c-1.15.14-2.19.39-3.14.73s-1.69.84-2.26,1.48c-.56.64-.84,1.48-.84,2.54,0,1.46.54,2.57,1.62,3.31,1.08.74,2.46,1.12,4.13,1.12h0Z"/>
    <path class="st7" d="M434.58,1821.32c-2.94,0-5.47-.67-7.59-2.01-2.11-1.34-3.74-3.19-4.87-5.55-1.13-2.36-1.7-5.07-1.7-8.11s.58-5.82,1.74-8.19,2.8-4.22,4.91-5.55c2.11-1.33,4.6-2,7.46-2,2.31,0,4.36.42,6.17,1.28s3.27,2.04,4.38,3.57c1.12,1.53,1.78,3.32,1.99,5.36h-5.76c-.32-1.43-1.04-2.65-2.17-3.68-1.12-1.03-2.63-1.54-4.52-1.54-1.65,0-3.09.43-4.32,1.29-1.24.86-2.19,2.09-2.88,3.68s-1.03,3.46-1.03,5.63.34,4.13,1.01,5.74,1.63,2.86,2.86,3.74,2.69,1.32,4.36,1.32c1.12,0,2.14-.21,3.06-.62s1.69-1.01,2.31-1.8c.63-.78,1.07-1.72,1.32-2.81h5.76c-.21,1.96-.85,3.72-1.92,5.27s-2.5,2.76-4.28,3.64c-1.79.89-3.89,1.32-6.29,1.32l.02.02Z"/>
    <path class="st7" d="M457.16,1832.09c-.89,0-1.69-.07-2.42-.21s-1.27-.29-1.62-.45l1.43-4.85c1.08.29,2.04.41,2.89.37s1.6-.36,2.24-.95,1.23-1.56,1.73-2.91l.73-2.02-11.12-30.79h6.33l7.7,23.59h.32l7.7-23.59h6.35l-12.53,34.45c-.58,1.58-1.32,2.93-2.22,4.03s-1.96,1.93-3.21,2.48-2.68.83-4.32.83h0Z"/>
    <path class="st7" d="M512.84,1821.32c-2.99,0-5.57-.65-7.73-1.93-2.15-1.28-3.82-3.1-4.99-5.44-1.16-2.34-1.76-5.09-1.76-8.24s.58-5.86,1.76-8.23c1.16-2.38,2.8-4.23,4.91-5.56,2.11-1.33,4.57-2,7.39-2,1.72,0,3.37.29,4.99.85s3.06,1.46,4.33,2.67,2.29,2.78,3.02,4.72c.74,1.93,1.11,4.28,1.11,7.04v2.1h-24.16v-4.44h18.36c0-1.56-.32-2.94-.95-4.15-.63-1.2-1.52-2.16-2.66-2.86-1.14-.7-2.47-1.05-4-1.05-1.66,0-3.11.41-4.34,1.22-1.24.81-2.19,1.87-2.85,3.17-.67,1.3-1,2.7-1,4.23v3.46c0,2.03.36,3.76,1.08,5.19s1.72,2.51,3.02,3.25c1.29.74,2.8,1.12,4.53,1.12,1.12,0,2.15-.16,3.06-.49.93-.33,1.72-.81,2.39-1.45.67-.65,1.19-1.44,1.54-2.39l5.6,1.01c-.45,1.65-1.25,3.09-2.4,4.32s-2.6,2.19-4.33,2.87-3.71,1.02-5.93,1.02v-.02Z"/>
    <path class="st7" d="M545.57,1821.32c-2.99,0-5.57-.65-7.73-1.93-2.15-1.28-3.82-3.1-4.99-5.44-1.16-2.34-1.76-5.09-1.76-8.24s.58-5.86,1.76-8.23c1.16-2.38,2.8-4.23,4.91-5.56,2.11-1.33,4.57-2,7.39-2,1.72,0,3.37.29,4.99.85s3.06,1.46,4.33,2.67,2.29,2.78,3.02,4.72c.74,1.93,1.11,4.28,1.11,7.04v2.1h-24.16v-4.44h18.36c0-1.56-.32-2.94-.95-4.15-.63-1.2-1.52-2.16-2.66-2.86-1.14-.7-2.47-1.05-4-1.05-1.66,0-3.11.41-4.34,1.22-1.24.81-2.19,1.87-2.85,3.17-.67,1.3-1,2.7-1,4.23v3.46c0,2.03.36,3.76,1.08,5.19.72,1.43,1.72,2.51,3.02,3.25,1.29.74,2.8,1.12,4.53,1.12,1.12,0,2.15-.16,3.06-.49.93-.33,1.72-.81,2.39-1.45.67-.65,1.19-1.44,1.54-2.39l5.6,1.01c-.45,1.65-1.25,3.09-2.4,4.32s-2.6,2.19-4.33,2.87-3.71,1.02-5.93,1.02v-.02Z"/>
    <path class="st7" d="M565.2,1820.7v-30.4h5.72v4.83h.32c.55-1.64,1.53-2.93,2.94-3.87,1.4-.94,3-1.41,4.78-1.41.37,0,.81.02,1.32.04s.91.06,1.2.1v5.66c-.24-.06-.66-.14-1.27-.23s-1.21-.13-1.82-.13c-1.4,0-2.64.3-3.73.88-1.08.59-1.95,1.4-2.58,2.43-.63,1.04-.95,2.21-.95,3.53v18.56h-5.92,0Z"/>
    <path class="st7" d="M609.39,1797.73l-5.36.95c-.22-.69-.57-1.34-1.06-1.96-.48-.62-1.13-1.12-1.95-1.52-.82-.4-1.84-.59-3.06-.59-1.68,0-3.07.37-4.2,1.12-1.12.74-1.68,1.71-1.68,2.88,0,1.01.37,1.83,1.12,2.46.75.62,1.96,1.12,3.64,1.52l4.83,1.11c2.8.65,4.88,1.64,6.25,2.99s2.06,3.1,2.06,5.24c0,1.82-.53,3.44-1.57,4.86-1.05,1.42-2.51,2.53-4.37,3.33s-4.03,1.2-6.48,1.2c-3.41,0-6.18-.73-8.33-2.19s-3.47-3.53-3.96-6.22l5.72-.87c.36,1.49,1.08,2.62,2.19,3.37s2.55,1.14,4.33,1.14c1.94,0,3.49-.41,4.65-1.22s1.74-1.8,1.74-2.98c0-.95-.35-1.75-1.06-2.39s-1.79-1.13-3.24-1.47l-5.15-1.12c-2.84-.65-4.93-1.68-6.29-3.09-1.35-1.41-2.03-3.2-2.03-5.36,0-1.8.5-3.37,1.5-4.71,1.01-1.35,2.39-2.39,4.16-3.16,1.77-.76,3.79-1.14,6.07-1.14,3.29,0,5.87.71,7.75,2.13s3.14,3.31,3.74,5.69h.02Z"/>
    <path class="st7" d="M630.65,1790.31v4.75h-16.6v-4.75h16.6ZM618.5,1783.02h5.92v28.75c0,1.15.17,2.01.52,2.58.34.57.79.97,1.33,1.16.55.21,1.14.3,1.79.3.48,0,.89-.03,1.24-.1.36-.06.63-.12.83-.16l1.07,4.89c-.34.14-.83.26-1.47.41-.63.14-1.43.22-2.38.23-1.56.02-3.01-.25-4.36-.83s-2.43-1.48-3.26-2.69-1.24-2.74-1.24-4.57v-29.98h0Z"/>
    <path class="st7" d="M655.84,1820.7h-6.49l14.58-40.53h7.07l14.58,40.53h-6.49l-11.46-33.16h-.32l-11.47,33.16ZM656.93,1804.83h21.05v5.15h-21.05v-5.15Z"/>
    <path class="st7" d="M691.42,1820.7v-40.53h25.41v5.27h-19.29v12.35h17.97v5.24h-17.97v12.41h19.53v5.27h-25.65Z"/>
    <path class="st7" d="M747.12,1790.83c-.21-1.87-1.08-3.33-2.61-4.36-1.53-1.04-3.45-1.56-5.78-1.56-1.66,0-3.1.26-4.32.78-1.21.52-2.15,1.24-2.82,2.14-.67.9-1,1.93-1,3.08,0,.97.23,1.8.69,2.49.45.7,1.05,1.28,1.8,1.76.74.47,1.55.86,2.4,1.16s1.68.57,2.47.76l3.96,1.03c1.29.32,2.62.74,3.98,1.28,1.36.54,2.62,1.25,3.78,2.14,1.16.89,2.1,1.98,2.82,3.29s1.08,2.87,1.08,4.69c0,2.3-.59,4.33-1.77,6.11s-2.89,3.18-5.12,4.21c-2.23,1.03-4.94,1.55-8.11,1.55s-5.66-.48-7.87-1.44c-2.22-.97-3.95-2.33-5.2-4.11-1.25-1.77-1.95-3.89-2.07-6.32h6.13c.12,1.46.6,2.68,1.44,3.65.84.97,1.91,1.69,3.22,2.15s2.75.7,4.32.7c1.73,0,3.27-.27,4.62-.82,1.36-.55,2.42-1.32,3.2-2.3s1.16-2.13,1.16-3.45c0-1.2-.34-2.19-1.02-2.95s-1.6-1.4-2.75-1.9-2.46-.94-3.91-1.32l-4.79-1.31c-3.25-.89-5.82-2.19-7.71-3.9s-2.84-3.98-2.84-6.81c0-2.34.63-4.37,1.9-6.11s2.98-3.1,5.15-4.07,4.6-1.45,7.32-1.45,5.17.48,7.28,1.44c2.11.97,3.77,2.29,4.98,3.96,1.21,1.68,1.84,3.61,1.9,5.78h-5.9l-.02.02Z"/>
    <path class="st7" d="M788.26,1821.32c-2.99,0-5.57-.65-7.73-1.93-2.15-1.28-3.82-3.1-4.99-5.44-1.16-2.34-1.75-5.09-1.75-8.24s.58-5.86,1.75-8.23,2.8-4.23,4.91-5.56,4.57-2,7.39-2c1.72,0,3.37.29,4.99.85s3.06,1.46,4.33,2.67,2.29,2.78,3.02,4.72c.74,1.93,1.11,4.28,1.11,7.04v2.1h-24.16v-4.44h18.36c0-1.56-.32-2.94-.95-4.15-.63-1.2-1.52-2.16-2.66-2.86-1.14-.7-2.47-1.05-4-1.05-1.66,0-3.11.41-4.34,1.22-1.24.81-2.19,1.87-2.85,3.17s-1,2.7-1,4.23v3.46c0,2.03.36,3.76,1.08,5.19s1.72,2.51,3.02,3.25c1.29.74,2.8,1.12,4.53,1.12,1.12,0,2.15-.16,3.06-.49.93-.33,1.72-.81,2.39-1.45.67-.65,1.19-1.44,1.54-2.39l5.6,1.01c-.45,1.65-1.25,3.09-2.4,4.32-1.16,1.24-2.6,2.19-4.33,2.87-1.73.68-3.71,1.02-5.93,1.02v-.02Z"/>
    <path class="st7" d="M813.8,1802.66v18.05h-5.92v-30.4h5.68v4.95h.37c.7-1.61,1.8-2.9,3.29-3.88s3.39-1.47,5.67-1.47c2.07,0,3.89.43,5.44,1.29s2.76,2.15,3.62,3.85c.85,1.7,1.28,3.81,1.28,6.31v19.33h-5.92v-18.62c0-2.2-.57-3.93-1.72-5.18s-2.73-1.87-4.73-1.87c-1.37,0-2.59.3-3.65.89-1.06.59-1.9,1.46-2.51,2.6s-.92,2.51-.92,4.12v.02Z"/>
    <path class="st7" d="M853.97,1821.32c-2.94,0-5.47-.67-7.59-2.01s-3.74-3.19-4.87-5.55c-1.13-2.36-1.7-5.07-1.7-8.11s.58-5.82,1.74-8.19,2.79-4.22,4.91-5.55,4.6-2,7.46-2c2.31,0,4.36.42,6.17,1.28,1.8.85,3.27,2.04,4.38,3.57s1.78,3.32,1.99,5.36h-5.76c-.32-1.43-1.04-2.65-2.17-3.68-1.12-1.03-2.63-1.54-4.52-1.54-1.65,0-3.09.43-4.32,1.29s-2.19,2.09-2.88,3.68-1.03,3.46-1.03,5.63.34,4.13,1.01,5.74c.67,1.61,1.63,2.86,2.86,3.74s2.69,1.32,4.36,1.32c1.12,0,2.14-.21,3.06-.62s1.69-1.01,2.31-1.8,1.06-1.72,1.32-2.81h5.76c-.21,1.96-.85,3.72-1.92,5.27-1.07,1.54-2.5,2.76-4.28,3.64-1.79.89-3.89,1.32-6.29,1.32l.02.02Z"/>
    <path class="st7" d="M872.81,1820.7v-30.4h5.72v4.83h.32c.55-1.64,1.53-2.93,2.94-3.87,1.4-.94,3-1.41,4.78-1.41.37,0,.81.02,1.32.04s.91.06,1.2.1v5.66c-.24-.06-.66-.14-1.27-.23s-1.21-.13-1.82-.13c-1.4,0-2.64.3-3.73.88s-1.95,1.4-2.58,2.43-.95,2.21-.95,3.53v18.56h-5.92Z"/>
    <path class="st7" d="M898.91,1832.09c-.89,0-1.69-.07-2.42-.21-.73-.14-1.27-.29-1.62-.45l1.43-4.85c1.08.29,2.04.41,2.89.37s1.6-.36,2.25-.95,1.23-1.56,1.73-2.91l.73-2.02-11.12-30.79h6.33l7.7,23.59h.32l7.7-23.59h6.35l-12.53,34.45c-.58,1.58-1.32,2.93-2.22,4.03-.89,1.1-1.96,1.93-3.21,2.48-1.24.55-2.68.83-4.32.83h0Z"/>
    <path class="st7" d="M926.73,1832.09v-41.79h5.78v4.93h.49c.34-.63.84-1.36,1.48-2.19s1.54-1.56,2.69-2.19,2.66-.94,4.56-.94c2.46,0,4.64.62,6.57,1.86s3.44,3.02,4.54,5.36,1.65,5.15,1.65,8.43-.55,6.1-1.64,8.44c-1.09,2.34-2.6,4.14-4.52,5.4-1.91,1.26-4.09,1.89-6.55,1.89-1.85,0-3.35-.31-4.52-.93-1.16-.62-2.08-1.35-2.74-2.18s-1.16-1.57-1.52-2.22h-.36v16.12h-5.92.02ZM932.53,1805.5c0,2.14.31,4.01.93,5.62.62,1.61,1.52,2.86,2.69,3.77,1.17.9,2.61,1.36,4.32,1.36s3.25-.47,4.44-1.41c1.19-.94,2.09-2.23,2.7-3.85.61-1.62.92-3.45.92-5.48s-.3-3.81-.9-5.4-1.5-2.86-2.69-3.78c-1.2-.93-2.68-1.39-4.46-1.39s-3.16.44-4.34,1.32-2.07,2.11-2.68,3.7c-.61,1.58-.91,3.43-.91,5.54h-.02Z"/>
    <path class="st7" d="M975.31,1790.31v4.75h-16.6v-4.75h16.6ZM963.16,1783.02h5.92v28.75c0,1.15.17,2.01.52,2.58.34.57.79.97,1.33,1.16.55.21,1.14.3,1.79.3.48,0,.89-.03,1.24-.1.36-.06.63-.12.83-.16l1.07,4.89c-.34.14-.83.26-1.47.41-.63.14-1.43.22-2.38.23-1.56.02-3.01-.25-4.36-.83s-2.43-1.48-3.26-2.69-1.24-2.74-1.24-4.57v-29.98h0Z"/>
    <path class="st7" d="M994.62,1821.32c-2.99,0-5.57-.65-7.73-1.93-2.15-1.28-3.82-3.1-4.99-5.44-1.16-2.34-1.75-5.09-1.75-8.24s.58-5.86,1.75-8.23,2.8-4.23,4.91-5.56,4.57-2,7.39-2c1.72,0,3.37.29,4.99.85s3.06,1.46,4.33,2.67c1.28,1.21,2.29,2.78,3.02,4.72.74,1.93,1.11,4.28,1.11,7.04v2.1h-24.16v-4.44h18.36c0-1.56-.32-2.94-.95-4.15-.63-1.2-1.52-2.16-2.66-2.86-1.14-.7-2.47-1.05-4-1.05-1.66,0-3.11.41-4.34,1.22-1.24.81-2.19,1.87-2.85,3.17s-1,2.7-1,4.23v3.46c0,2.03.36,3.76,1.08,5.19s1.72,2.51,3.02,3.25c1.29.74,2.8,1.12,4.53,1.12,1.12,0,2.15-.16,3.06-.49.93-.33,1.72-.81,2.39-1.45.67-.65,1.19-1.44,1.54-2.39l5.6,1.01c-.45,1.65-1.25,3.09-2.4,4.32-1.16,1.24-2.6,2.19-4.33,2.87-1.73.68-3.71,1.02-5.93,1.02v-.02Z"/>
    <path class="st7" d="M1025.63,1821.29c-2.46,0-4.64-.63-6.56-1.89-1.92-1.26-3.42-3.06-4.52-5.4-1.08-2.35-1.64-5.15-1.64-8.44s.55-6.1,1.65-8.43c1.1-2.34,2.62-4.12,4.54-5.36s4.11-1.86,6.55-1.86c1.88,0,3.41.31,4.56.94s2.05,1.36,2.69,2.19,1.14,1.56,1.49,2.19h.36v-15.06h5.92v40.53h-5.78v-4.73h-.49c-.36.65-.87,1.39-1.53,2.22-.67.83-1.58,1.56-2.74,2.18s-2.66.93-4.52.93h0ZM1026.93,1816.25c1.7,0,3.14-.45,4.32-1.36,1.18-.9,2.07-2.16,2.69-3.77s.92-3.49.92-5.62-.3-3.96-.91-5.54-1.5-2.82-2.67-3.7-2.62-1.32-4.36-1.32-3.26.46-4.45,1.39-2.08,2.19-2.68,3.78-.9,3.4-.9,5.4.3,3.86.91,5.48,1.51,2.9,2.7,3.85c1.2.94,2.66,1.41,4.42,1.41h0Z"/>
    <path class="st7" d="M288.99,1921.53v-40.53h6.11v35.26h18.36v5.27h-24.48Z"/>
    <path class="st7" d="M332.76,1922.14c-2.85,0-5.34-.65-7.46-1.96s-3.77-3.14-4.95-5.48-1.76-5.09-1.76-8.23.59-5.91,1.76-8.27c1.17-2.36,2.82-4.2,4.95-5.5,2.12-1.31,4.61-1.96,7.46-1.96s5.34.65,7.46,1.96,3.77,3.14,4.95,5.5c1.17,2.36,1.76,5.12,1.76,8.27s-.59,5.89-1.76,8.23c-1.17,2.35-2.82,4.17-4.95,5.48-2.12,1.31-4.61,1.96-7.46,1.96ZM332.78,1917.18c1.84,0,3.37-.49,4.59-1.46s2.11-2.27,2.7-3.9c.59-1.62.88-3.41.88-5.36s-.3-3.73-.88-5.35c-.59-1.63-1.48-2.94-2.7-3.93-1.21-.99-2.74-1.48-4.59-1.48s-3.4.49-4.62,1.48-2.12,2.3-2.71,3.93c-.59,1.63-.88,3.41-.88,5.35s.3,3.74.88,5.36c.59,1.62,1.49,2.92,2.71,3.9s2.76,1.46,4.62,1.46Z"/>
    <path class="st7" d="M366.32,1922.14c-2.94,0-5.47-.67-7.59-2.01-2.11-1.34-3.74-3.19-4.87-5.55-1.13-2.36-1.7-5.07-1.7-8.11s.58-5.82,1.74-8.19,2.8-4.22,4.91-5.55c2.11-1.33,4.6-2,7.46-2,2.31,0,4.36.42,6.17,1.28s3.27,2.04,4.38,3.57c1.12,1.53,1.78,3.32,1.99,5.36h-5.76c-.32-1.43-1.04-2.65-2.17-3.68-1.12-1.03-2.63-1.54-4.52-1.54-1.65,0-3.09.43-4.32,1.29-1.24.86-2.19,2.09-2.88,3.68s-1.03,3.46-1.03,5.63.34,4.13,1.01,5.74,1.63,2.86,2.86,3.74,2.69,1.32,4.36,1.32c1.12,0,2.14-.21,3.06-.62s1.69-1.01,2.31-1.8c.63-.78,1.07-1.72,1.32-2.81h5.76c-.21,1.96-.85,3.72-1.92,5.27s-2.5,2.76-4.28,3.64c-1.79.89-3.89,1.32-6.29,1.32l.02.02Z"/>
    <path class="st7" d="M394,1922.2c-1.92,0-3.67-.36-5.23-1.08-1.56-.72-2.78-1.76-3.69-3.14-.9-1.37-1.36-3.06-1.36-5.05,0-1.72.33-3.13.99-4.24.66-1.11,1.55-1.99,2.67-2.63s2.38-1.13,3.76-1.47c1.39-.33,2.8-.58,4.24-.75,1.82-.21,3.29-.38,4.44-.53,1.13-.14,1.96-.37,2.47-.69s.77-.83.77-1.54v-.14c0-1.73-.49-3.06-1.45-4.02s-2.41-1.43-4.32-1.43-3.56.44-4.7,1.32-1.93,1.85-2.36,2.92l-5.56-1.27c.66-1.84,1.63-3.34,2.9-4.48,1.28-1.14,2.74-1.97,4.4-2.49s3.41-.78,5.24-.78c1.21,0,2.51.14,3.87.42,1.36.29,2.64.8,3.84,1.56s2.17,1.83,2.94,3.22c.77,1.4,1.15,3.2,1.15,5.41v20.18h-5.78v-4.16h-.24c-.38.77-.96,1.52-1.72,2.26s-1.75,1.36-2.95,1.84c-1.2.49-2.64.73-4.32.73h0ZM395.29,1917.46c1.64,0,3.04-.33,4.2-.97s2.06-1.49,2.67-2.54c.61-1.05.92-2.17.92-3.37v-3.92c-.21.21-.61.41-1.22.58-.6.18-1.28.33-2.05.45s-1.51.24-2.23.34-1.33.18-1.82.25c-1.15.14-2.19.39-3.14.73s-1.69.84-2.26,1.48c-.56.64-.84,1.48-.84,2.54,0,1.46.54,2.57,1.62,3.31,1.08.74,2.46,1.12,4.13,1.12h0Z"/>
    <path class="st7" d="M422.79,1881.01v40.53h-5.92v-40.53h5.92Z"/>
    <path class="st7" d="M453.32,1891.65c-.21-1.87-1.08-3.33-2.61-4.36-1.53-1.04-3.45-1.56-5.78-1.56-1.66,0-3.1.26-4.32.78s-2.15,1.24-2.82,2.14-1,1.93-1,3.08c0,.97.23,1.8.69,2.49.45.7,1.05,1.28,1.8,1.76.74.47,1.55.86,2.4,1.16.85.31,1.68.57,2.47.76l3.96,1.03c1.29.32,2.62.74,3.98,1.28,1.36.54,2.62,1.25,3.78,2.14,1.16.89,2.1,1.98,2.82,3.29s1.08,2.87,1.08,4.69c0,2.3-.59,4.33-1.77,6.11s-2.89,3.18-5.12,4.21c-2.23,1.03-4.94,1.55-8.11,1.55s-5.66-.48-7.87-1.44-3.95-2.33-5.2-4.11c-1.25-1.77-1.95-3.89-2.07-6.32h6.13c.12,1.46.6,2.68,1.44,3.65.84.97,1.91,1.69,3.22,2.15,1.32.47,2.75.7,4.32.7,1.73,0,3.27-.27,4.62-.82s2.42-1.32,3.2-2.3,1.16-2.13,1.16-3.45c0-1.2-.34-2.19-1.02-2.95s-1.6-1.4-2.75-1.9-2.46-.94-3.91-1.32l-4.79-1.31c-3.25-.89-5.82-2.19-7.71-3.9s-2.84-3.98-2.84-6.81c0-2.34.63-4.37,1.9-6.11s2.98-3.1,5.15-4.07,4.6-1.45,7.32-1.45,5.17.48,7.27,1.44c2.11.97,3.77,2.29,4.98,3.96,1.21,1.68,1.84,3.61,1.9,5.78h-5.9l-.02.02Z"/>
    <path class="st7" d="M480.78,1891.14v4.75h-16.6v-4.75h16.6ZM468.63,1883.85h5.92v28.75c0,1.15.17,2.01.52,2.58.34.57.79.97,1.33,1.16.55.21,1.14.3,1.79.3.48,0,.89-.03,1.24-.1.36-.06.63-.12.83-.16l1.07,4.89c-.34.14-.83.26-1.46.41-.63.14-1.43.22-2.38.23-1.56.02-3.01-.25-4.36-.83s-2.43-1.48-3.26-2.69-1.24-2.74-1.24-4.57v-29.98h0Z"/>
    <path class="st7" d="M499.8,1922.14c-2.85,0-5.34-.65-7.46-1.96s-3.77-3.14-4.95-5.48-1.76-5.09-1.76-8.23.59-5.91,1.76-8.27c1.17-2.36,2.82-4.2,4.95-5.5,2.12-1.31,4.61-1.96,7.46-1.96s5.34.65,7.46,1.96,3.77,3.14,4.95,5.5c1.17,2.36,1.76,5.12,1.76,8.27s-.59,5.89-1.76,8.23c-1.17,2.35-2.82,4.17-4.95,5.48-2.12,1.31-4.61,1.96-7.46,1.96ZM499.82,1917.18c1.84,0,3.37-.49,4.59-1.46s2.11-2.27,2.7-3.9c.59-1.62.88-3.41.88-5.36s-.3-3.73-.88-5.35c-.59-1.63-1.48-2.94-2.7-3.93-1.21-.99-2.74-1.48-4.59-1.48s-3.4.49-4.62,1.48-2.12,2.3-2.71,3.93-.88,3.41-.88,5.35.3,3.74.88,5.36c.59,1.62,1.49,2.92,2.71,3.9s2.76,1.46,4.62,1.46Z"/>
    <path class="st7" d="M520.56,1921.53v-30.4h5.72v4.83h.32c.55-1.64,1.53-2.93,2.94-3.87,1.4-.94,3-1.41,4.78-1.41.37,0,.81.02,1.32.04s.91.06,1.2.1v5.66c-.24-.06-.66-.14-1.27-.23s-1.21-.13-1.82-.13c-1.4,0-2.64.3-3.73.88-1.08.59-1.95,1.4-2.58,2.43-.63,1.04-.95,2.21-.95,3.53v18.56h-5.92,0Z"/>
    <path class="st7" d="M550.53,1922.2c-1.92,0-3.67-.36-5.23-1.08-1.56-.72-2.78-1.76-3.69-3.14-.9-1.37-1.36-3.06-1.36-5.05,0-1.72.33-3.13.99-4.24.66-1.11,1.55-1.99,2.67-2.63s2.38-1.13,3.76-1.47c1.39-.33,2.8-.58,4.24-.75,1.82-.21,3.29-.38,4.44-.53,1.13-.14,1.96-.37,2.47-.69s.77-.83.77-1.54v-.14c0-1.73-.49-3.06-1.45-4.02s-2.41-1.43-4.32-1.43-3.56.44-4.7,1.32-1.93,1.85-2.36,2.92l-5.56-1.27c.66-1.84,1.63-3.34,2.9-4.48,1.28-1.14,2.74-1.97,4.4-2.49s3.41-.78,5.24-.78c1.21,0,2.51.14,3.87.42,1.36.29,2.64.8,3.84,1.56s2.17,1.83,2.94,3.22c.77,1.4,1.15,3.2,1.15,5.41v20.18h-5.78v-4.16h-.24c-.38.77-.96,1.52-1.72,2.26s-1.75,1.36-2.95,1.84c-1.2.49-2.64.73-4.32.73h0ZM551.83,1917.46c1.64,0,3.04-.33,4.2-.97s2.06-1.49,2.67-2.54c.61-1.05.92-2.17.92-3.37v-3.92c-.21.21-.61.41-1.22.58-.6.18-1.28.33-2.05.45s-1.51.24-2.23.34-1.33.18-1.82.25c-1.15.14-2.19.39-3.14.73s-1.69.84-2.26,1.48c-.56.64-.84,1.48-.84,2.54,0,1.46.54,2.57,1.62,3.31,1.08.74,2.46,1.12,4.13,1.12h0Z"/>
    <path class="st7" d="M586.15,1933.56c-2.42,0-4.49-.32-6.22-.95s-3.15-1.47-4.24-2.51c-1.09-1.05-1.91-2.19-2.46-3.42l5.08-2.1c.36.58.84,1.2,1.44,1.85s1.42,1.21,2.46,1.68,2.37.69,4,.69c2.24,0,4.09-.54,5.56-1.64s2.19-2.82,2.19-5.19v-5.98h-.37c-.36.65-.87,1.36-1.53,2.15-.67.79-1.58,1.48-2.74,2.06s-2.67.87-4.53.87c-2.4,0-4.56-.57-6.48-1.69-1.92-1.12-3.44-2.79-4.55-5-1.12-2.21-1.68-4.93-1.68-8.16s.55-6,1.65-8.31c1.1-2.31,2.62-4.08,4.54-5.31,1.92-1.24,4.11-1.85,6.55-1.85,1.88,0,3.41.31,4.57.94,1.16.63,2.07,1.36,2.72,2.19.65.83,1.16,1.56,1.52,2.19h.44v-4.93h5.8v31.07c0,2.61-.61,4.75-1.82,6.43s-2.86,2.91-4.91,3.72c-2.07.81-4.39,1.2-6.97,1.2h0ZM586.09,1916.16c1.7,0,3.14-.4,4.32-1.2s2.07-1.95,2.69-3.45c.61-1.5.92-3.29.92-5.39s-.3-3.85-.91-5.4-1.5-2.78-2.67-3.65-2.62-1.32-4.36-1.32-3.26.46-4.45,1.37c-1.19.92-2.08,2.16-2.68,3.73-.6,1.57-.9,3.33-.9,5.27s.3,3.74.91,5.24c.61,1.5,1.51,2.68,2.7,3.53,1.2.85,2.66,1.27,4.42,1.27h0Z"/>
    <path class="st7" d="M620.9,1922.14c-2.99,0-5.57-.65-7.73-1.93-2.15-1.28-3.82-3.1-4.99-5.44-1.16-2.34-1.75-5.09-1.75-8.24s.58-5.86,1.75-8.23,2.8-4.23,4.91-5.56,4.57-2,7.39-2c1.72,0,3.37.29,4.99.85s3.06,1.46,4.33,2.67,2.29,2.78,3.02,4.72c.74,1.93,1.11,4.28,1.11,7.04v2.1h-24.16v-4.44h18.36c0-1.56-.32-2.94-.95-4.15-.63-1.2-1.52-2.16-2.66-2.86-1.14-.7-2.47-1.05-4-1.05-1.66,0-3.11.41-4.34,1.22-1.24.81-2.19,1.87-2.85,3.17s-1,2.7-1,4.23v3.46c0,2.03.36,3.76,1.08,5.19s1.72,2.51,3.02,3.25c1.29.74,2.8,1.12,4.53,1.12,1.12,0,2.15-.16,3.06-.49.93-.33,1.72-.81,2.39-1.45s1.19-1.44,1.54-2.39l5.6,1.01c-.45,1.65-1.25,3.09-2.4,4.32-1.16,1.24-2.6,2.19-4.33,2.87-1.73.68-3.71,1.02-5.93,1.02v-.02Z"/>
    <path class="st7" d="M316.42,1994.63c-.38-1.2-.89-2.28-1.53-3.24s-1.4-1.77-2.28-2.46-1.89-1.2-3.02-1.56-2.36-.53-3.71-.53c-2.28,0-4.34.59-6.17,1.76s-3.28,2.89-4.34,5.15-1.6,5.03-1.6,8.3.53,6.06,1.6,8.33c1.07,2.27,2.53,3.99,4.4,5.16,1.86,1.17,3.98,1.76,6.35,1.76,2.2,0,4.12-.45,5.77-1.35s2.91-2.17,3.82-3.81c.9-1.64,1.36-3.58,1.36-5.81l1.58.3h-11.59v-5.04h15.93v4.61c0,3.41-.73,6.36-2.17,8.86-1.44,2.5-3.44,4.43-5.98,5.78s-5.45,2.03-8.72,2.03c-3.67,0-6.88-.85-9.65-2.53-2.76-1.69-4.91-4.08-6.46-7.2-1.54-3.1-2.31-6.8-2.31-11.07,0-3.23.45-6.13,1.35-8.7.89-2.57,2.16-4.75,3.79-6.56s3.55-3.18,5.76-4.13c2.21-.96,4.63-1.44,7.25-1.44,2.19,0,4.23.33,6.13.97,1.89.65,3.58,1.56,5.07,2.75s2.71,2.59,3.69,4.23,1.64,3.43,1.98,5.41h-6.29Z"/>
    <path class="st7" d="M343.34,2022.97c-2.99,0-5.57-.65-7.73-1.93-2.15-1.28-3.82-3.1-4.99-5.44-1.16-2.34-1.76-5.09-1.76-8.24s.58-5.86,1.76-8.23c1.16-2.38,2.8-4.23,4.91-5.56,2.11-1.33,4.57-2,7.39-2,1.72,0,3.37.29,4.99.85s3.06,1.46,4.33,2.67,2.29,2.78,3.02,4.72c.74,1.93,1.11,4.28,1.11,7.04v2.1h-24.16v-4.44h18.36c0-1.56-.32-2.94-.95-4.15-.63-1.2-1.52-2.16-2.66-2.86-1.14-.7-2.47-1.05-4-1.05-1.66,0-3.11.41-4.34,1.22-1.24.81-2.19,1.87-2.85,3.17-.67,1.3-1,2.7-1,4.23v3.46c0,2.03.36,3.76,1.08,5.19s1.72,2.51,3.02,3.25c1.29.74,2.8,1.12,4.53,1.12,1.12,0,2.15-.16,3.06-.49.93-.33,1.72-.81,2.39-1.45s1.19-1.44,1.54-2.39l5.6,1.01c-.45,1.65-1.25,3.09-2.4,4.32s-2.6,2.19-4.33,2.87-3.71,1.02-5.93,1.02v-.02Z"/>
    <path class="st7" d="M376.08,2022.97c-2.99,0-5.57-.65-7.73-1.93-2.15-1.28-3.82-3.1-4.99-5.44-1.16-2.34-1.76-5.09-1.76-8.24s.58-5.86,1.76-8.23c1.16-2.38,2.8-4.23,4.91-5.56,2.11-1.33,4.57-2,7.39-2,1.72,0,3.37.29,4.99.85s3.06,1.46,4.33,2.67,2.29,2.78,3.02,4.72c.74,1.93,1.11,4.28,1.11,7.04v2.1h-24.16v-4.44h18.36c0-1.56-.32-2.94-.95-4.15-.63-1.2-1.52-2.16-2.66-2.86-1.14-.7-2.47-1.05-4-1.05-1.66,0-3.11.41-4.34,1.22-1.24.81-2.19,1.87-2.85,3.17-.67,1.3-1,2.7-1,4.23v3.46c0,2.03.36,3.76,1.08,5.19s1.72,2.51,3.02,3.25c1.29.74,2.8,1.12,4.53,1.12,1.12,0,2.15-.16,3.06-.49.93-.33,1.72-.81,2.39-1.45s1.19-1.44,1.54-2.39l5.6,1.01c-.45,1.65-1.25,3.09-2.4,4.32s-2.6,2.19-4.33,2.87-3.71,1.02-5.93,1.02v-.02Z"/>
    <path class="st7" d="M401.62,2004.31v18.05h-5.92v-30.4h5.68v4.95h.37c.7-1.61,1.8-2.9,3.29-3.88,1.5-.97,3.39-1.47,5.67-1.47,2.07,0,3.89.43,5.44,1.29s2.76,2.15,3.62,3.85,1.28,3.81,1.28,6.31v19.33h-5.92v-18.62c0-2.2-.57-3.93-1.72-5.18s-2.72-1.87-4.73-1.87c-1.37,0-2.59.3-3.65.89s-1.9,1.46-2.51,2.6-.92,2.51-.92,4.12v.02Z"/>
    <path class="st7" d="M452.59,2023.03c-1.92,0-3.67-.36-5.23-1.08-1.56-.72-2.78-1.76-3.69-3.14-.9-1.37-1.36-3.06-1.36-5.05,0-1.72.33-3.13.99-4.24.66-1.11,1.55-1.99,2.67-2.63s2.38-1.13,3.76-1.47c1.39-.33,2.8-.58,4.24-.75,1.82-.21,3.29-.38,4.44-.53,1.13-.14,1.96-.37,2.47-.69s.77-.83.77-1.54v-.14c0-1.73-.49-3.06-1.45-4.02s-2.41-1.43-4.32-1.43-3.56.44-4.7,1.32-1.93,1.85-2.36,2.92l-5.56-1.27c.66-1.84,1.63-3.34,2.9-4.48,1.28-1.14,2.74-1.97,4.4-2.49s3.41-.78,5.24-.78c1.21,0,2.51.14,3.87.42,1.36.29,2.64.8,3.84,1.56s2.17,1.83,2.94,3.22c.77,1.4,1.15,3.2,1.15,5.41v20.18h-5.78v-4.16h-.24c-.38.77-.96,1.52-1.72,2.26s-1.75,1.36-2.95,1.84c-1.2.49-2.64.73-4.32.73h0ZM453.87,2018.28c1.64,0,3.04-.33,4.2-.97s2.06-1.49,2.67-2.54c.61-1.05.92-2.17.92-3.37v-3.92c-.21.21-.61.41-1.22.58-.6.18-1.28.33-2.05.45s-1.51.24-2.23.34-1.33.18-1.82.25c-1.15.14-2.19.39-3.14.73s-1.69.84-2.26,1.48c-.56.64-.84,1.48-.84,2.54,0,1.46.54,2.57,1.62,3.31,1.08.74,2.46,1.12,4.13,1.12h0Z"/>
    <path class="st7" d="M488.27,2022.97c-2.94,0-5.47-.67-7.59-2.01-2.11-1.34-3.74-3.19-4.87-5.55-1.13-2.36-1.7-5.07-1.7-8.11s.58-5.82,1.74-8.19,2.8-4.22,4.91-5.55c2.11-1.33,4.6-2,7.46-2,2.31,0,4.36.42,6.17,1.28s3.27,2.04,4.38,3.57c1.12,1.53,1.78,3.32,1.99,5.36h-5.76c-.32-1.43-1.04-2.65-2.17-3.68-1.12-1.03-2.63-1.54-4.52-1.54-1.65,0-3.09.43-4.32,1.29-1.24.86-2.19,2.09-2.88,3.68s-1.03,3.46-1.03,5.63.34,4.13,1.01,5.74,1.63,2.86,2.86,3.74,2.69,1.32,4.36,1.32c1.12,0,2.14-.21,3.06-.62s1.69-1.01,2.31-1.8c.63-.78,1.07-1.72,1.32-2.81h5.76c-.21,1.96-.85,3.72-1.92,5.27s-2.5,2.76-4.28,3.64c-1.79.89-3.89,1.32-6.29,1.32l.02.02Z"/>
    <path class="st7" d="M519.91,2022.97c-2.94,0-5.47-.67-7.59-2.01-2.11-1.34-3.74-3.19-4.87-5.55-1.13-2.36-1.7-5.07-1.7-8.11s.58-5.82,1.74-8.19,2.8-4.22,4.91-5.55c2.11-1.33,4.6-2,7.46-2,2.31,0,4.36.42,6.17,1.28s3.27,2.04,4.38,3.57c1.12,1.53,1.78,3.32,1.99,5.36h-5.76c-.32-1.43-1.04-2.65-2.17-3.68-1.12-1.03-2.63-1.54-4.52-1.54-1.65,0-3.09.43-4.32,1.29-1.24.86-2.19,2.09-2.88,3.68s-1.03,3.46-1.03,5.63.34,4.13,1.01,5.74,1.63,2.86,2.86,3.74,2.69,1.32,4.36,1.32c1.12,0,2.14-.21,3.06-.62s1.69-1.01,2.31-1.8c.63-.78,1.07-1.72,1.32-2.81h5.76c-.21,1.96-.85,3.72-1.92,5.27s-2.5,2.76-4.28,3.64c-1.79.89-3.89,1.32-6.29,1.32l.02.02Z"/>
    <path class="st7" d="M551.55,2022.97c-2.85,0-5.34-.65-7.46-1.96s-3.77-3.14-4.95-5.48-1.76-5.09-1.76-8.23.59-5.91,1.76-8.27c1.17-2.36,2.82-4.2,4.95-5.5,2.12-1.31,4.61-1.96,7.46-1.96s5.34.65,7.46,1.96,3.77,3.14,4.95,5.5c1.17,2.36,1.76,5.12,1.76,8.27s-.59,5.89-1.76,8.23c-1.17,2.35-2.82,4.17-4.95,5.48-2.12,1.31-4.61,1.96-7.46,1.96ZM551.56,2018c1.84,0,3.37-.49,4.59-1.46s2.11-2.27,2.7-3.9c.59-1.62.88-3.41.88-5.36s-.3-3.73-.88-5.35c-.59-1.63-1.48-2.94-2.7-3.93-1.21-.99-2.74-1.48-4.59-1.48s-3.4.49-4.62,1.48-2.12,2.3-2.71,3.93c-.59,1.63-.88,3.41-.88,5.35s.3,3.74.88,5.36c.59,1.62,1.49,2.92,2.71,3.9s2.76,1.46,4.62,1.46Z"/>
    <path class="st7" d="M591.55,2009.75v-17.79h5.94v30.4h-5.82v-5.27h-.32c-.7,1.62-1.82,2.97-3.35,4.04s-3.45,1.61-5.73,1.61c-1.95,0-3.68-.43-5.18-1.29s-2.67-2.15-3.53-3.85-1.28-3.81-1.28-6.31v-19.33h5.92v18.62c0,2.07.57,3.72,1.72,4.95s2.64,1.84,4.48,1.84c1.11,0,2.21-.28,3.31-.83s2.02-1.39,2.75-2.51,1.09-2.54,1.08-4.28h0Z"/>
    <path class="st7" d="M611.34,2004.31v18.05h-5.92v-30.4h5.68v4.95h.37c.7-1.61,1.8-2.9,3.29-3.88,1.5-.97,3.39-1.47,5.67-1.47,2.07,0,3.89.43,5.44,1.29s2.76,2.15,3.62,3.85c.85,1.7,1.28,3.81,1.28,6.31v19.33h-5.92v-18.62c0-2.2-.57-3.93-1.72-5.18s-2.73-1.87-4.73-1.87c-1.37,0-2.59.3-3.65.89-1.06.59-1.9,1.46-2.51,2.6s-.92,2.51-.92,4.12v.02Z"/>
    <path class="st7" d="M652.9,1991.96v4.75h-16.6v-4.75h16.6ZM640.75,1984.69h5.92v28.75c0,1.15.17,2.01.52,2.58.34.57.79.97,1.33,1.16.55.21,1.14.3,1.79.3.48,0,.89-.03,1.24-.1.36-.06.63-.12.83-.16l1.07,4.89c-.34.14-.83.26-1.47.41-.63.14-1.43.22-2.38.23-1.56.02-3.01-.25-4.36-.83s-2.43-1.48-3.26-2.69-1.24-2.74-1.24-4.57v-29.98h0Z"/>
    <path class="st7" d="M680.1,2004.31v18.05h-5.92v-30.4h5.68v4.95h.37c.7-1.61,1.8-2.9,3.29-3.88,1.5-.97,3.39-1.47,5.67-1.47,2.07,0,3.89.43,5.44,1.29s2.76,2.15,3.62,3.85c.85,1.7,1.28,3.81,1.28,6.31v19.33h-5.92v-18.62c0-2.2-.57-3.93-1.72-5.18s-2.73-1.87-4.73-1.87c-1.37,0-2.59.3-3.65.89-1.06.59-1.9,1.46-2.51,2.6s-.92,2.51-.92,4.12v.02Z"/>
    <path class="st7" d="M720.27,2022.97c-2.85,0-5.34-.65-7.46-1.96s-3.77-3.14-4.95-5.48-1.76-5.09-1.76-8.23.59-5.91,1.76-8.27c1.17-2.36,2.82-4.2,4.95-5.5,2.12-1.31,4.61-1.96,7.46-1.96s5.34.65,7.46,1.96,3.77,3.14,4.95,5.5c1.17,2.36,1.76,5.12,1.76,8.27s-.59,5.89-1.76,8.23-2.82,4.17-4.95,5.48-4.61,1.96-7.46,1.96ZM720.28,2018c1.84,0,3.37-.49,4.59-1.46s2.11-2.27,2.7-3.9c.59-1.62.88-3.41.88-5.36s-.3-3.73-.88-5.35c-.59-1.63-1.48-2.94-2.7-3.93s-2.74-1.48-4.59-1.48-3.4.49-4.62,1.48c-1.22.99-2.12,2.3-2.71,3.93-.59,1.63-.88,3.41-.88,5.35s.3,3.74.88,5.36c.59,1.62,1.49,2.92,2.71,3.9,1.22.97,2.76,1.46,4.62,1.46Z"/>
    <path class="st7" d="M752.4,2022.95c-2.46,0-4.64-.63-6.56-1.89-1.92-1.26-3.42-3.06-4.52-5.4-1.08-2.35-1.64-5.15-1.64-8.44s.55-6.09,1.65-8.43,2.62-4.12,4.54-5.36,4.11-1.86,6.55-1.86c1.88,0,3.41.31,4.56.94s2.05,1.36,2.69,2.19,1.14,1.56,1.49,2.19h.36v-15.06h5.92v40.53h-5.78v-4.73h-.49c-.36.65-.87,1.39-1.53,2.22-.67.83-1.58,1.56-2.74,2.18s-2.66.93-4.52.93h0ZM753.71,2017.91c1.7,0,3.14-.45,4.32-1.36s2.07-2.16,2.69-3.77.92-3.49.92-5.62-.3-3.96-.91-5.54-1.5-2.82-2.67-3.7c-1.17-.89-2.62-1.32-4.36-1.32s-3.26.46-4.45,1.39-2.08,2.19-2.68,3.78-.9,3.4-.9,5.4.3,3.86.91,5.48,1.51,2.9,2.7,3.85c1.2.94,2.66,1.41,4.42,1.41h0Z"/>
    <path class="st7" d="M778.87,1987.28c-1.03,0-1.91-.34-2.64-1.04s-1.1-1.52-1.1-2.48.37-1.81,1.1-2.5c.73-.69,1.61-1.04,2.64-1.04s1.91.34,2.64,1.04,1.1,1.52,1.1,2.48-.37,1.81-1.1,2.5c-.73.69-1.61,1.04-2.64,1.04ZM775.89,2022.36v-30.4h5.92v30.4h-5.92Z"/>
    <path class="st7" d="M802.5,2034.39c-2.42,0-4.49-.32-6.22-.95s-3.15-1.47-4.24-2.51c-1.09-1.05-1.91-2.19-2.46-3.42l5.09-2.1c.36.58.84,1.2,1.44,1.85s1.42,1.21,2.46,1.68,2.37.69,4,.69c2.24,0,4.09-.54,5.56-1.64,1.46-1.09,2.19-2.82,2.19-5.19v-5.98h-.37c-.36.65-.87,1.36-1.53,2.15s-1.58,1.48-2.74,2.06-2.67.87-4.53.87c-2.4,0-4.56-.57-6.48-1.69-1.92-1.12-3.44-2.79-4.55-5-1.12-2.21-1.68-4.93-1.68-8.16s.55-6,1.65-8.31c1.1-2.31,2.62-4.08,4.54-5.31s4.11-1.85,6.55-1.85c1.88,0,3.41.31,4.57.94s2.07,1.36,2.72,2.19c.65.83,1.16,1.56,1.52,2.19h.44v-4.93h5.8v31.07c0,2.61-.61,4.75-1.82,6.43s-2.86,2.91-4.91,3.72c-2.07.81-4.39,1.2-6.97,1.2h-.02ZM802.44,2017c1.7,0,3.14-.4,4.32-1.2s2.07-1.95,2.69-3.45c.61-1.5.92-3.29.92-5.39s-.3-3.85-.91-5.4-1.5-2.78-2.67-3.65-2.62-1.32-4.36-1.32-3.26.46-4.45,1.37-2.08,2.16-2.68,3.73c-.6,1.57-.9,3.33-.9,5.27s.3,3.74.91,5.24c.61,1.5,1.51,2.68,2.7,3.53,1.2.85,2.66,1.27,4.42,1.27h0Z"/>
    <path class="st7" d="M292.53,2082.66l11.28,33h.45l11.28-33h6.61l-14.58,40.53h-7.06l-14.58-40.53h6.61Z"/>
    <path class="st7" d="M337.27,2123.8c-2.85,0-5.34-.65-7.46-1.96s-3.77-3.14-4.95-5.48-1.76-5.09-1.76-8.23.59-5.91,1.76-8.27c1.17-2.36,2.82-4.2,4.95-5.5,2.12-1.31,4.61-1.96,7.46-1.96s5.34.65,7.46,1.96,3.77,3.14,4.95,5.5c1.17,2.36,1.76,5.12,1.76,8.27s-.59,5.89-1.76,8.23c-1.17,2.35-2.82,4.17-4.95,5.48-2.12,1.31-4.61,1.96-7.46,1.96ZM337.29,2118.83c1.84,0,3.37-.49,4.59-1.46s2.11-2.27,2.7-3.9c.59-1.62.88-3.41.88-5.36s-.3-3.73-.88-5.35c-.59-1.63-1.48-2.94-2.7-3.93-1.21-.99-2.74-1.48-4.59-1.48s-3.4.49-4.62,1.48-2.12,2.3-2.71,3.93-.88,3.41-.88,5.35.3,3.74.88,5.36c.59,1.62,1.49,2.92,2.71,3.9s2.76,1.46,4.62,1.46Z"/>
    <path class="st7" d="M363.94,2082.66v40.53h-5.92v-40.53h5.92Z"/>
    <path class="st7" d="M377.81,2082.66v40.53h-5.92v-40.53h5.92Z"/>
    <path class="st7" d="M398.87,2123.8c-2.99,0-5.57-.65-7.73-1.93-2.15-1.28-3.82-3.1-4.99-5.44-1.16-2.34-1.76-5.09-1.76-8.24s.58-5.86,1.76-8.23c1.16-2.38,2.8-4.23,4.91-5.56,2.11-1.33,4.57-2,7.39-2,1.72,0,3.37.29,4.99.85s3.06,1.46,4.33,2.67,2.29,2.78,3.02,4.72c.74,1.93,1.11,4.28,1.11,7.04v2.1h-24.16v-4.44h18.36c0-1.56-.32-2.94-.95-4.15-.63-1.2-1.52-2.16-2.66-2.86-1.14-.7-2.47-1.05-4-1.05-1.66,0-3.11.41-4.34,1.22-1.24.81-2.19,1.87-2.85,3.17-.67,1.3-1,2.7-1,4.23v3.46c0,2.03.36,3.76,1.08,5.19s1.72,2.51,3.02,3.25c1.29.74,2.8,1.12,4.53,1.12,1.12,0,2.15-.16,3.06-.49.93-.33,1.72-.81,2.39-1.45s1.19-1.44,1.54-2.39l5.6,1.01c-.45,1.65-1.25,3.09-2.4,4.32s-2.6,2.19-4.33,2.87-3.71,1.02-5.93,1.02v-.02Z"/>
    <path class="st7" d="M429.88,2123.78c-2.46,0-4.64-.63-6.56-1.89-1.92-1.26-3.42-3.06-4.52-5.4-1.08-2.35-1.64-5.15-1.64-8.44s.55-6.09,1.65-8.43c1.1-2.34,2.62-4.12,4.54-5.36s4.11-1.86,6.55-1.86c1.88,0,3.41.31,4.56.94s2.05,1.36,2.69,2.19,1.14,1.56,1.49,2.19h.36v-15.06h5.92v40.53h-5.78v-4.73h-.49c-.36.65-.87,1.39-1.53,2.22-.66.83-1.58,1.56-2.74,2.18s-2.66.93-4.52.93h0ZM431.18,2118.74c1.7,0,3.14-.45,4.32-1.36s2.07-2.16,2.69-3.77.92-3.49.92-5.62-.3-3.96-.91-5.54-1.5-2.82-2.67-3.7c-1.17-.89-2.62-1.32-4.36-1.32s-3.26.46-4.45,1.39-2.08,2.19-2.68,3.78-.9,3.4-.9,5.4.3,3.86.91,5.48,1.51,2.9,2.7,3.85c1.2.94,2.66,1.41,4.42,1.41h0Z"/>
    <path class="st7" d="M456.35,2088.1c-1.03,0-1.91-.34-2.64-1.04-.73-.69-1.1-1.52-1.1-2.48s.37-1.81,1.1-2.5c.73-.69,1.61-1.04,2.64-1.04s1.91.34,2.64,1.04c.73.69,1.1,1.52,1.1,2.48s-.37,1.81-1.1,2.5c-.73.69-1.61,1.04-2.64,1.04ZM453.36,2123.19v-30.4h5.92v30.4h-5.92Z"/>
    <path class="st7" d="M479.98,2135.22c-2.42,0-4.49-.32-6.22-.95-1.73-.63-3.15-1.47-4.24-2.51-1.09-1.05-1.91-2.19-2.46-3.42l5.08-2.1c.36.58.84,1.2,1.44,1.85s1.42,1.21,2.46,1.68,2.37.69,4,.69c2.24,0,4.09-.54,5.56-1.64s2.19-2.82,2.19-5.19v-5.98h-.37c-.36.65-.87,1.36-1.53,2.15-.67.79-1.58,1.48-2.74,2.06s-2.67.87-4.53.87c-2.4,0-4.56-.57-6.48-1.69-1.92-1.12-3.44-2.79-4.55-5-1.12-2.21-1.68-4.93-1.68-8.16s.55-6,1.65-8.31c1.1-2.31,2.62-4.08,4.54-5.31,1.92-1.24,4.11-1.85,6.55-1.85,1.88,0,3.41.31,4.57.94,1.16.63,2.07,1.36,2.72,2.19s1.16,1.56,1.52,2.19h.44v-4.93h5.8v31.07c0,2.61-.61,4.75-1.82,6.43s-2.86,2.91-4.91,3.72c-2.07.81-4.39,1.2-6.97,1.2h0ZM479.91,2117.83c1.7,0,3.14-.4,4.32-1.2s2.07-1.95,2.69-3.45c.61-1.5.92-3.29.92-5.39s-.3-3.85-.91-5.4-1.5-2.78-2.67-3.65-2.62-1.32-4.36-1.32-3.26.46-4.45,1.37c-1.19.92-2.08,2.16-2.68,3.73-.6,1.57-.9,3.33-.9,5.27s.3,3.74.91,5.24c.61,1.5,1.51,2.68,2.7,3.53,1.2.85,2.66,1.27,4.42,1.27h0Z"/>
    <path class="st7" d="M529.13,2135.22c-2.42,0-4.49-.32-6.22-.95-1.73-.63-3.15-1.47-4.24-2.51-1.09-1.05-1.91-2.19-2.46-3.42l5.08-2.1c.36.58.84,1.2,1.44,1.85s1.42,1.21,2.46,1.68,2.37.69,4,.69c2.24,0,4.09-.54,5.56-1.64s2.19-2.82,2.19-5.19v-5.98h-.37c-.36.65-.87,1.36-1.53,2.15-.67.79-1.58,1.48-2.74,2.06s-2.67.87-4.53.87c-2.4,0-4.56-.57-6.48-1.69-1.92-1.12-3.44-2.79-4.55-5-1.12-2.21-1.68-4.93-1.68-8.16s.55-6,1.65-8.31c1.1-2.31,2.62-4.08,4.54-5.31,1.92-1.24,4.11-1.85,6.55-1.85,1.88,0,3.41.31,4.57.94,1.16.63,2.07,1.36,2.72,2.19.65.83,1.16,1.56,1.52,2.19h.44v-4.93h5.8v31.07c0,2.61-.61,4.75-1.82,6.43s-2.86,2.91-4.91,3.72c-2.07.81-4.39,1.2-6.97,1.2h0ZM529.06,2117.83c1.7,0,3.14-.4,4.32-1.2s2.07-1.95,2.69-3.45c.61-1.5.92-3.29.92-5.39s-.3-3.85-.91-5.4-1.5-2.78-2.67-3.65-2.62-1.32-4.36-1.32-3.26.46-4.45,1.37c-1.19.92-2.08,2.16-2.68,3.73-.6,1.57-.9,3.33-.9,5.27s.3,3.74.91,5.24c.61,1.5,1.51,2.68,2.7,3.53,1.2.85,2.66,1.27,4.42,1.27h0Z"/>
    <path class="st7" d="M550.77,2123.19v-30.4h5.72v4.83h.32c.55-1.64,1.53-2.93,2.94-3.87,1.4-.94,3-1.41,4.78-1.41.37,0,.81.02,1.32.04s.91.06,1.2.1v5.66c-.24-.06-.66-.14-1.27-.23s-1.21-.13-1.82-.13c-1.4,0-2.64.3-3.73.88-1.08.59-1.95,1.4-2.58,2.43-.63,1.04-.95,2.21-.95,3.53v18.56h-5.92,0Z"/>
    <path class="st7" d="M580.75,2123.86c-1.92,0-3.67-.36-5.23-1.08-1.56-.72-2.78-1.76-3.69-3.14-.9-1.37-1.36-3.06-1.36-5.05,0-1.72.33-3.13.99-4.24.66-1.11,1.55-1.99,2.67-2.63s2.38-1.13,3.76-1.47c1.39-.33,2.8-.58,4.24-.75,1.82-.21,3.29-.38,4.44-.53,1.13-.14,1.96-.37,2.47-.69s.77-.83.77-1.54v-.14c0-1.73-.49-3.06-1.45-4.02s-2.41-1.43-4.32-1.43-3.56.44-4.7,1.32-1.93,1.85-2.36,2.92l-5.56-1.27c.66-1.84,1.63-3.34,2.9-4.48,1.28-1.14,2.74-1.97,4.4-2.49s3.41-.78,5.24-.78c1.21,0,2.51.14,3.87.42,1.36.29,2.64.8,3.84,1.56s2.17,1.83,2.94,3.22c.77,1.4,1.15,3.2,1.15,5.41v20.18h-5.78v-4.16h-.24c-.38.77-.96,1.52-1.72,2.26s-1.75,1.36-2.95,1.84c-1.2.49-2.64.73-4.32.73h0ZM582.04,2119.11c1.64,0,3.04-.33,4.2-.97s2.06-1.49,2.67-2.54c.61-1.05.92-2.17.92-3.37v-3.92c-.21.21-.61.41-1.22.58-.6.18-1.28.33-2.05.45s-1.51.24-2.23.34-1.33.18-1.82.25c-1.15.14-2.19.39-3.14.73s-1.69.84-2.26,1.48c-.56.64-.84,1.48-.84,2.54,0,1.46.54,2.57,1.62,3.31,1.08.74,2.46,1.12,4.13,1.12h0Z"/>
    <path class="st7" d="M617.81,2092.79v4.75h-16.6v-4.75h16.6ZM605.66,2085.51h5.92v28.75c0,1.15.17,2.01.52,2.58.34.57.79.97,1.33,1.16.55.21,1.14.3,1.79.3.48,0,.89-.03,1.24-.1.36-.06.63-.12.83-.16l1.07,4.89c-.34.14-.83.26-1.47.41-.63.14-1.43.22-2.38.23-1.56.02-3.01-.25-4.36-.83s-2.43-1.48-3.26-2.69-1.24-2.74-1.24-4.57v-29.98h0Z"/>
    <path class="st7" d="M627.33,2088.1c-1.03,0-1.91-.34-2.64-1.04s-1.1-1.52-1.1-2.48.37-1.81,1.1-2.5c.73-.69,1.61-1.04,2.64-1.04s1.91.34,2.64,1.04,1.1,1.52,1.1,2.48-.37,1.81-1.1,2.5c-.73.69-1.61,1.04-2.64,1.04ZM624.34,2123.19v-30.4h5.92v30.4h-5.92Z"/>
    <path class="st7" d="M660.99,2100.21l-5.36.95c-.22-.69-.57-1.34-1.06-1.96-.48-.62-1.13-1.12-1.95-1.52s-1.84-.59-3.06-.59c-1.68,0-3.07.37-4.2,1.12-1.12.74-1.68,1.71-1.68,2.88,0,1.01.37,1.83,1.12,2.46s1.96,1.12,3.64,1.52l4.83,1.11c2.8.65,4.88,1.64,6.25,2.99s2.06,3.1,2.06,5.24c0,1.82-.53,3.44-1.57,4.86s-2.51,2.53-4.37,3.33-4.03,1.2-6.48,1.2c-3.41,0-6.18-.73-8.33-2.19-2.15-1.46-3.47-3.53-3.96-6.22l5.72-.87c.36,1.49,1.08,2.62,2.19,3.37s2.55,1.14,4.33,1.14c1.94,0,3.49-.41,4.65-1.22s1.74-1.8,1.74-2.98c0-.95-.35-1.75-1.06-2.39s-1.79-1.13-3.23-1.47l-5.15-1.12c-2.84-.65-4.93-1.68-6.29-3.09s-2.03-3.2-2.03-5.36c0-1.8.5-3.37,1.5-4.71s2.39-2.39,4.16-3.16,3.79-1.14,6.07-1.14c3.29,0,5.87.71,7.75,2.13,1.88,1.42,3.14,3.31,3.74,5.69h0Z"/>
    <path class="st7" d="M316.42,2196.3c-.38-1.2-.89-2.28-1.53-3.24s-1.4-1.77-2.28-2.46-1.89-1.2-3.02-1.56-2.36-.53-3.71-.53c-2.28,0-4.34.59-6.17,1.76s-3.28,2.89-4.34,5.15-1.6,5.03-1.6,8.3.53,6.06,1.6,8.33c1.07,2.27,2.53,3.99,4.4,5.16,1.86,1.17,3.98,1.76,6.35,1.76,2.2,0,4.12-.45,5.77-1.35s2.91-2.17,3.82-3.81c.9-1.64,1.36-3.58,1.36-5.81l1.58.3h-11.59v-5.04h15.93v4.61c0,3.41-.73,6.36-2.17,8.86-1.44,2.5-3.44,4.43-5.98,5.78s-5.45,2.03-8.72,2.03c-3.67,0-6.88-.85-9.65-2.53-2.76-1.69-4.91-4.08-6.46-7.2-1.54-3.1-2.31-6.8-2.31-11.07,0-3.23.45-6.13,1.35-8.7.89-2.57,2.16-4.75,3.79-6.56s3.55-3.18,5.76-4.13c2.21-.96,4.63-1.44,7.25-1.44,2.19,0,4.23.33,6.13.97,1.89.65,3.58,1.56,5.07,2.75s2.71,2.59,3.69,4.23,1.64,3.43,1.98,5.41h-6.29Z"/>
    <path class="st7" d="M343.34,2224.63c-2.99,0-5.57-.65-7.73-1.93-2.15-1.28-3.82-3.1-4.99-5.44-1.16-2.34-1.76-5.09-1.76-8.24s.58-5.86,1.76-8.23c1.16-2.38,2.8-4.23,4.91-5.56,2.11-1.33,4.57-2,7.39-2,1.72,0,3.37.29,4.99.85s3.06,1.46,4.33,2.67,2.29,2.78,3.02,4.72c.74,1.93,1.11,4.28,1.11,7.04v2.1h-24.16v-4.44h18.36c0-1.56-.32-2.94-.95-4.15-.63-1.2-1.52-2.16-2.66-2.86-1.14-.7-2.47-1.05-4-1.05-1.66,0-3.11.41-4.34,1.22-1.24.81-2.19,1.87-2.85,3.17-.67,1.3-1,2.7-1,4.23v3.46c0,2.03.36,3.76,1.08,5.19s1.72,2.51,3.02,3.25c1.29.74,2.8,1.12,4.53,1.12,1.12,0,2.15-.16,3.06-.49.93-.33,1.72-.81,2.39-1.45s1.19-1.44,1.54-2.39l5.6,1.01c-.45,1.65-1.25,3.09-2.4,4.32s-2.6,2.19-4.33,2.87-3.71,1.02-5.93,1.02v-.02Z"/>
    <path class="st7" d="M376.08,2224.63c-2.99,0-5.57-.65-7.73-1.93-2.15-1.28-3.82-3.1-4.99-5.44-1.16-2.34-1.76-5.09-1.76-8.24s.58-5.86,1.76-8.23c1.16-2.38,2.8-4.23,4.91-5.56,2.11-1.33,4.57-2,7.39-2,1.72,0,3.37.29,4.99.85s3.06,1.46,4.33,2.67,2.29,2.78,3.02,4.72c.74,1.93,1.11,4.28,1.11,7.04v2.1h-24.16v-4.44h18.36c0-1.56-.32-2.94-.95-4.15-.63-1.2-1.52-2.16-2.66-2.86-1.14-.7-2.47-1.05-4-1.05-1.66,0-3.11.41-4.34,1.22-1.24.81-2.19,1.87-2.85,3.17-.67,1.3-1,2.7-1,4.23v3.46c0,2.03.36,3.76,1.08,5.19s1.72,2.51,3.02,3.25c1.29.74,2.8,1.12,4.53,1.12,1.12,0,2.15-.16,3.06-.49.93-.33,1.72-.81,2.39-1.45s1.19-1.44,1.54-2.39l5.6,1.01c-.45,1.65-1.25,3.09-2.4,4.32s-2.6,2.19-4.33,2.87-3.71,1.02-5.93,1.02v-.02Z"/>
    <path class="st7" d="M401.62,2205.97v18.05h-5.92v-30.4h5.68v4.95h.37c.7-1.61,1.8-2.9,3.29-3.88,1.5-.97,3.39-1.47,5.67-1.47,2.07,0,3.89.43,5.44,1.29s2.76,2.15,3.62,3.85,1.28,3.81,1.28,6.31v19.33h-5.92v-18.62c0-2.2-.57-3.93-1.72-5.18s-2.72-1.87-4.73-1.87c-1.37,0-2.59.3-3.65.89s-1.9,1.46-2.51,2.6-.92,2.51-.92,4.12v.02Z"/>
    <path class="st7" d="M452.59,2224.69c-1.92,0-3.67-.36-5.23-1.08-1.56-.72-2.78-1.76-3.69-3.14-.9-1.37-1.36-3.06-1.36-5.05,0-1.72.33-3.13.99-4.24.66-1.11,1.55-1.99,2.67-2.63s2.38-1.13,3.76-1.47c1.39-.33,2.8-.58,4.24-.75,1.82-.21,3.29-.38,4.44-.53,1.13-.14,1.96-.37,2.47-.69s.77-.83.77-1.54v-.14c0-1.73-.49-3.06-1.45-4.02s-2.41-1.43-4.32-1.43-3.56.44-4.7,1.32-1.93,1.85-2.36,2.92l-5.56-1.27c.66-1.84,1.63-3.34,2.9-4.48,1.28-1.14,2.74-1.97,4.4-2.49s3.41-.78,5.24-.78c1.21,0,2.51.14,3.87.42,1.36.29,2.64.8,3.84,1.56s2.17,1.83,2.94,3.22c.77,1.4,1.15,3.2,1.15,5.41v20.18h-5.78v-4.16h-.24c-.38.77-.96,1.52-1.72,2.26s-1.75,1.36-2.95,1.84c-1.2.49-2.64.73-4.32.73h0ZM453.87,2219.94c1.64,0,3.04-.33,4.2-.97s2.06-1.49,2.67-2.54c.61-1.05.92-2.17.92-3.37v-3.92c-.21.21-.61.41-1.22.58-.6.18-1.28.33-2.05.45s-1.51.24-2.23.34-1.33.18-1.82.25c-1.15.14-2.19.39-3.14.73s-1.69.84-2.26,1.48c-.56.64-.84,1.48-.84,2.54,0,1.46.54,2.57,1.62,3.31,1.08.74,2.46,1.12,4.13,1.12h0Z"/>
    <path class="st7" d="M486.84,2224.61c-2.46,0-4.64-.63-6.56-1.89-1.92-1.26-3.42-3.06-4.52-5.4-1.08-2.35-1.64-5.15-1.64-8.44s.55-6.09,1.65-8.43c1.1-2.34,2.62-4.12,4.54-5.36s4.11-1.86,6.55-1.86c1.88,0,3.41.31,4.56.94s2.05,1.36,2.69,2.19,1.14,1.56,1.49,2.19h.36v-15.06h5.92v40.53h-5.78v-4.73h-.49c-.36.65-.87,1.39-1.53,2.22-.66.83-1.58,1.56-2.74,2.18s-2.66.93-4.52.93h0ZM488.15,2219.56c1.7,0,3.14-.45,4.32-1.36s2.07-2.16,2.69-3.77.92-3.49.92-5.62-.3-3.96-.91-5.54-1.5-2.82-2.67-3.7c-1.17-.89-2.62-1.32-4.36-1.32s-3.26.46-4.45,1.39-2.08,2.19-2.68,3.78-.9,3.4-.9,5.4.3,3.86.91,5.48,1.51,2.9,2.7,3.85c1.2.94,2.66,1.41,4.42,1.41h0Z"/>
    <path class="st7" d="M536.32,2193.62l-11.03,30.4h-6.33l-11.04-30.4h6.35l7.7,23.39h.32l7.67-23.39h6.36Z"/>
    <path class="st7" d="M553.92,2224.63c-2.99,0-5.57-.65-7.73-1.93-2.15-1.28-3.82-3.1-4.99-5.44-1.16-2.34-1.76-5.09-1.76-8.24s.58-5.86,1.76-8.23c1.16-2.38,2.8-4.23,4.91-5.56s4.57-2,7.39-2c1.72,0,3.37.29,4.99.85s3.06,1.46,4.33,2.67,2.29,2.78,3.02,4.72c.74,1.93,1.11,4.28,1.11,7.04v2.1h-24.16v-4.44h18.36c0-1.56-.32-2.94-.95-4.15-.63-1.2-1.52-2.16-2.66-2.86-1.14-.7-2.47-1.05-4-1.05-1.66,0-3.11.41-4.34,1.22-1.24.81-2.19,1.87-2.85,3.17-.67,1.3-1,2.7-1,4.23v3.46c0,2.03.36,3.76,1.08,5.19.72,1.43,1.72,2.51,3.02,3.25,1.29.74,2.8,1.12,4.53,1.12,1.12,0,2.15-.16,3.06-.49.93-.33,1.72-.81,2.39-1.45s1.19-1.44,1.54-2.39l5.6,1.01c-.45,1.65-1.25,3.09-2.4,4.32s-2.6,2.19-4.33,2.87-3.71,1.02-5.93,1.02v-.02Z"/>
    <path class="st7" d="M573.55,2224.01v-30.4h5.72v4.83h.32c.55-1.64,1.53-2.93,2.94-3.87,1.4-.94,3-1.41,4.78-1.41.37,0,.81.02,1.32.04s.91.06,1.2.1v5.66c-.24-.06-.66-.14-1.27-.23s-1.21-.13-1.82-.13c-1.4,0-2.64.3-3.73.88-1.08.59-1.95,1.4-2.58,2.43-.63,1.04-.95,2.21-.95,3.53v18.56h-5.92,0Z"/>
    <path class="st7" d="M610.92,2193.62v4.75h-16.6v-4.75h16.6ZM598.77,2186.34h5.92v28.75c0,1.15.17,2.01.52,2.58.34.57.79.97,1.33,1.16.55.21,1.14.3,1.79.3.48,0,.89-.03,1.24-.1.36-.06.63-.12.83-.16l1.07,4.89c-.34.14-.83.26-1.47.41-.63.14-1.43.22-2.38.23-1.56.02-3.01-.25-4.36-.83s-2.43-1.48-3.26-2.69c-.83-1.21-1.24-2.74-1.24-4.57v-29.98h0Z"/>
    <path class="st7" d="M630.24,2224.63c-2.99,0-5.57-.65-7.73-1.93-2.15-1.28-3.82-3.1-4.99-5.44-1.16-2.34-1.75-5.09-1.75-8.24s.58-5.86,1.75-8.23,2.8-4.23,4.91-5.56,4.57-2,7.39-2c1.72,0,3.37.29,4.99.85s3.06,1.46,4.33,2.67,2.29,2.78,3.02,4.72c.74,1.93,1.11,4.28,1.11,7.04v2.1h-24.16v-4.44h18.36c0-1.56-.32-2.94-.95-4.15-.63-1.2-1.52-2.16-2.66-2.86-1.14-.7-2.47-1.05-4-1.05-1.66,0-3.11.41-4.34,1.22-1.24.81-2.19,1.87-2.85,3.17s-1,2.7-1,4.23v3.46c0,2.03.36,3.76,1.08,5.19s1.72,2.51,3.02,3.25c1.29.74,2.8,1.12,4.53,1.12,1.12,0,2.15-.16,3.06-.49.93-.33,1.72-.81,2.39-1.45s1.19-1.44,1.54-2.39l5.6,1.01c-.45,1.65-1.25,3.09-2.4,4.32-1.16,1.24-2.6,2.19-4.33,2.87-1.73.68-3.71,1.02-5.93,1.02v-.02Z"/>
    <path class="st7" d="M655.78,2205.97v18.05h-5.92v-30.4h5.68v4.95h.37c.7-1.61,1.8-2.9,3.29-3.88,1.5-.97,3.39-1.47,5.67-1.47,2.07,0,3.89.43,5.44,1.29s2.76,2.15,3.62,3.85c.85,1.7,1.28,3.81,1.28,6.31v19.33h-5.92v-18.62c0-2.2-.57-3.93-1.72-5.18s-2.73-1.87-4.73-1.87c-1.37,0-2.59.3-3.65.89-1.06.59-1.9,1.46-2.51,2.6s-.92,2.51-.92,4.12v.02Z"/>
    <path class="st7" d="M697.34,2193.62v4.75h-16.6v-4.75h16.6ZM685.19,2186.34h5.92v28.75c0,1.15.17,2.01.52,2.58.34.57.79.97,1.33,1.16.55.21,1.14.3,1.79.3.48,0,.89-.03,1.24-.1.36-.06.63-.12.83-.16l1.07,4.89c-.34.14-.83.26-1.47.41-.63.14-1.43.22-2.38.23-1.56.02-3.01-.25-4.36-.83s-2.43-1.48-3.26-2.69-1.24-2.74-1.24-4.57v-29.98h0Z"/>
    <path class="st7" d="M706.86,2188.93c-1.03,0-1.91-.34-2.64-1.04s-1.1-1.52-1.1-2.48.37-1.81,1.1-2.5c.73-.69,1.61-1.04,2.64-1.04s1.91.34,2.64,1.04,1.1,1.52,1.1,2.48-.37,1.81-1.1,2.5c-.73.69-1.61,1.04-2.64,1.04ZM703.87,2224.01v-30.4h5.92v30.4h-5.92Z"/>
    <path class="st7" d="M730.84,2224.63c-2.99,0-5.57-.65-7.73-1.93-2.15-1.28-3.82-3.1-4.99-5.44-1.16-2.34-1.75-5.09-1.75-8.24s.58-5.86,1.75-8.23,2.8-4.23,4.91-5.56c2.11-1.33,4.57-2,7.39-2,1.72,0,3.37.29,4.99.85s3.06,1.46,4.33,2.67,2.29,2.78,3.02,4.72c.74,1.93,1.11,4.28,1.11,7.04v2.1h-24.16v-4.44h18.36c0-1.56-.32-2.94-.95-4.15-.63-1.2-1.52-2.16-2.66-2.86-1.14-.7-2.47-1.05-4-1.05-1.66,0-3.11.41-4.34,1.22-1.24.81-2.19,1.87-2.85,3.17s-1,2.7-1,4.23v3.46c0,2.03.36,3.76,1.08,5.19s1.72,2.51,3.02,3.25c1.29.74,2.8,1.12,4.53,1.12,1.12,0,2.15-.16,3.06-.49.93-.33,1.72-.81,2.39-1.45s1.19-1.44,1.54-2.39l5.6,1.01c-.45,1.65-1.25,3.09-2.4,4.32-1.16,1.24-2.6,2.19-4.33,2.87-1.73.68-3.71,1.02-5.93,1.02v-.02Z"/>
    <path class="st7" d="M773.24,2201.04l-5.36.95c-.22-.69-.57-1.34-1.06-1.96-.48-.62-1.13-1.12-1.95-1.52s-1.84-.59-3.06-.59c-1.68,0-3.07.37-4.2,1.12-1.12.74-1.68,1.71-1.68,2.88,0,1.01.37,1.83,1.12,2.46s1.96,1.12,3.64,1.52l4.83,1.11c2.8.65,4.88,1.64,6.25,2.99s2.06,3.1,2.06,5.24c0,1.82-.53,3.44-1.57,4.86s-2.51,2.53-4.37,3.33-4.03,1.2-6.48,1.2c-3.41,0-6.18-.73-8.33-2.19-2.15-1.46-3.47-3.53-3.96-6.22l5.72-.87c.36,1.49,1.08,2.62,2.19,3.37s2.55,1.14,4.33,1.14c1.94,0,3.49-.41,4.65-1.22s1.74-1.8,1.74-2.98c0-.95-.35-1.75-1.06-2.39s-1.79-1.13-3.23-1.47l-5.15-1.12c-2.84-.65-4.93-1.68-6.29-3.09s-2.03-3.2-2.03-5.36c0-1.8.5-3.37,1.5-4.71s2.39-2.39,4.16-3.16,3.79-1.14,6.07-1.14c3.29,0,5.87.71,7.75,2.13s3.14,3.31,3.74,5.69h0Z"/>
  </g>
  <ellipse class="st4" cx="621.16" cy="1010.82" rx="206.06" ry="12.12"/>
  <g>
    <path class="st2" d="M504.35,744.69c16.4-8.68,39.85-17.32,73.34-24.55"/>
    <circle class="st9" cx="602.82" cy="576.8" r="102.83"/>
    <ellipse class="st8" cx="574.21" cy="570.27" rx="10.53" ry="17.28" transform="translate(-69.69 80.05) rotate(-7.52)"/>
    <path class="st1" d="M632.84,566.49s9.96-24.64,31.07-5.86"/>
    <path class="st1" d="M649.28,595.8s-8.82,32.84-39.27,20.54"/>
    <path class="st2" d="M801.74,634.5s5.29,52.19-29.31,82.69c0,0-32.26,31.07-78.59,20.54"/>
    <path class="st0" d="M686.21,852.06l-19.92,146.6s26.4,0,41.65,4.1"/>
    <path class="st0" d="M590.04,856.16l-17.59,142.5s-31.07.57-41.65,5.29"/>
    <path class="st9" d="M522.03,881.99l217.56-24.64-2.34-68.01s-5.55-89.26-92.43-102.7c-15.03-2.34-30.32-1.63-45,2.38-30.68,8.42-81.28,34.16-82.47,112.04,0,0,4.67,80.92,4.67,80.92Z"/>
    <circle class="st5" cx="798.21" cy="563.53" r="61.58"/>
    <circle class="st3" cx="798.21" cy="563.53" r="52.85"/>
    <path class="st10" d="M812.58,577.07l4.36,4.45c-1.41,2.25-7.58,8.9-19.17,8.9s-20.14-6.7-22.92-18.47h-8.51l1.19-5.11h6.61c-.09-1.01-.18-2.07-.18-3.17,0-1.19.09-2.38.18-3.48h-7.8l1.19-5.11h7.4c2.86-11.55,11.68-18.16,22.92-18.16s17.67,7.1,19.09,9.3l-4.36,4.45c-2.78-3.83-7.8-7.4-14.55-7.4-6.21,0-12.83,3.48-15.43,11.77h21.91l-1.19,5.11h-21.82c-.09,1.1-.18,2.29-.18,3.48,0,1.1.09,2.16.18,3.17h20.63l-1.19,5.11h-18.47c2.64,8.51,9.3,12.08,15.51,12.08,6.83,0,11.86-3.17,14.63-7.01l-.04.09Z"/>
    <path class="st2" d="M516.74,834.47s-52.19-26.4-50.42-48.09c0,0-1.45-20.8,38.08-41.7"/>
    <circle class="st8" cx="802.88" cy="630.4" r="19.75"/>
    <circle class="st8" cx="520.27" cy="839.76" r="19.75"/>
  </g>
</svg>